<svg xmlns="http://www.w3.org/2000/svg" xmlns:xlink="http://www.w3.org/1999/xlink" viewBox="0 0 412.81 494.15"><defs><style>.cls-1{isolation:isolate;}.cls-2{fill:#ffa134;}.cls-3,.cls-6{fill:#232020;}.cls-16,.cls-3{opacity:0.1;}.cls-4{fill:#ffae63;}.cls-5{fill:#ffd22c;}.cls-6{opacity:0.08;}.cls-7{fill:#c08a6e;}.cls-8{fill:#efc7b0;}.cls-11,.cls-16,.cls-8{mix-blend-mode:multiply;}.cls-9{stroke:#fff;stroke-miterlimit:10;}.cls-10,.cls-13{fill:#fff;}.cls-11,.cls-17{fill:#4d4d4d;}.cls-11{opacity:0.5;}.cls-12{fill:#f7931e;}.cls-13{font-size:11.22px;font-family:Bebas, Bebas;}.cls-14{letter-spacing:-0.07em;}.cls-15{letter-spacing:-0.12em;}</style></defs><title>Asset 8</title><g class="cls-1"><g id="Layer_2" data-name="Layer 2"><g id="OBJECT"><circle class="cls-2" cx="206.29" cy="216.76" r="77.47" transform="translate(112.09 185.53) rotate(-0.35)"/><path class="cls-3" d="M205.78,132.32a84.45,84.45,0,1,0,85,83.93A84.45,84.45,0,0,0,205.78,132.32ZM206.72,287a70.26,70.26,0,1,1,69.84-70.69A70.26,70.26,0,0,1,206.72,287Z" transform="translate(113.4 184.28)"/><path class="cls-4" d="M205.73,123.65A93.11,93.11,0,1,0,299.4,216.2,93.11,93.11,0,0,0,205.73,123.65Zm1,170.58a77.47,77.47,0,1,1,77-77.94A77.47,77.47,0,0,1,206.76,294.23Z" transform="translate(113.4 184.28)"/><path class="cls-5" d="M181,240.25c-2-3.26-2.34-8.68,3.34-9.37,4.73-.57,9.58,3,13.88,5.07a26.86,26.86,0,0,0,11.69,2.52q6.85,0,11-3.33a10.71,10.71,0,0,0,4.13-8.76q0-5.5-3.33-7.83t-11.4-2.33h-3.55q-13.18,0-20.09-5.5t-6.91-16q0-10.23,6.75-15.89t19-5.66a32.94,32.94,0,0,1,10.14,1.67c7.16,2.31,18.5,7.94,16.51,15.23-3.14,11.5-15.4-3.64-19.81-5.54a22.93,22.93,0,0,0-9.11-1.67q-6.07,0-9.79,3.22a10.34,10.34,0,0,0-3.71,8.18q0,4.88,3.81,7t16.41,2.4q13.43.39,19.64,5.62t6.2,16.16q0,10.47-6.85,16.74t-18.47,6.28a46.67,46.67,0,0,1-8.2-.81c-6.26-1.13-15.67-1.07-20.2-6A8.57,8.57,0,0,1,181,240.25Z" transform="translate(113.4 184.28)"/><path class="cls-5" d="M207.89,266.86h-.1c-2.68,0-4.84-2.51-4.84-5.6V165.74c0-3.09,2.17-5.6,4.84-5.6h.1c2.68,0,4.84,2.51,4.84,5.6v95.51C212.74,264.35,210.57,266.86,207.89,266.86Z" transform="translate(113.4 184.28)"/><path d="M92.54,0a93.11,93.11,0,1,0,93.67,92.54A93.11,93.11,0,0,0,92.54,0Zm1,170.58a77.47,77.47,0,1,1,77-77.94A77.47,77.47,0,0,1,93.58,170.58Z" transform="translate(113.4 184.28)"/><circle class="cls-6" cx="96.47" cy="97.99" r="93.11" transform="translate(112.81 184.86) rotate(-0.35)"/><circle class="cls-2" cx="93.11" cy="93.11" r="77.47" transform="translate(112.84 184.84) rotate(-0.35)"/><path class="cls-3" d="M92.6,8.66a84.45,84.45,0,1,0,85,83.93A84.45,84.45,0,0,0,92.6,8.66Zm.94,154.71a70.26,70.26,0,1,1,69.84-70.69A70.26,70.26,0,0,1,93.54,163.37Z" transform="translate(113.4 184.28)"/><path class="cls-7" d="M56.43,51.61l-.52,1.28L50.61,66,49,70,46.62,66.8l-6.3-8.41a22.33,22.33,0,0,1-2.14-2.91c-4.29-7-3.38-14.33,1.35-14.59A5.33,5.33,0,0,1,41,41c4.84,1.11,12.39,7.78,14.71,9.91Z" transform="translate(113.4 184.28)"/><path class="cls-8" d="M55.92,52.89,50.61,66l-4,.82-6.3-8.41a22.33,22.33,0,0,1-2.14-2.91A7.21,7.21,0,0,1,41.05,53l0-12c4.84,1.11,12.39,7.78,14.71,9.91Z" transform="translate(113.4 184.28)"/><path class="cls-9" d="M98.55,101.22a8.08,8.08,0,0,1-7.12,8,8.21,8.21,0,0,1-.94.06l-38.79.11a8.07,8.07,0,0,1-8.1-8.05V99.24l-.12-43.07L43.36,9A8.07,8.07,0,0,1,51.41.91L90.2.8a8.07,8.07,0,0,1,8.09,8.05l.16,58.25Z" transform="translate(113.4 184.28)"/><polygon class="cls-10" points="208.82 281.21 160.12 281.34 160.11 277.21 159.91 205.28 159.88 195.28 208.58 195.14 208.61 205.14 208.81 277.07 208.82 281.21"/><path class="cls-11" d="M49.91,90.87a21.86,21.86,0,0,1-6.31,8.37l-.12-43.07L44.81,56S51,62.51,50.5,68.91,44.4,82.12,44.4,82.12l4.87.58S52,85.41,49.91,90.87Z" transform="translate(113.4 184.28)"/><rect class="cls-12" x="53.13" y="84.57" width="37.81" height="0.45" transform="translate(113.17 184.48) rotate(-0.16)"/><rect class="cls-12" x="53.09" y="88.14" width="37.81" height="0.45" transform="translate(113.16 184.48) rotate(-0.16)"/><rect class="cls-2" x="46.49" y="10.93" width="48.7" height="10" transform="translate(113.36 184.47) rotate(-0.16)"/><rect class="cls-2" x="65.96" y="39.78" width="23.65" height="0.45" transform="translate(113.29 184.49) rotate(-0.16)"/><rect class="cls-2" x="65.95" y="36.7" width="23.69" height="0.45" transform="translate(113.3 184.49) rotate(-0.16)"/><rect class="cls-2" x="65.94" y="33.62" width="23.74" height="0.45" transform="translate(113.31 184.49) rotate(-0.16)"/><rect class="cls-2" x="65.93" y="30.54" width="23.78" height="0.45" transform="translate(113.32 184.49) rotate(-0.16)"/><rect class="cls-12" x="46.71" y="92.87" width="48.7" height="4.13" transform="translate(113.14 184.47) rotate(-0.16)"/><circle class="cls-2" cx="70.9" cy="63.69" r="15.82" transform="translate(113.24 184.45) rotate(-0.14)"/><text class="cls-13" transform="translate(175.18 253.24) rotate(0.66)"><tspan class="cls-14">P</tspan><tspan class="cls-15" x="4.97" y="0">A</tspan><tspan x="10.06" y="0">Y</tspan></text><path class="cls-11" d="M98.55,101.22a8.08,8.08,0,0,1-7.12,8c-10.21-10.38-5.88-27.35-5.88-27.35S79,79.13,74.35,69.24a14.75,14.75,0,0,1,2.46-16.73L98.45,67.1Z" transform="translate(113.4 184.28)"/><path class="cls-7" d="M48.51,63.61c-.22,6.16-4.94,12.87-4.94,12.87l.14,13.58,0,1-.35,8.46s-1.46-2.85-3.3-6.67c-1.39-2.89-3-6.33-4.34-9.54-1.56-3.71-2.79-7.09-2.95-8.89-.52-6,5.74-16.06,5.74-16.06s5.15-8.22,9.3,1.06A9.38,9.38,0,0,1,48.51,63.61Z" transform="translate(113.4 184.28)"/><path class="cls-8" d="M43.57,76.48l.14,13.58,0,1L40,92.84c-1.39-2.89-3-6.33-4.34-9.54l5.76-3,0-7s5-4.42,7.08-9.68C48.29,69.76,43.57,76.48,43.57,76.48Z" transform="translate(113.4 184.28)"/><path class="cls-7" d="M155.31,149.53l-28.93-32c-2.8-4.41-5.14-30.89-5.14-30.89l-9.38-20.41a3.64,3.64,0,0,0-2.78-2.08,45.73,45.73,0,0,1-9.74-2.73A119.48,119.48,0,0,1,79.83,51.27a2.45,2.45,0,0,0-3.56,1.09c-.11.26-.23.55-.34.85a21.75,21.75,0,0,0-1,3.61c-1,5.3,3.54,21.78,18.33,21.77,0,0-3.32,12,.56,23.46a29.62,29.62,0,0,0,1.5,3.64q.34.68.72,1.36a6.66,6.66,0,0,1-.76.68l-.42.29a9.61,9.61,0,0,1-5.23,1.29l-16.71,0h0l-21.57.05a8.32,8.32,0,0,1-6-3,8.54,8.54,0,0,1-1.75-5.59l0-5.16v-.07c.2-.15.57-.41,1.24-.87a14.61,14.61,0,0,0,3.71-4.25A11.86,11.86,0,0,0,49.77,83a2.71,2.71,0,0,0-.19-.68A2.75,2.75,0,0,0,46,80.83c-3.34,1.37-8.58,3.62-10.17,4.81-2.39,1.8-2.52,1.94-2.63,2.92-.85,8.07,1.58,13.1,1.58,13.1s7.44,9.7,16.68,14.75c6.76,7.42,22.08,15.86,36.17,17l14.09,16.09Z" transform="translate(113.4 184.28)"/><path class="cls-8" d="M89.63,109.32l-16.71,0h0l-21.57.05a8.32,8.32,0,0,1-6-3,8.54,8.54,0,0,1-1.75-5.59V95.55c.2-.15.57-.41,1.24-.87a14.66,14.66,0,0,0,3.71-4.25A11.87,11.87,0,0,0,49.77,83a2.68,2.68,0,0,0-.19-.68c-.58,2.61-2.12,8.32-8.24,11.52l0,10.16a5.47,5.47,0,0,0,.08.71,7.85,7.85,0,0,0,7.38,7.08,15.9,15.9,0,0,0,2,.3l37-.09s5.45-.54,7.09-4A9.61,9.61,0,0,1,89.63,109.32Z" transform="translate(113.4 184.28)"/><path class="cls-16" d="M110.79,86.81c-.06,5.35-1.07,29.66,2.54,33.35,2.24,2.29,16,17.9,26.09,29.37h15.9l-28.93-32c-2.8-4.41-5.14-30.89-5.14-30.89l-9.38-20.41a3.64,3.64,0,0,0-2.78-2.08,45.73,45.73,0,0,1-9.74-2.73,49.19,49.19,0,0,1,6.82,4.4C108.57,68.06,110.85,81.46,110.79,86.81Z" transform="translate(113.4 184.28)"/><path class="cls-17" d="M74.35,7.84,67,7.81a.52.52,0,0,1-.52-.52h0A.52.52,0,0,1,67,6.77l7.35,0a.52.52,0,0,1,.52.52h0A.52.52,0,0,1,74.35,7.84Z" transform="translate(113.4 184.28)"/><image width="2300" height="2190" transform="scale(0.01)" xlink:href="../../../../logo WMC-01.png"/><path class="cls-2" d="M100.24,282.07,80.66,260.55a1,1,0,0,0-1.71.71l.65,12.19A74.06,74.06,0,0,1,38.2,243.52,67.15,67.15,0,0,1,27.9,192.1a1,1,0,0,0-.75-1.17l-5.65-1.26a1,1,0,0,0-1.18.75,74.83,74.83,0,0,0,11.43,57.41A81.8,81.8,0,0,0,78,281l-6.21,12.63A1,1,0,0,0,73,295l26.88-11.38A1,1,0,0,0,100.24,282.07Z" transform="translate(113.4 184.28)"/><path d="M267.23,73.67a81.8,81.8,0,0,0-48.76-29.32l5.18-13.16a1,1,0,0,0-1.34-1.2L196.36,43.59a1,1,0,0,0-.21,1.55L217.5,65a1,1,0,0,0,1.6-.83l-1.66-12.16A74.06,74.06,0,0,1,261.16,78.5a67.15,67.15,0,0,1,14.47,50.43,1,1,0,0,0,.82,1.07l5.78.8a1,1,0,0,0,1.08-.83A74.83,74.83,0,0,0,267.23,73.67Z" transform="translate(113.4 184.28)"/></g></g></g></svg>