<svg xmlns="http://www.w3.org/2000/svg" xmlns:xlink="http://www.w3.org/1999/xlink" viewBox="0 0 494.35 420.71"><defs><style>.cls-1{fill:none;}.cls-2{isolation:isolate;}.cls-3{fill:#ffd69f;}.cls-4{fill:#e67840;}.cls-5{fill:#e98f60;}.cls-6{fill:#e57442;}.cls-7{fill:#db5e26;}.cls-8{fill:#fff2e3;}.cls-9{fill:#8ad5ff;}.cls-15,.cls-17,.cls-9{opacity:0.25;}.cls-15,.cls-17,.cls-30,.cls-9{mix-blend-mode:multiply;}.cls-10,.cls-17{fill:#ff6700;}.cls-11{fill:#ff7e27;}.cls-12{fill:#efa511;}.cls-13{fill:#005391;}.cls-14{fill:#4e72bd;}.cls-15{fill:#598dea;}.cls-16{clip-path:url(#clip-path);}.cls-18{fill:#ed7407;}.cls-19{fill:#ffc97b;}.cls-20{fill:#dbeff6;}.cls-21{fill:#b75b00;}.cls-22{fill:#ef7e03;}.cls-23{fill:#f7902b;}.cls-24{fill:#ffeac5;}.cls-25{fill:#ffc239;}.cls-26{fill:#ffa727;}.cls-27{fill:#ffd880;}.cls-28{fill:#f9941c;}.cls-29{fill:#ffd15f;}.cls-30{fill:#405f9a;opacity:0.5;}.cls-31{fill:#ffe2c0;}</style><clipPath id="clip-path"><path class="cls-1" d="M24.44,253.62V119.81c0-34.18,89.29-66,123.47-66a62.06,62.06,0,0,1,62,62V249.58Z"/></clipPath></defs><title>courrier</title><g class="cls-2"><g id="Layer_2" data-name="Layer 2"><g id="OBJECT"><path class="cls-3" d="M217.82,33c-53.9,40.62-84.79,146-174.67,202-70.67,44-46,142.67,12.67,157.33,47,11.76,143.87-1.25,210,9.33,83.33,13.33,158.67,16,192.67-30,34.3-46.4,47.33-114.67-7.33-174.67-55.21-60.6-17.33-94-54-145.33C374.58,20.11,309.82-36.29,217.82,33Z"/><polygon class="cls-4" points="299.91 278.62 299.91 420.71 227.99 420.71 227.99 205.11 259.4 205.11 259.4 273.41 299.91 278.62"/><polygon class="cls-5" points="299.91 278.62 299.91 420.71 259.4 420.71 259.4 273.41 299.91 278.62"/><polygon class="cls-6" points="299.91 205.11 299.91 278.62 259.4 273.41 259.4 205.11 299.91 205.11"/><polygon class="cls-7" points="259.4 205.11 259.4 273.41 258.68 273.31 227.99 240.49 227.99 205.11 259.4 205.11"/><path class="cls-8" d="M390.8,114.76v104c0,10-7.8,18.09-17.42,18.09h-291V114.76c0-37.58,29.33-68,65.51-68H325.27a63.27,63.27,0,0,1,14.27,1.62c27,6.22,47.67,29.68,50.84,58.67A68.42,68.42,0,0,1,390.8,114.76Z"/><path class="cls-5" d="M373.38,229.82h-291v7.06h291c9.62,0,17.42-8.1,17.42-18.09v-7.06C390.8,221.72,383,229.82,373.38,229.82Z"/><path class="cls-8" d="M390.8,115.76v65.3H213V108.3H390.37A65.25,65.25,0,0,1,390.8,115.76Z"/><path class="cls-9" d="M390.37,107c-3.71-33.93-31.43-60.28-65.11-60.28H307.62c33.67,0,61.4,26.36,65.11,60.28a70.33,70.33,0,0,1,.42,7.75v104c0,10-7.8,18.09-17.42,18.09h17.65c9.62,0,17.42-8.1,17.42-18.09v-104A70.35,70.35,0,0,0,390.37,107Z"/><circle class="cls-10" cx="244.08" cy="133.75" r="16.92"/><path class="cls-5" d="M336.52,59c-4.63,5.78-13.09,6.72-19.23,2.6L313,58.71a3.19,3.19,0,0,0-4.44.88l-58.63,79-11.79-7.89,56.21-84h30.91a63.27,63.27,0,0,1,14.27,1.62A14.08,14.08,0,0,1,336.52,59Z"/><path class="cls-10" d="M331.24,33l-7.73-5.17a18.5,18.5,0,0,0-25.66,5.09l-3,4.43L292.43,41,236,125.37l15.77,10.55,54.65-81.69a3.2,3.2,0,0,1,4.44-.88l4.29,2.87c6.15,4.11,14.6,3.16,19.23-2.6A14.12,14.12,0,0,0,331.24,33Z"/><path class="cls-11" d="M293,46.91l2.45-3.67,4.26-6.37a16.16,16.16,0,0,1,22.42-4.45l9.67,6.47a14,14,0,0,1,5.58,7.44A14.11,14.11,0,0,0,331.24,33l-7.54-5a18.73,18.73,0,0,0-26,5.15l-2.84,4.24L292.43,41,236,125.37l3.13,2.09Z"/><circle class="cls-12" cx="242.48" cy="131.87" r="16.92"/><path class="cls-8" d="M228.14,133.57a16.91,16.91,0,0,1,24.82-15,16.91,16.91,0,1,0-18.39,28.22A16.88,16.88,0,0,1,228.14,133.57Z"/><circle class="cls-13" cx="243.55" cy="132.95" r="6.47"/><circle class="cls-10" cx="242.48" cy="131.87" r="6.47"/><path class="cls-11" d="M237,132.84a6.47,6.47,0,0,1,10.53-5,6.47,6.47,0,1,0-9.1,9.1A6.44,6.44,0,0,1,237,132.84Z"/><path class="cls-6" d="M78.86,236.88V115.77a69.05,69.05,0,1,1,138.1,0V236.88Z"/><path class="cls-8" d="M143.52,50.25h8.78a61.13,61.13,0,0,1,61.13,61.13v122a0,0,0,0,1,0,0h-131a0,0,0,0,1,0,0v-122A61.13,61.13,0,0,1,143.52,50.25Z"/><path class="cls-10" d="M209.89,115.76V229.83h-124V115.76a62,62,0,0,1,124,0Z"/><line class="cls-14" x1="85.92" y1="229.66" x2="209.89" y2="229.66"/><path class="cls-5" d="M87,233.36h126.4l-37.76,53.75a102.09,102.09,0,0,1-83.6,43h0c-30.94,0-49.2-33.91-31.68-58.85Z"/><path class="cls-8" d="M92.08,326.92A34.72,34.72,0,0,1,61,308.57a33.2,33.2,0,0,1,2.13-35.46l25.66-36.54H207.19L173,285.3A98.75,98.75,0,0,1,92.08,326.92Z"/><path class="cls-15" d="M100.31,319.48a36.42,36.42,0,0,1-32.62-19.25,34.7,34.7,0,0,1,.23-34l-4.82,6.86A33.2,33.2,0,0,0,61,308.57a34.72,34.72,0,0,0,31.1,18.36,99.38,99.38,0,0,0,65.32-24.35A104.54,104.54,0,0,1,100.31,319.48Z"/><g class="cls-16"><path class="cls-17" d="M243.58,189.7,255,135.9c0-.23.09-.44.13-.68s.06-.62.07-.93c0-.16,0-.51,0-.78a1.12,1.12,0,0,0,.37-.91,10.86,10.86,0,0,0-.83-3.81c-.18-.33-.38-.66-.6-1a10,10,0,0,0-1.52-1.76c-.28-.27-.59-.53-.9-.77a10.44,10.44,0,0,0-1.77-1.09,5.52,5.52,0,0,0-.7-.33,7.17,7.17,0,0,0-.82-.31,3.3,3.3,0,0,0-.39-.12,5.73,5.73,0,0,0-.73-.2L118.65,94.07c-.29-.07-.59-.12-.87-.16a7.2,7.2,0,0,0-.85-.09,4,4,0,0,0-.45,0,0,0,0,0,0,0,0,3.59,3.59,0,0,0-.6,0,3.05,3.05,0,0,0-.58,0l-.29,0-.41,0-.43.08-.2,0-.63.15-.32.08-.15.05-.58.2-.18.06-.58.25a6.33,6.33,0,0,0-.61.31,1,1,0,0,0-.23.14A8,8,0,0,0,107,99.85c-.66,2.2-.43,4.62-.62,6.89q-.44,5.15-.86,10.3-.51,6.07-1,12.15l-1,12.11-.84,10.19-.53,6.38a9.92,9.92,0,0,1-.1,1.22,10.81,10.81,0,0,0,8.45,12.56l120.35,25.79c.29.07.57.11.85.16a5.27,5.27,0,0,0,.55.05,5.68,5.68,0,0,0,.78.06,10.25,10.25,0,0,0,1.07,0,7.63,7.63,0,0,0,.92-.1,10.74,10.74,0,0,0,2.75-.79,5.35,5.35,0,0,0,.56-.27,3.94,3.94,0,0,0,.66-.37,7.22,7.22,0,0,0,.61-.4,4.79,4.79,0,0,0,.58-.45,9.16,9.16,0,0,0,1.06-1l.43-.49s0,0,.05-.07A9.57,9.57,0,0,0,243.58,189.7Z"/><path class="cls-18" d="M261.92,133.93l-11.72,56.45a10.51,10.51,0,0,1-1.93,4.27s0,0-.05.08l-.43.52a9.81,9.81,0,0,1-1.07,1.08,5,5,0,0,1-.59.49,7.47,7.47,0,0,1-.61.43,4.07,4.07,0,0,1-.66.4,5.5,5.5,0,0,1-.57.3,10.79,10.79,0,0,1-2.77.9,7.48,7.48,0,0,1-.93.13,10,10,0,0,1-1.07,0,5.49,5.49,0,0,1-.79,0,5.1,5.1,0,0,1-.55,0c-.28,0-.56-.08-.85-.14L109.45,172.26A10.88,10.88,0,0,1,101,159.39L112.72,103c.05-.24.1-.47.16-.7l0,0a7.67,7.67,0,0,1,.56-1.49s0,0,0,0l.1-.21a10.13,10.13,0,0,1,1-1.73c.15-.2.3-.39.46-.59s.33-.36.49-.55a11.27,11.27,0,0,1,1.09-1,10.43,10.43,0,0,1,2-1.25,10.79,10.79,0,0,1,7-.88l127.87,26.55a10.91,10.91,0,0,1,8.4,8.27s0,0,0,0a11.11,11.11,0,0,1,.24,2,1.41,1.41,0,0,1,0,.27,9.53,9.53,0,0,1-.07,1.63C262,133.47,262,133.69,261.92,133.93Z"/><path class="cls-19" d="M248.26,194.65s0,0-.05.08l-.43.52a9.81,9.81,0,0,1-1.07,1.08,5,5,0,0,1-.59.49,7.47,7.47,0,0,1-.61.43c-.21.15-.43.27-.66.4a5.5,5.5,0,0,1-.57.3,10.79,10.79,0,0,1-2.77.9,7.48,7.48,0,0,1-.93.13,10,10,0,0,1-1.07,0,5.49,5.49,0,0,1-.79,0,5.1,5.1,0,0,1-.55,0c-.28,0-.56-.08-.85-.14L109.45,172.26A10.88,10.88,0,0,1,101,159.39L112.72,103c.05-.24.1-.47.16-.7l0,0a7.67,7.67,0,0,1,.56-1.49s0,0,0,0l.1-.21a10.13,10.13,0,0,1,1-1.73c.15-.2.3-.39.46-.59s.33-.36.49-.55a11.27,11.27,0,0,1,1.09-1s0,0,0,.07a10.13,10.13,0,0,0-1,1.73,9.06,9.06,0,0,0-.67,1.74l0,0a4.93,4.93,0,0,0-.12.5L103,157.34a10.9,10.9,0,0,0,8.45,12.88l127.87,26.55A10.86,10.86,0,0,0,248.26,194.65Z"/><path class="cls-20" d="M262.53,130.47a1.25,1.25,0,0,1-.85,1.27l-1.31.45-75.53,25.65-1.12.38-5,1.7-4.79-4.35-.18-.16-59.17-53.67-.26-.23-.64-.58a1.14,1.14,0,0,1-.19-.22s0-.06-.07-.09a1.54,1.54,0,0,1-.21-.61s0-.09,0-.14a1.55,1.55,0,0,1,.07-.56s0-.07,0-.1a1.54,1.54,0,0,1,.14-.24s0-.07.05-.08l.38-.55a.65.65,0,0,1,.13-.17c.15-.19.29-.37.46-.55s.35-.4.53-.57a0,0,0,0,1,0,0c.18-.2.38-.37.58-.55a4.86,4.86,0,0,1,.47-.37,7.27,7.27,0,0,1,.86-.6,1,1,0,0,1,.23-.15,6.56,6.56,0,0,1,.61-.34l.58-.28.18-.07.59-.22.16-.06.33-.09.63-.18.2,0,.43-.09.41-.06.29,0a3,3,0,0,1,.59,0,3.49,3.49,0,0,1,.6,0,0,0,0,0,1,0,0,3.88,3.88,0,0,1,.45,0,6.94,6.94,0,0,1,.85.07c.28,0,.58.08.87.14l129.32,26.85a5.47,5.47,0,0,1,.74.19,3.14,3.14,0,0,1,.39.12,6.81,6.81,0,0,1,.82.3,5.28,5.28,0,0,1,.71.33,10,10,0,0,1,1.77,1.09c.31.24.62.51.9.78a9.87,9.87,0,0,1,1.52,1.79c.22.33.42.66.6,1A11.48,11.48,0,0,1,262.53,130.47Z"/><path class="cls-21" d="M262.12,132.24,185,158.43l-1.12.38-7.27,2.47-4-3.62-.5-.45L114,104.46l-1.33-1.21.06-.29c.05-.24.1-.47.16-.7l0,0a7.67,7.67,0,0,1,.56-1.49s0,0,0,0l.1-.21a10.13,10.13,0,0,1,1-1.73c.15-.2.3-.39.46-.59s.33-.36.49-.55a11.27,11.27,0,0,1,1.09-1,10.43,10.43,0,0,1,2-1.25,11.2,11.2,0,0,1,4.23,0l129.32,26.85a11,11,0,0,1,8,6.68s0,0,0,0a11.11,11.11,0,0,1,.24,2c0,.4,1.79-.22,1.76.19C262.16,131.39,262.15,132,262.12,132.24Z"/><path class="cls-12" d="M262.11,131.59l-1.75.59-75.53,25.65-1.12.38-5,1.7-4.79-4.35-.18-.16-59.17-53.67-.26-.23-.64-.58a1.14,1.14,0,0,1-.19-.22s0-.06-.07-.09a1.56,1.56,0,0,1,0-1.66s0-.07.05-.08l.38-.55a.65.65,0,0,1,.13-.17c.15-.19.29-.37.46-.55s.35-.4.53-.57a0,0,0,0,1,0,0c.18-.2.38-.37.58-.55a4.86,4.86,0,0,1,.47-.37,9.89,9.89,0,0,1,.86-.6l.72-.41c.24-.13.48-.24.74-.35s.51-.2.76-.29.52-.18.79-.25l.49-.11.43-.09c.2,0,.41-.06.61-.07a.19.19,0,0,1,.09,0,3,3,0,0,1,.59,0,3.49,3.49,0,0,1,.6,0,0,0,0,0,1,0,0,3.88,3.88,0,0,1,.45,0,6.94,6.94,0,0,1,.85.07c.28,0,.58.08.87.14l129.32,26.85a5.47,5.47,0,0,1,.74.19,3.14,3.14,0,0,1,.39.12,6.81,6.81,0,0,1,.82.3,5.28,5.28,0,0,1,.71.33,10,10,0,0,1,1.77,1.09c.31.24.62.51.9.78a9.87,9.87,0,0,1,1.52,1.79c.22.33.42.66.6,1C262.51,128,262.11,131.59,262.11,131.59Z"/><path class="cls-19" d="M261.71,126.52a10.23,10.23,0,0,0-2.39-2.1,10.73,10.73,0,0,0-3.81-1.6L126.18,96a10.25,10.25,0,0,0-1.81-.21,10.94,10.94,0,0,0-9.59,4.95c-.16.25-.33.53-.47.8l-.64-.58-.2-.18s0,0,0,0,0-.06-.07-.09a1.54,1.54,0,0,1-.21-.61s0-.09,0-.14a1.55,1.55,0,0,1,.07-.56s0-.07,0-.1a1.54,1.54,0,0,1,.14-.24s0-.07.05-.08l.38-.55a.65.65,0,0,1,.13-.17c.15-.19.29-.37.46-.55s.35-.4.53-.57a0,0,0,0,1,0,0c.18-.2.38-.37.58-.55a4.86,4.86,0,0,1,.47-.37,7.27,7.27,0,0,1,.86-.6,1,1,0,0,1,.23-.15c.16-.09.33-.18.49-.26a.6.6,0,0,1,.13-.08l.58-.28h0s.1-.05.14-.08l.59-.22h0l.12-.06.33-.09.34-.09.29-.08.2,0,.43-.09.41-.06a1.09,1.09,0,0,1,.2,0,.19.19,0,0,1,.09,0,3,3,0,0,1,.59,0,3.49,3.49,0,0,1,.6,0,0,0,0,0,1,0,0,3.88,3.88,0,0,1,.45,0,6.94,6.94,0,0,1,.85.07c.28,0,.58.08.87.14l129.32,26.85a5.47,5.47,0,0,1,.74.19,3.14,3.14,0,0,1,.39.12,6.81,6.81,0,0,1,.82.3,5.28,5.28,0,0,1,.71.33,10,10,0,0,1,1.77,1.09c.31.24.62.51.9.78a10.48,10.48,0,0,1,1.52,1.79C261.32,125.84,261.53,126.17,261.71,126.52Z"/><circle class="cls-22" cx="177.66" cy="160.55" r="6.47" transform="translate(-15.65 301.86) rotate(-78.27)"/><circle class="cls-10" cx="178.71" cy="159.92" r="6.47" transform="translate(-14.21 302.38) rotate(-78.27)"/><path class="cls-17" d="M216.43,190.9l-15.86-55.43c-.07-.24-.13-.46-.22-.69s-.25-.6-.39-.89h0c-.06-.16-.22-.49-.35-.74a1.23,1.23,0,0,0-.11-1,11.48,11.48,0,0,0-2.57-3.12c-.32-.22-.65-.42-1-.61a9.87,9.87,0,0,0-2.18-.88c-.38-.11-.77-.2-1.16-.27a10,10,0,0,0-2.08-.14,5.28,5.28,0,0,0-.78,0,6.8,6.8,0,0,0-.87.12,3.15,3.15,0,0,0-.4.08,5.5,5.5,0,0,0-.74.17l-127,36.34c-.29.08-.57.18-.84.28a6.92,6.92,0,0,0-.79.33,3.89,3.89,0,0,0-.4.21,0,0,0,0,0,0,0,3.49,3.49,0,0,0-.52.3,3,3,0,0,0-.5.31,2.55,2.55,0,0,0-.25.16,3.45,3.45,0,0,0-.33.24,4,4,0,0,0-.34.28l-.17.12-.48.45-.24.24-.11.12-.42.47-.12.15c-.14.17-.27.35-.39.51a6.55,6.55,0,0,0-.38.59,1,1,0,0,0-.13.24,7.26,7.26,0,0,0-.49.93,4.84,4.84,0,0,0-.25.55c-.09.25-.19.49-.26.75a0,0,0,0,0,0,0c-.08.24-.15.5-.21.76s-.1.47-.15.7a.66.66,0,0,0,0,.21c0,.21-.06.44-.08.67,0,0,0,.06,0,.09a1.55,1.55,0,0,0,0,.28s0,.06,0,.1h0c.06.34,17.08,58.9,17.08,58.9a10.88,10.88,0,0,0,13.46,7.47L209,204.34c.29-.08.56-.18.82-.27a5.1,5.1,0,0,0,.51-.22,5.47,5.47,0,0,0,.71-.33,10,10,0,0,0,.93-.54,7.49,7.49,0,0,0,.76-.55,10.79,10.79,0,0,0,2-2.09,5.5,5.5,0,0,0,.36-.53,4.09,4.09,0,0,0,.4-.66c.12-.22.24-.44.34-.67a5.07,5.07,0,0,0,.29-.71,9.8,9.8,0,0,0,.45-1.45c0-.22.09-.45.14-.66a.19.19,0,0,1,0-.09A10.51,10.51,0,0,0,216.43,190.9Z"/><path class="cls-23" d="M189.55,144.6l12.95,56.19a10.51,10.51,0,0,1,0,4.68.19.19,0,0,0,0,.09c-.06.21-.12.44-.17.66a9.8,9.8,0,0,1-.52,1.42,5.06,5.06,0,0,1-.33.69,7.48,7.48,0,0,1-.38.65,4.08,4.08,0,0,1-.43.64,5.51,5.51,0,0,1-.39.51,10.79,10.79,0,0,1-2.13,2,7.48,7.48,0,0,1-.79.51,10,10,0,0,1-1,.49,5.47,5.47,0,0,1-.73.29,5.09,5.09,0,0,1-.52.19c-.27.08-.54.16-.83.23L67.07,243.15A10.88,10.88,0,0,1,54,235L41.07,178.82c-.06-.24-.11-.46-.15-.71v0a7.68,7.68,0,0,1-.11-1.59s0,0,0,0,0-.16,0-.24a10.12,10.12,0,0,1,.21-2c.05-.25.11-.48.18-.73s.15-.47.22-.7a11.27,11.27,0,0,1,.58-1.35,10.43,10.43,0,0,1,1.27-2,10.79,10.79,0,0,1,6-3.71L176.5,136.44a10.91,10.91,0,0,1,11.08,4s0,0,0,0a11.13,11.13,0,0,1,1,1.68,1.41,1.41,0,0,1,.11.25,9.53,9.53,0,0,1,.62,1.51C189.45,144.14,189.5,144.36,189.55,144.6Z"/><path class="cls-24" d="M202.53,205.47a.19.19,0,0,0,0,.09c-.06.21-.12.44-.17.66a9.8,9.8,0,0,1-.52,1.42,5.06,5.06,0,0,1-.33.69,7.48,7.48,0,0,1-.38.65c-.13.23-.28.43-.43.64a5.51,5.51,0,0,1-.39.51,10.79,10.79,0,0,1-2.13,2,7.48,7.48,0,0,1-.79.51,10,10,0,0,1-1,.49,5.47,5.47,0,0,1-.73.29,5.09,5.09,0,0,1-.52.19c-.27.08-.54.16-.83.23L67.07,243.15A10.88,10.88,0,0,1,54,235L41.07,178.82c-.06-.24-.11-.46-.15-.71v0a7.68,7.68,0,0,1-.11-1.59s0,0,0,0,0-.16,0-.24a10.12,10.12,0,0,1,.21-2c.05-.25.11-.48.18-.73s.15-.47.22-.7a11.27,11.27,0,0,1,.58-1.35s0,0,0,.07a10.13,10.13,0,0,0-.21,2,9.07,9.07,0,0,0,.12,1.86v0a5,5,0,0,0,.1.5l13,56.38A10.9,10.9,0,0,0,68,240.45L195.3,211.12A10.86,10.86,0,0,0,202.53,205.47Z"/><path class="cls-20" d="M188.66,141.21a1.25,1.25,0,0,1-.24,1.51l-1,1-57.9,54.87-.86.81L124.82,203,118.65,201l-.23-.07-76.19-24-.33-.1-.82-.26a1.13,1.13,0,0,1-.26-.12l-.1,0a1.54,1.54,0,0,1-.45-.47l-.08-.12a1.55,1.55,0,0,1-.17-.54s0-.07,0-.1a1.54,1.54,0,0,1,0-.28s0-.07,0-.09c0-.23.08-.45.12-.66a.66.66,0,0,1,0-.21c.06-.23.11-.46.18-.69s.15-.51.24-.74a0,0,0,0,1,0,0c.09-.26.19-.5.3-.74a4.84,4.84,0,0,1,.28-.53,7.29,7.29,0,0,1,.53-.9,1,1,0,0,1,.15-.23,6.56,6.56,0,0,1,.41-.57c.13-.16.27-.33.41-.49l.13-.14.44-.45.12-.12.26-.22.5-.42.17-.11a4,4,0,0,1,.36-.26,3.42,3.42,0,0,1,.35-.22,2.53,2.53,0,0,1,.26-.15,3,3,0,0,1,.51-.28,3.49,3.49,0,0,1,.54-.27,0,0,0,0,1,0,0,3.89,3.89,0,0,1,.41-.19,6.93,6.93,0,0,1,.8-.29c.27-.08.56-.17.85-.23L177.15,136a5.48,5.48,0,0,1,.75-.14,3.15,3.15,0,0,1,.4-.06,6.81,6.81,0,0,1,.87-.07,5.29,5.29,0,0,1,.78,0A10,10,0,0,1,182,136c.38.09.77.2,1.15.33a9.88,9.88,0,0,1,2.13,1c.34.21.66.43,1,.66A11.48,11.48,0,0,1,188.66,141.21Z"/><path class="cls-22" d="M189,143l-59.1,56-.86.81-5.57,5.29-5.14-1.62-.64-.2L42.85,179.66l-1.72-.55-.07-.29c-.06-.24-.11-.46-.15-.71v0a7.68,7.68,0,0,1-.11-1.59s0,0,0,0,0-.16,0-.24a10.12,10.12,0,0,1,.21-2c.05-.25.11-.48.18-.73s.15-.47.22-.7a11.27,11.27,0,0,1,.58-1.35,10.43,10.43,0,0,1,1.27-2,11.2,11.2,0,0,1,3.86-1.72l128.71-29.66a11,11,0,0,1,10,2.74s0,0,0,0a11.12,11.12,0,0,1,1,1.68c.19.35,1.54-.95,1.68-.56C188.71,142.2,189,142.77,189,143Z"/><path class="cls-25" d="M188.76,142.4l-1.34,1.27-57.9,54.87-.86.81L124.82,203,118.65,201l-.23-.07-76.19-24-.33-.1-.82-.26a1.13,1.13,0,0,1-.26-.12l-.1,0A1.56,1.56,0,0,1,40,174.9s0-.07,0-.09c0-.23.08-.45.12-.66a.66.66,0,0,1,0-.21c.06-.23.11-.46.18-.69s.15-.51.24-.74a0,0,0,0,1,0,0c.09-.26.19-.5.3-.74a4.84,4.84,0,0,1,.28-.53,9.88,9.88,0,0,1,.53-.9c.16-.24.31-.45.48-.67s.34-.42.53-.63.38-.4.57-.58.4-.38.61-.56l.4-.31a4,4,0,0,1,.36-.26c.17-.11.35-.22.52-.32s0,0,.08-.05a3,3,0,0,1,.51-.28,3.49,3.49,0,0,1,.54-.27,0,0,0,0,1,0,0,3.89,3.89,0,0,1,.41-.19,6.93,6.93,0,0,1,.8-.29c.27-.08.56-.17.85-.23L177.15,136a5.48,5.48,0,0,1,.75-.14,3.15,3.15,0,0,1,.4-.06,6.81,6.81,0,0,1,.87-.07,5.29,5.29,0,0,1,.78,0A10,10,0,0,1,182,136c.38.09.77.2,1.15.33a9.88,9.88,0,0,1,2.13,1c.34.21.66.43,1,.66C187.6,138.93,188.76,142.4,188.76,142.4Z"/><path class="cls-24" d="M186.26,138a10.23,10.23,0,0,0-3.05-.91,10.74,10.74,0,0,0-4.13.14L50.37,166.84a10.25,10.25,0,0,0-1.74.56,10.94,10.94,0,0,0-6.64,8.5c0,.3-.08.62-.09.93l-.82-.26-.26-.09s0,0,0,0l-.1,0a1.54,1.54,0,0,1-.45-.47l-.08-.12a1.55,1.55,0,0,1-.17-.54s0-.07,0-.1a1.54,1.54,0,0,1,0-.28s0-.07,0-.09c0-.23.08-.45.12-.66a.66.66,0,0,1,0-.21c.06-.23.11-.46.18-.69s.15-.51.24-.74a0,0,0,0,1,0,0c.09-.26.19-.5.3-.74a4.84,4.84,0,0,1,.28-.53,7.29,7.29,0,0,1,.53-.9,1,1,0,0,1,.15-.23c.11-.15.22-.3.33-.44a.6.6,0,0,1,.08-.13c.13-.16.27-.33.41-.49h0c0-.06.07-.09.1-.13l.44-.45h0l.08-.11.26-.22.27-.23.23-.2.17-.11a4,4,0,0,1,.36-.26,3.42,3.42,0,0,1,.35-.22,1.08,1.08,0,0,1,.18-.1s0,0,.08-.05a3,3,0,0,1,.51-.28,3.49,3.49,0,0,1,.54-.27,0,0,0,0,1,0,0,3.89,3.89,0,0,1,.41-.19,6.93,6.93,0,0,1,.8-.29c.27-.08.56-.17.85-.23L177.15,136a5.48,5.48,0,0,1,.75-.14,3.15,3.15,0,0,1,.4-.06,6.81,6.81,0,0,1,.87-.07,5.29,5.29,0,0,1,.78,0A10,10,0,0,1,182,136c.38.09.77.2,1.15.33a10.48,10.48,0,0,1,2.13,1C185.64,137.5,186,137.72,186.26,138Z"/><circle class="cls-22" cx="124.14" cy="204" r="6.47" transform="translate(-42.64 33.09) rotate(-12.98)"/><circle class="cls-10" cx="124.82" cy="202.99" r="6.47" transform="translate(-42.39 33.21) rotate(-12.98)"/><path class="cls-17" d="M280.92,202.3,273,147.86c0-.23-.07-.45-.12-.68s-.16-.6-.26-.9-.15-.49-.24-.74a1.12,1.12,0,0,0,0-1,10.87,10.87,0,0,0-2.1-3.29c-.29-.25-.59-.48-.91-.71a10,10,0,0,0-2-1.12c-.36-.16-.74-.29-1.11-.41a10.45,10.45,0,0,0-2-.41,5.52,5.52,0,0,0-.78-.07,7.14,7.14,0,0,0-.87,0,3.28,3.28,0,0,0-.41,0,5.75,5.75,0,0,0-.76.07L130.59,155.91c-.3,0-.59.1-.87.15a7.19,7.19,0,0,0-.82.21,4,4,0,0,0-.42.14,0,0,0,0,0,0,0,3.6,3.6,0,0,0-.56.21,3.05,3.05,0,0,0-.54.22l-.27.12-.37.18-.38.22-.18.09-.54.36-.28.19-.13.1-.48.39-.14.12c-.16.14-.31.3-.45.43a6.35,6.35,0,0,0-.46.5,1,1,0,0,0-.17.21,8,8,0,0,0-1.86,5.61c.15,2.29,1.2,4.49,1.81,6.68l2.76,10,3.26,11.74,3.26,11.7,2.74,9.85,1.72,6.17a9.9,9.9,0,0,1,.33,1.18,10.81,10.81,0,0,0,12.28,8.86L271.63,214c.3,0,.57-.09.85-.15a5.32,5.32,0,0,0,.53-.14,5.69,5.69,0,0,0,.75-.22,10.26,10.26,0,0,0,1-.39,7.63,7.63,0,0,0,.83-.42,10.74,10.74,0,0,0,2.3-1.7,5.33,5.33,0,0,0,.43-.45,3.93,3.93,0,0,0,.49-.57,7.17,7.17,0,0,0,.43-.58,4.79,4.79,0,0,0,.39-.63,9.15,9.15,0,0,0,.65-1.31l.23-.61s0-.05,0-.09A9.57,9.57,0,0,0,280.92,202.3Z"/><path class="cls-26" d="M281.58,143.74l7.91,57.11a10.51,10.51,0,0,1-.39,4.67.19.19,0,0,0,0,.09l-.23.64a9.79,9.79,0,0,1-.65,1.37,5.06,5.06,0,0,1-.39.66c-.13.21-.28.41-.43.61a4.08,4.08,0,0,1-.49.6,5.49,5.49,0,0,1-.43.47,10.79,10.79,0,0,1-2.3,1.78,7.51,7.51,0,0,1-.83.44,10,10,0,0,1-1,.41,5.49,5.49,0,0,1-.75.23,5.1,5.1,0,0,1-.53.14c-.28.06-.55.11-.85.15L150.84,231a10.88,10.88,0,0,1-12.28-9.29l-7.91-57.1c0-.24-.07-.47-.08-.72v0a7.68,7.68,0,0,1,0-1.59s0,0,0,0,0-.16,0-.23a10.12,10.12,0,0,1,.39-2c.07-.24.15-.47.24-.71s.19-.45.28-.68a11.27,11.27,0,0,1,.69-1.29,10.43,10.43,0,0,1,1.44-1.84,10.79,10.79,0,0,1,6.28-3.17L269.3,134.45a10.91,10.91,0,0,1,10.68,5s0,0,0,0a11.11,11.11,0,0,1,.89,1.77,1.4,1.4,0,0,1,.09.25,9.54,9.54,0,0,1,.48,1.55C281.52,143.27,281.55,143.5,281.58,143.74Z"/><path class="cls-27" d="M289.11,205.52a.19.19,0,0,0,0,.09l-.23.64a9.79,9.79,0,0,1-.65,1.37,5.06,5.06,0,0,1-.39.66c-.13.21-.28.41-.43.61s-.32.4-.49.6a5.49,5.49,0,0,1-.43.47,10.79,10.79,0,0,1-2.3,1.78,7.51,7.51,0,0,1-.83.44,10,10,0,0,1-1,.41,5.49,5.49,0,0,1-.75.23,5.1,5.1,0,0,1-.53.14c-.28.06-.55.11-.85.15L150.84,231a10.88,10.88,0,0,1-12.28-9.29l-7.91-57.1c0-.24-.07-.47-.08-.72v0a7.68,7.68,0,0,1,0-1.59s0,0,0,0,0-.16,0-.23a10.12,10.12,0,0,1,.39-2c.07-.24.15-.47.24-.71s.19-.45.28-.68a11.27,11.27,0,0,1,.69-1.29s0,0,0,.07a10.12,10.12,0,0,0-.39,2,9.07,9.07,0,0,0,0,1.86v0a4.93,4.93,0,0,0,.05.51l7.94,57.3A10.9,10.9,0,0,0,152,228.44l129.36-17.93A10.86,10.86,0,0,0,289.11,205.52Z"/><path class="cls-20" d="M281,140.28a1.25,1.25,0,0,1-.37,1.48l-1.08.86L217,192.14l-.93.73-4.14,3.28-6-2.49-.23-.09L132,162.89l-.32-.13-.79-.34a1.13,1.13,0,0,1-.25-.14l-.1-.06a1.54,1.54,0,0,1-.4-.51l-.06-.12a1.55,1.55,0,0,1-.12-.55s0-.07,0-.1a1.54,1.54,0,0,1,.05-.27s0-.07,0-.09c.06-.22.12-.44.18-.65a.65.65,0,0,1,.06-.2c.08-.22.15-.45.24-.68s.2-.49.31-.72a0,0,0,0,1,0,0c.11-.25.24-.48.36-.71a4.85,4.85,0,0,1,.32-.51,7.28,7.28,0,0,1,.61-.85,1,1,0,0,1,.17-.22,6.57,6.57,0,0,1,.46-.53c.14-.14.3-.31.45-.45l.14-.13.48-.4.13-.11.28-.2.54-.38.18-.1.38-.23a3.43,3.43,0,0,1,.37-.19,2.54,2.54,0,0,1,.27-.13,3,3,0,0,1,.54-.23,3.48,3.48,0,0,1,.56-.22,0,0,0,0,1,0,0,3.86,3.86,0,0,1,.42-.15,6.92,6.92,0,0,1,.82-.22c.28-.06.57-.11.87-.16L270,134.05a5.47,5.47,0,0,1,.76-.07,3.15,3.15,0,0,1,.41,0,6.8,6.8,0,0,1,.87,0,5.28,5.28,0,0,1,.78.07,10,10,0,0,1,2,.43c.37.13.75.27,1.11.43a9.88,9.88,0,0,1,2,1.18c.32.24.62.48.91.75A11.48,11.48,0,0,1,281,140.28Z"/><path class="cls-28" d="M281.21,142.09l-63.83,50.56-.93.73-6,4.77-5-2.07-.62-.25-72.47-30.17-1.66-.7,0-.3c0-.24-.07-.47-.08-.72v0a7.68,7.68,0,0,1,0-1.59s0,0,0,0,0-.16,0-.23a10.12,10.12,0,0,1,.39-2c.07-.24.15-.47.24-.71s.19-.45.28-.68a11.27,11.27,0,0,1,.69-1.29,10.43,10.43,0,0,1,1.44-1.84,11.2,11.2,0,0,1,4-1.37L268.49,136a11,11,0,0,1,9.75,3.62s0,0,0,0a11.11,11.11,0,0,1,.89,1.77c.16.37,1.62-.81,1.73-.41C281,141.27,281.16,141.86,281.21,142.09Z"/><path class="cls-29" d="M281,141.47l-1.44,1.14L217,192.14l-.93.73-4.14,3.28-6-2.49-.23-.09L132,162.89l-.32-.13-.79-.34a1.13,1.13,0,0,1-.25-.14l-.1-.06a1.56,1.56,0,0,1-.55-1.56s0-.07,0-.09c.06-.22.12-.44.18-.65a.65.65,0,0,1,.06-.2c.08-.22.15-.45.24-.68s.2-.49.31-.72a0,0,0,0,1,0,0c.11-.25.24-.48.36-.71a4.85,4.85,0,0,1,.32-.51,9.9,9.9,0,0,1,.61-.85c.18-.22.35-.42.54-.63s.37-.39.58-.58.41-.36.62-.53.43-.35.66-.5l.43-.27.38-.23c.18-.1.37-.19.55-.27,0,0,0,0,.08,0a3,3,0,0,1,.54-.23,3.48,3.48,0,0,1,.56-.22,0,0,0,0,1,0,0,3.86,3.86,0,0,1,.42-.15,6.92,6.92,0,0,1,.82-.22c.28-.06.57-.11.87-.16L270,134.05a5.47,5.47,0,0,1,.76-.07,3.15,3.15,0,0,1,.41,0,6.8,6.8,0,0,1,.87,0,5.28,5.28,0,0,1,.78.07,10,10,0,0,1,2,.43c.37.13.75.27,1.11.43a9.88,9.88,0,0,1,2,1.18c.32.24.62.48.91.75C280.14,137.92,281,141.47,281,141.47Z"/><path class="cls-27" d="M278.9,136.83a10.23,10.23,0,0,0-3-1.18,10.74,10.74,0,0,0-4.13-.23L141,153.55a10.25,10.25,0,0,0-1.78.41,10.94,10.94,0,0,0-7.37,7.88c-.07.29-.13.61-.18.92l-.79-.34-.25-.11s0,0,0,0l-.1-.06a1.54,1.54,0,0,1-.4-.51l-.06-.12a1.55,1.55,0,0,1-.12-.55s0-.07,0-.1a1.54,1.54,0,0,1,.05-.27s0-.07,0-.09c.06-.22.12-.44.18-.65a.65.65,0,0,1,.06-.2c.08-.22.15-.45.24-.68s.2-.49.31-.72a0,0,0,0,1,0,0c.11-.25.24-.48.36-.71a4.85,4.85,0,0,1,.32-.51,7.28,7.28,0,0,1,.61-.85,1,1,0,0,1,.17-.22c.12-.14.25-.28.37-.41a.59.59,0,0,1,.09-.12c.14-.14.3-.31.45-.45h0c0-.06.08-.08.11-.12l.48-.4h0l.09-.1.28-.2.29-.2.24-.18.18-.1.38-.23a3.43,3.43,0,0,1,.37-.19,1.07,1.07,0,0,1,.19-.08s0,0,.08,0a3,3,0,0,1,.54-.23,3.48,3.48,0,0,1,.56-.22,0,0,0,0,1,0,0,3.86,3.86,0,0,1,.42-.15,6.92,6.92,0,0,1,.82-.22c.28-.06.57-.11.87-.16L270,134.05a5.47,5.47,0,0,1,.76-.07,3.15,3.15,0,0,1,.41,0,6.8,6.8,0,0,1,.87,0,5.28,5.28,0,0,1,.78.07,10,10,0,0,1,2,.43c.37.13.75.27,1.11.43a10.48,10.48,0,0,1,2,1.18C278.31,136.32,278.61,136.57,278.9,136.83Z"/><circle class="cls-22" cx="211.16" cy="197.1" r="6.47" transform="translate(-25.06 30.85) rotate(-7.89)"/><circle class="cls-10" cx="211.93" cy="196.16" r="6.47" transform="translate(-24.92 30.95) rotate(-7.89)"/></g><rect class="cls-5" x="298" y="139.96" width="28.83" height="12.94" rx="6.04" ry="6.04"/><rect class="cls-5" x="344.69" y="120.18" width="21.62" height="32.72" rx="10.09" ry="10.09"/><rect class="cls-5" x="227.99" y="197.39" width="28.02" height="11.69" rx="5.45" ry="5.45"/><rect class="cls-5" x="218.5" y="65.25" width="31.11" height="12.35" rx="5.76" ry="5.76"/><path class="cls-30" d="M209.89,115.76V229.83H182.13c.15-3.78.3-7.55.45-11.18,12.86-176.85-67-155.42-67-155.42l.28-.53a62,62,0,0,1,94,53.06Z"/><ellipse class="cls-11" cx="321.18" cy="45.76" rx="6.3" ry="9.85" transform="translate(120.96 301.03) rotate(-60)"/><path class="cls-31" d="M427.16,113.81c1.23,14,2.89,28.19,9,40.81s17.47,23.51,31.35,25.36a25.28,25.28,0,0,0,12.45-1.25c8-3.09,13.4-11.21,14.28-19.69s-2.42-17.1-7.94-23.6c-9.39-11.07-24.35-16.17-33.91-27.09-8.68-9.91-11.88-23.35-18-35-1.73-3.28-4.09-6.73-7.73-7.47-10.74-2.21-4.05,14.24-3.18,18.22C425.58,93.85,426.28,103.87,427.16,113.81Z"/></g></g></g></svg>