<svg xmlns="http://www.w3.org/2000/svg" viewBox="0 0 337.35 319.41"><defs><style>.cls-1,.cls-13,.cls-2,.cls-3{fill:none;}.cls-1,.cls-2,.cls-3{stroke:#fff;stroke-miterlimit:10;stroke-width:2px;}.cls-1{stroke-dasharray:4;}.cls-3{stroke-dasharray:3.92 3.92;}.cls-4{fill:#0f0f0f;}.cls-5{fill:#d1d1d1;}.cls-6{fill:#cfcfcf;}.cls-12,.cls-7{fill:#fff;}.cls-8{fill:#004b80;}.cls-9{fill:#004170;}.cls-10{fill:#f7ae57;}.cls-11{fill:#ffa329;}.cls-12{fill-rule:evenodd;}.cls-13{stroke:#d2f9ff;}.cls-14{fill:#ff6325;}.cls-15{fill:#f3f3f3;}.cls-16{fill:#ffd300;}</style></defs><title>E-commerce</title><g id="Layer_2" data-name="Layer 2"><g id="OBJECT"><line class="cls-1" x1="172.2" y1="101" x2="172.2" y2="56.81"/><circle class="cls-1" cx="168.17" cy="163.07" r="134.1"/><polyline class="cls-1" points="138.24 182.53 106.97 230.12 61.6 230.12"/><line class="cls-2" x1="55.42" y1="134.85" x2="57.42" y2="134.85"/><line class="cls-3" x1="61.34" y1="134.85" x2="122.11" y2="134.85"/><line class="cls-2" x1="124.07" y1="134.85" x2="126.07" y2="134.85"/><polyline class="cls-1" points="154.41 103.24 143.98 68.67 93.67 68.67"/><polyline class="cls-1" points="186.71 101 198.04 56.81 243.07 56.81"/><line class="cls-1" x1="285.02" y1="124.5" x2="210.93" y2="124.5"/><polyline class="cls-1" points="210.26 172.27 237.98 199.99 290.82 199.99"/><polygon class="cls-4" points="247.41 264.38 192.29 232.54 96.99 287.58 152.12 319.41 247.41 264.38"/><polygon class="cls-5" points="246.77 258.48 191.64 226.65 96.34 281.69 151.47 313.51 246.77 258.48"/><polygon class="cls-6" points="246.77 251.51 191.64 219.68 96.34 274.72 151.47 306.54 246.77 251.51"/><path class="cls-7" d="M191.64,223.16l49.09,28.35-89.26,51.55-49.09-28.34,89.26-51.56m0-3.49-95.3,55,55.13,31.82,95.3-55-55.12-31.83Z"/><polygon class="cls-8" points="162.89 292.98 234.7 251.51 191.64 226.65 119.83 268.12 162.89 292.98"/><polygon class="cls-9" points="162.89 292.98 234.7 251.51 119.83 268.12 162.89 292.98"/><path class="cls-7" d="M124.17,280.48a1.92,1.92,0,0,1,2.63-.71l13.46,7.77a1.92,1.92,0,1,1-1.92,3.34l-13.46-7.77A1.92,1.92,0,0,1,124.17,280.48Z"/><polygon class="cls-10" points="151.47 306.54 151.47 313.51 96.34 281.69 96.34 274.72 151.47 306.54"/><polygon class="cls-11" points="151.47 306.54 151.47 313.51 246.77 258.48 246.77 251.51 151.47 306.54"/><path class="cls-7" d="M117.25,271.27a1,1,0,0,1,1.33-.36l6.83,3.94a1,1,0,1,1-1,1.69l-6.83-3.94A1,1,0,0,1,117.25,271.27Z"/><path class="cls-7" d="M145.3,287.69a1,1,0,0,1,1.33-.36l6.83,3.94a1,1,0,1,1-1,1.69L145.66,289A1,1,0,0,1,145.3,287.69Z"/><path class="cls-11" d="M223.85,147.11a52.29,52.29,0,1,0-66.37,50.36l14.08,66.9,14.08-66.9A52.3,52.3,0,0,0,223.85,147.11Z"/><circle class="cls-8" cx="171.56" cy="147.11" r="42.2"/><path class="cls-12" d="M212.23,135.83a20.45,20.45,0,0,0-3.46-1.42,1.59,1.59,0,0,0,0-1.78c-1.21.07-2.16.13-3.33.11s-1.52.71-2.44.89c-.42.08-1.32.23-1.67-.33.7-.53,2-.42,2.55-1.11-.27-1.43,1.57-1.38,1.78-2.67a2.37,2.37,0,0,0,2.44-.55,9.86,9.86,0,0,0,2.38,1.82,42.26,42.26,0,0,0-3.41-6.47h-.42c-.79.9-1.82,2.07-3.22,2-.13.17-.1.5-.44.44s-.8-.31-.89.22c.77.26,2,1.48,1,2.44-1.23.19-2.62-.47-3.33.22.15,1.46-.54,1.92-.11,3.11.76-.1,1.29,0,1.33.66-.4,1.31-2.27,1.14-2.11,3a11.78,11.78,0,0,0-3.89,4.44c1.11,1.35-.35,2.94,0,4.78.73.68,1.72,1.09,1.89,2.33,1.1.41,1.6,1.7,2.78,1.78.91.06,1.86-.84,3-.22a5.16,5.16,0,0,1,3.22-.78c.3.29.32.87.78,1s.76-.13,1.22-.11c1.41.68,0,2,.22,3.11.09.46.86.91,1.22,1.44.81,1.19.86,2.43,1.22,3.77-.43,1-1.37,2-1.11,3.33a9.39,9.39,0,0,0,1.13,2,42.35,42.35,0,0,0,1.67-27.41Z"/><path class="cls-12" d="M194.93,154.62c-1.82-.36-2.26-1.63-4.56-1.33-.46-1.31-2.32-.57-2.89-1.67.25-.58-.64-1-.56-1.78-.66-1.11-2-.64-3-1-.8-.3-.86-1.41-1.78-1.44a4.88,4.88,0,0,0-.33-.89c-.38.56-.51-.25-1.11-.11a3.33,3.33,0,0,1-3.11-.55c-.43,0-.41.4-.89.33,0-.34.29-.57-.11-.67a2.79,2.79,0,0,1-1.78.78c-.37.37-.37,1.11-1,1.22a1.93,1.93,0,0,0-2.22-.11,2.13,2.13,0,0,1-1.11-1.22,18.61,18.61,0,0,0,.44-2.11c-.51-.71-1.66-.11-2.55-.44a10.69,10.69,0,0,0,1-2.66c-.32-.43-1-.09-1.44,0-.33,1-1.16,1.58-2.67,1.44-1.66-1-.59-3.05-.22-4.66,1-.74,2.21-1.62,3.77-.89a3,3,0,0,1,3.55,0,2.07,2.07,0,0,1-.11.89,2.1,2.1,0,0,0,1.33.45c0-.8-.24-1.39-.22-2.22.89-1.15,2.38-1.69,3.67-2.44v-1.22h.55a4.08,4.08,0,0,1,3-1.89c0-1.51,1.72-1.32,2.77-1.78-.12.23-.53.45-.22.78.84-.71,2.63-.48,3.11-1.55-.6-.16-1.36.78-1.89,0-.14-.73.45-.73.55-1.22-.28-.38-.69,0-1-.22.42-1,1.55-.07,2,.22.4-.28-.5-.43-.22-.56,1.18.12,2-.53,2.89-.56-.37.64-1.48,1.1-1.45,1.78a6.73,6.73,0,0,1,2.55.44c.19-.38-.09-.74,0-1.33-.15-.22-.77,0-.78-.33.18-.6.61-.94.67-1.67a2.94,2.94,0,0,0-1.33-1.11c-.21-.71,0-1.84-.55-2.22-.71.14-.84.86-1.67.89-.19-.14-.44-.23-.44-.56s.34-.25.22-.67c-.47-.12-.68-.5-1-.78-.55.27-1.14,0-1.78,0-1.38,1.05-.3,4.12-3.22,3.77-.3.66-.27,1.65-1.22,1.67-.66-.66,0-1.18.22-1.89-1.61.13-1.91-1-3.44-1,.17-.64,0-.55-.22-1,1.24-1.5,3.6-1.88,5.55-2.67-.08.32-.75.42-.44.78.71.1,1.53-.34,2.22-.11.09-.76-1.15-.77-1-1.22,1.13.44,2.28-.65,2.78-1.55a5.68,5.68,0,0,0,1.55-.11,14.67,14.67,0,0,0,1.11,1c-.54,1-2.3.73-3.11,1.44.42.31.89-.1,1.44,0a3,3,0,0,0,2.44,1.22c.19-.35-.41-.45-.11-.56.6.23,1,.22,1.22-.44,0-.47-.55-.34-.44-.89.55-.42.64.42,1.11.44.51-.19,1.09-.32,1.22-.89-.31-.47-1.18-.38-1.45-.89-.09-.39.17-.43.11-.78-.71-.36-1.74-.41-2-1.22-2.21.07-5.1-.54-5.22,1.33.1.27.81-.07.67.45a3.11,3.11,0,0,1-1.44.89c-.28-.27.23-.24.11-.67-.25-.15-.69-.12-.67-.56.12-.25.07-.67.22-.89.52-.26,1.55,0,1.66-.67-1.08-.67-1.77.47-2.55.78.05-.32.39-.35.33-.78a4,4,0,0,0-2.22.55c.19.54.81.49,1.22.56a.91.91,0,0,0-.22,1.11,1.58,1.58,0,0,1-.78.33c-.1-.43.49-.18.33-.67-.69-.39-1.24.21-1.44.67-.84-.08-2.12.27-2.33-.44a2.86,2.86,0,0,0,2.22-.33c.08-.45-.47-.27-.44-.67.08-.55.74-.52.89-1-.59-.37-1.19.51-1.78.56s-1.74-.71-2-.78a3.66,3.66,0,0,0-4.11,1.11c.36.54,1.35-.39,1.89,0a2.61,2.61,0,0,1-.55,1.11c-1-.41-2.7-.11-3.55-.67-1,.36-2.73.38-4.11.67a17.36,17.36,0,0,0-11.33.22c0,.31.32.78,0,1-.92-.15-2.33-.2-2.66.56.25.63,1.22-.13,1.55.44-1.12.43-2.83.28-3.55,1.11a7.64,7.64,0,0,0,7,.44c.75.66,2.7.12,2.78,1.44-.42.3,0,.84-.33,1.22.26.35.8-.26.89.22-.41.59,0,2-.67,2.33.15.33.54.42.56.89-.91,2.21-3.55,3.24-2.67,6.88,1.54.16,1,2.37,1.78,3.33,0,.31-.33.26-.33.55.16.36.64.4.89.67-.13.92.57,1.55,1.11,1.44-.48-1.29-1-2.58-1.44-3.89.17-.12.23-.36.55-.33.42.23.28.59.22,1.11.79,1.43,1.93,2.51,2.55,4.11,0,.36-.32.43-.22.89,1.35,1,3,2.42,5.22,1.89.66.16.75.9,1.44,1.22,1,.48,2.64.17,2.55,1.89a15.35,15.35,0,0,0,2.67,1.55c.16-.39.17-.94.78-.89a3.59,3.59,0,0,1,.67,2.78c-.64.88-1.69,1.35-1.78,2.78-.06.39.39.27.33.67s-.61.35-.55.89a33.29,33.29,0,0,1,3.11,5.22c1.14,1.1,2.45.65,3.11,2,.8,1.62-.1,4.21.44,6.44a6.26,6.26,0,0,1,.11,3.44c.73.6.24,2.43,1.11,2.89.06-.2-.14-.65.11-.67a1.37,1.37,0,0,1,.22,1c0,.2-.37.07-.44.22a1.51,1.51,0,0,1,.11,1.11c.09.25.52.14.55.44-.11.15-.11.41-.22.55.29.64.89,1,1.11,1.67a2.66,2.66,0,0,1,1.22,1c1.06.18,2.71,1.57,3.67.44-.92-.6-2.07-1-2.44-2.11.4-.37.49-1.07.78-1.55-.25-.38-1-.21-1.11-.78a4.83,4.83,0,0,0,.89-1.89c-.39-.05-.7-.19-.78-.55.38,0,.9.09,1.11-.11,0-.35-.07-.81.11-1,2.25.34,2.15-1.68,1.22-2.33.53,0,.81.3,1.44.22.82-.21.65-1.19,1.11-2s1.72-1.35,1.11-2.89a4.08,4.08,0,0,1,3-1.33,6.51,6.51,0,0,0,1.22-4.88C194.06,157.73,196.16,156.51,194.93,154.62Zm-16.77-25.43c0,.5-.8.33-1.11.22C177.19,129.1,177.74,129.2,178.16,129.19Zm9.33-11.11c0,.11-.14.09-.22.11S187.41,118.1,187.49,118.08Zm-14.77,12.1c.29-1,.74-1.93,2-2C173.7,128.5,173.81,129.94,172.72,130.18Zm2,.11c.33-.33,1-.32,1.55-.45A1.42,1.42,0,0,1,174.72,130.3Zm.67-2.11c.54-.19,1,.15,1.44.11v.44c-.84-.17-.9.44-1.22.78C175,129.36,175.41,128.45,175.39,128.18Zm-.11-.55c-1,.48-1.85-.29-2.77,0C173.08,127.13,175.18,126,175.28,127.63Zm-3.66-10.44a7.84,7.84,0,0,1,2,.22c-.28.24-1.47.15-2,.11Zm-.11,7.11c0,.45,0,.77-.44.78C170.83,124.8,170.93,124.13,171.5,124.3Zm-4.11-3.55c.38-.31,1-.89,1.44-.44A2.17,2.17,0,0,1,167.39,120.75Zm1.33-2.22c-.75-.12-1,.28-1.66.22C167,118,168.67,117.76,168.72,118.52Zm8,28.65c-.2,0-.25-.19-.22-.44C176.84,146.68,176.9,147,176.72,147.17Z"/><path class="cls-12" d="M178.27,119.86v.33c.32,0,.61,0,.56-.33A.42.42,0,0,0,178.27,119.86Z"/><path class="cls-12" d="M202.88,124.41c-1,.34-.41,1.08-.67,1.55,1-.38,2.85.18,2.78-1.22a6,6,0,0,1-1.67-1.78c.1-.2.27-.32.33-.56-.66,0-.33-.54-.67-.67-.68.21-1.4.38-1.22,1.44C202,123.69,202.93,123.58,202.88,124.41Z"/><path class="cls-12" d="M201.66,124.85c-.11-.59.19-.77.34-1.11-.68-.71-1.38.06-2,.33.24.57-.06.68-.22,1.11C200.43,125.51,201.15,125,201.66,124.85Z"/><path class="cls-12" d="M153.85,124.41a.33.33,0,0,0,.55-.33C154.05,124,153.95,124.21,153.85,124.41Z"/><path class="cls-12" d="M208.43,129.85a.62.62,0,0,0-.44.11c0,.25,0,.42.22.44C208.26,130.2,208.53,130.21,208.43,129.85Z"/><path class="cls-12" d="M207.88,131.74c.74.15.75-.67.55-1.11C207.7,130.42,207.64,131.33,207.88,131.74Z"/><path class="cls-12" d="M209.58,132.41a1.87,1.87,0,0,0,1.22.44c-.08-.34.19-.33.11-.67C210.47,132.26,209.68,132,209.58,132.41Z"/><path class="cls-12" d="M140.21,121.08c.46-.5.93-1.34,1.89-1,0-.85-1.24-.39-1.33-1.11.86-.94,2,.31,3.22.11,0-1.08-1.34-1.32-2.33-1.11l-.44-.19a42.07,42.07,0,0,0-3,3.45A3.88,3.88,0,0,1,140.21,121.08Z"/><path class="cls-12" d="M139.65,125.52c.25-.52-.32-1.46.11-1.89-.48-.13-.15-.5-.33-.78-.36-.54-1.33-.52-1.52-1.21q-.61.8-1.18,1.64A9,9,0,0,0,139.65,125.52Z"/><path class="cls-12" d="M132.32,133.4a1.87,1.87,0,0,0-.42-.78c-.17.48-.34,1-.5,1.45C131.9,134,132.23,133.84,132.32,133.4Z"/><path class="cls-12" d="M135.1,128c.08-.56-.27-.69-.67-.78C134.46,127.63,134.59,128,135.1,128Z"/><path class="cls-12" d="M136,130.41c-.13-.77.48-.28.89-.33s.25-.49.67-.44c-.36-.75-1.59-.63-2.22-1.11a1.3,1.3,0,0,1-.11,1.44C135.41,130.17,135.53,130.45,136,130.41Z"/><path class="cls-12" d="M134,135.74a1.58,1.58,0,0,1,1.89-1.22c.19-.7,1.28-.5,1.78-.89-.41-1.29-.23-3.15-1.78-3,.84,1.18.16,2.12-.67,2.78a2.35,2.35,0,0,0-2.33,1.33C133.29,135,133.35,135.67,134,135.74Z"/><path class="cls-12" d="M130.43,149.17c-.48-.21-.53-.84-1.06-1q.05,2.12.31,4.18a2.23,2.23,0,0,1,.75-.86A1.93,1.93,0,0,1,130.43,149.17Z"/><path class="cls-12" d="M133.32,151.51c-.73-.13-2.45-.45-2.11.44C131.85,151.5,133.2,152.34,133.32,151.51Z"/><path class="cls-12" d="M139.42,153.62c-.31-.55-1.41-2.57-1.89-.89.16.4.56.55.56,1.11,1.16.35,2.49.54,2.89,1.66-.11.37-.62.35-.55.89,1-.37,1.31.31,1.78.44,1.25.36,1-.69,1.78-.78s1,.57,1.33,1.22a15.35,15.35,0,0,1,1.56.33c-.1-1-1-1.12-1.44-1.78-.06-.35.34-.25.22-.67a2.52,2.52,0,0,1-1.22-1.11C142.8,153.71,140.72,152,139.42,153.62Z"/><path class="cls-12" d="M132.1,153a.83.83,0,0,0,.66-.67c-.88.15-1.15.44-1.89,0a5.11,5.11,0,0,1-.44,1.33c.51.11.12,1.14.56,1.33.44-.19.11-1.15.55-1.33.24.54.3,1.26,1.11,1.22C132.76,153.91,132.23,153.64,132.1,153Z"/><path class="cls-12" d="M147,154.73a3.64,3.64,0,0,0-1.45.11C145.66,155.5,147,155.59,147,154.73Z"/><path class="cls-12" d="M131,156.5c0,.25.47,0,.67.11C131.83,156.23,130.91,156.09,131,156.5Z"/><path class="cls-12" d="M132.65,157.28c.58.1,1.29-.54,1.78-.89A1.67,1.67,0,0,0,132.65,157.28Z"/><path class="cls-12" d="M130.54,156.84c-.07.39.58.64.67.22C131,157,130.93,156.75,130.54,156.84Z"/><path class="cls-12" d="M147.46,162.5c-.28-.38-.79-.4-1-.89a15.49,15.49,0,0,1-.22-2c-.92-.12-.48-1.13-.89-1.89H145c-.76.9-.4,2.93-1.56,3.44-.67-.52-1.58-.79-2-1.56.36-.34.81-.94.67-1.44a3,3,0,0,1-2.11-.33c-.25,0,0,.61-.33.55-1-.38-1.05,1.08-1.78,1.33-.31-.21-.5-.54-1-.56-1.11.14-1,1.53-2.33,1.44-.19,1.22-1.21,1.62-2.31,1.92a42.13,42.13,0,0,0,3,6.07,4.1,4.1,0,0,1,2.78.23c0,.47.44.6.33,1.22.54,0,.64-.46,1.11-.55,0,1,.63,1.15.33,2.11.77.8,1.87.14,2.66.67a3.59,3.59,0,0,1,2-.67c1.35-2.28,4.27-3,4.44-6.44-.27-.64-.88-1.09-1.22-1.78C147.56,163.16,147.63,162.74,147.46,162.5Z"/><path class="cls-12" d="M136,158.06c.15,0,.21.16.44.11v-.33C136.18,157.8,136,157.86,136,158.06Z"/><path class="cls-12" d="M140,174.61a1.58,1.58,0,0,0,1.78-1.33C140.35,173,139.67,173.46,140,174.61Z"/><circle class="cls-11" cx="42.29" cy="133.77" r="21.39"/><path class="cls-7" d="M47.1,145.58a11.74,11.74,0,0,1-1.46.55A13.74,13.74,0,0,0,47,144.72l-.26-2A12.26,12.26,0,0,1,43,146.33v-5.57a11.7,11.7,0,0,1,3.58.79L46.4,140A13.17,13.17,0,0,0,43,139.4v-3.87h6a14.62,14.62,0,0,1-.5,3.21l1.2,1a15.92,15.92,0,0,0,.74-4.19H54a11.7,11.7,0,0,1-2.08,6l1,.86A13.09,13.09,0,0,0,52,126l0,0-.48-.48a13,13,0,0,0-7.85-3.74h-.07l-.55,0h-.35c-.29,0-.6,0-.91,0a.69.69,0,0,0-.27.06h0l-.54,0h-.07A13,13,0,0,0,33,125.54l-.48.48,0,0a13.1,13.1,0,0,0,0,17.62l0,0,.48.48a13,13,0,0,0,7.85,3.74H41l.54,0h0a.71.71,0,0,0,.26.06h0c.31,0,.61,0,.91,0h.35l.55,0h.07a13,13,0,0,0,3.59-.91ZM54,134.17H50.46a15.77,15.77,0,0,0-1.33-5.77A13.29,13.29,0,0,0,51,127,11.72,11.72,0,0,1,54,134.17Zm-4-8.15a11.87,11.87,0,0,1-1.55,1.16,14.13,14.13,0,0,0-2.88-3.62A11.77,11.77,0,0,1,50.07,126ZM43,123.37a12.4,12.4,0,0,1,4.25,4.5A11.7,11.7,0,0,1,43,128.94Zm0,6.93a13,13,0,0,0,4.86-1.21A14.33,14.33,0,0,1,49,134.17H43Zm-4.06-6.73a14.07,14.07,0,0,0-2.88,3.62A11.78,11.78,0,0,1,34.51,126,11.76,11.76,0,0,1,38.95,123.57ZM33.55,127a13.18,13.18,0,0,0,1.91,1.42,15.8,15.8,0,0,0-1.33,5.77H30.54A11.72,11.72,0,0,1,33.55,127Zm-3,8.55h3.58a15.8,15.8,0,0,0,1.33,5.77,13.19,13.19,0,0,0-1.91,1.42A11.72,11.72,0,0,1,30.54,135.52Zm4,8.15a11.84,11.84,0,0,1,1.55-1.16,14.08,14.08,0,0,0,2.88,3.62A11.77,11.77,0,0,1,34.51,143.67Zm7.06,2.66a12.37,12.37,0,0,1-4.26-4.5,11.69,11.69,0,0,1,4.26-1.08Zm0-6.93a13.06,13.06,0,0,0-4.86,1.22,14.38,14.38,0,0,1-1.16-5.09h6Zm0-5.23h-6a14.38,14.38,0,0,1,1.16-5.09,13,13,0,0,0,4.86,1.22Zm0-5.23a11.72,11.72,0,0,1-4.26-1.07,12.39,12.39,0,0,1,4.26-4.5Z"/><polygon class="cls-7" points="53.82 144.26 47.15 138.76 48.23 147.34 50.2 146.26 52.04 149.59 53.69 148.67 51.86 145.35 53.82 144.26"/><circle class="cls-11" cx="55.42" cy="230.12" r="29.31"/><circle class="cls-11" cx="296.37" cy="199.4" r="30.91"/><circle class="cls-11" cx="292.07" cy="124.63" r="21.39"/><circle class="cls-11" cx="78.41" cy="68.67" r="21.39"/><circle class="cls-11" cx="260.88" cy="53.43" r="28.09"/><path class="cls-7" d="M53.61,216.38V214.3h3.6v2.08c3.13.64,4.73,3,4.73,6.85v.88H57.78v-1.16c0-2-.8-2.76-2.2-2.76s-2.2.76-2.2,2.76c0,5.77,8.61,6,8.61,14.06,0,3.8-1.64,6.25-4.77,6.89v2h-3.6v-2c-3.16-.64-4.77-3.08-4.77-6.89v-1.92H53v2.2c0,2,.88,2.72,2.28,2.72s2.28-.72,2.28-2.72c0-5.77-8.61-6-8.61-14.06C49,219.46,50.53,217.06,53.61,216.38Z"/><path class="cls-7" d="M103.25,192.61v-5.41h-2.47a10.16,10.16,0,0,0-1-2.35l1.75-1.75-3.83-3.83L96,181a10.16,10.16,0,0,0-2.35-1v-2.47H88.21V180a10.18,10.18,0,0,0-2.35,1l-1.75-1.75-3.83,3.83L82,184.84a10.28,10.28,0,0,0-1,2.35H78.58v5.41h2.47A10.25,10.25,0,0,0,82,195l-1.75,1.75,3.83,3.83,1.75-1.75a10.25,10.25,0,0,0,2.35,1v2.47h5.41v-2.47a10.22,10.22,0,0,0,2.35-1l1.75,1.75,3.83-3.83L99.81,195a10.15,10.15,0,0,0,1-2.35Zm-12.33,2.11a4.82,4.82,0,1,1,4.82-4.82A4.82,4.82,0,0,1,90.92,194.72Z"/><path class="cls-7" d="M82.05,179v-1.61a6.74,6.74,0,0,0,1.54-.64l1.14,1.14,2.51-2.5L86.1,174.2a6.66,6.66,0,0,0,.64-1.54h1.61v-3.54H86.74a6.66,6.66,0,0,0-.64-1.54l1.14-1.14-2.51-2.5-1.14,1.14a6.68,6.68,0,0,0-1.54-.64v-1.61H78.51v1.61a6.67,6.67,0,0,0-1.54.64l-1.14-1.14-2.5,2.5,1.14,1.14a6.67,6.67,0,0,0-.64,1.54H72.21v3.54h1.61a6.68,6.68,0,0,0,.64,1.54l-1.14,1.14,2.5,2.5L77,176.7a6.73,6.73,0,0,0,1.54.64V179Zm-4.92-8.07A3.15,3.15,0,1,1,80.28,174,3.16,3.16,0,0,1,77.13,170.89Z"/><path class="cls-7" d="M270.83,155.74a9.18,9.18,0,0,0-17.93-3.82,7.74,7.74,0,0,0-12.23,6.31v0a6.49,6.49,0,0,0,.54,13h12.72v-6h-2.07l4.66-8.08,4.67,8.08h-2.07v6h11.47a7.75,7.75,0,0,0,.24-15.49Z"/><ellipse class="cls-7" cx="253.45" cy="241.93" rx="9.66" ry="1.72"/><path class="cls-7" d="M253.45,209.64a9.67,9.67,0,0,0-8.88,13.47h0c.08.19.17.38.27.57l8.61,18.24L262,223.84a9.66,9.66,0,0,0-8.54-14.2Zm0,16.16a6.49,6.49,0,1,1,6.49-6.49A6.5,6.5,0,0,1,253.45,225.8Z"/><circle class="cls-7" cx="253.45" cy="219.31" r="4.87"/><path class="cls-7" d="M117.47,98.36a10.93,10.93,0,0,0-20.64,3.56h2.71a8.25,8.25,0,0,1,15.89-1.52l-1.52,1.52H119V96.78Z"/><path class="cls-7" d="M107.69,111.49a8.26,8.26,0,0,1-7.74-5.4l1.53-1.53H96.34v5.14l1.57-1.57a10.93,10.93,0,0,0,20.63-3.57h-2.71A8.26,8.26,0,0,1,107.69,111.49Z"/><path class="cls-7" d="M244.29,90.74c0,7.62-3.46,12-7,12-1.85,0-2.93-.92-3-2.62a4,4,0,0,1-4,2.62c-2.89,0-3.89-2.46-3.54-5.89l.42-3.85c.35-3.5,1.93-5.7,4.78-5.62a3.21,3.21,0,0,1,3.31,2.54l.27-2.39h2.62l-1.16,11c-.12.89.15,1.66,1.12,1.66,3,0,4-5.66,3.93-9.43,0-5.35-2.5-8.82-8.28-8.82-7.7,0-11.28,6.39-11.28,15,0,6.66,3,10.66,9.74,10.66a11.6,11.6,0,0,0,7.58-2.42l-.23,2.66A12.58,12.58,0,0,1,232,110c-8.47,0-12.16-5.2-12.16-13.13,0-9.16,4.39-17.21,13.94-17.21C241.52,79.65,244.29,84.38,244.29,90.74ZM229.7,93.28l-.35,3.47c-.23,2,.39,3.43,2.19,3.46s2.73-1.35,3-3.43l.39-3.7c.19-1.81-.54-3.08-2.23-3.08S229.93,91.2,229.7,93.28Z"/><path class="cls-13" d="M80.4,74.82"/><rect class="cls-4" x="64.89" y="62.25" width="8.66" height="14.82"/><path class="cls-7" d="M82.23,62.06c.93-2.71.38-7.75.38-7.75a1.93,1.93,0,0,0-3.84,0v1.87c-.51,6.2-5.21,7.81-5.21,7.81v11.2s2.1,1.46,8.06,1.46l4.91-14.59Z"/><path class="cls-7" d="M92.84,63.87A1.81,1.81,0,0,1,91,65.68H84.44a1.81,1.81,0,0,1-1.81-1.81h0a1.81,1.81,0,0,1,1.81-1.81H91a1.81,1.81,0,0,1,1.81,1.81Z"/><path class="cls-14" d="M91,65.89H84.44a2,2,0,1,1,0-4H91a2,2,0,1,1,0,4Zm-6.59-3.62a1.61,1.61,0,1,0,0,3.22H91a1.61,1.61,0,1,0,0-3.22Z"/><path class="cls-7" d="M92,67.53a1.81,1.81,0,0,1-1.81,1.81H83.63a1.81,1.81,0,0,1-1.81-1.81h0a1.81,1.81,0,0,1,1.81-1.81h6.59A1.81,1.81,0,0,1,92,67.53Z"/><path class="cls-14" d="M90.22,69.54H83.63a2,2,0,0,1,0-4h6.59a2,2,0,0,1,0,4Zm-6.59-3.62a1.61,1.61,0,0,0,0,3.22h6.59a1.61,1.61,0,0,0,0-3.22Z"/><path class="cls-7" d="M91.22,71.19A1.81,1.81,0,0,1,89.41,73H82.82A1.81,1.81,0,0,1,81,71.19h0a1.81,1.81,0,0,1,1.81-1.81h6.59a1.81,1.81,0,0,1,1.81,1.81Z"/><path class="cls-14" d="M89.41,73.2H82.82a2,2,0,1,1,0-4h6.59a2,2,0,0,1,0,4Zm-6.59-3.62a1.61,1.61,0,1,0,0,3.22h6.59a1.61,1.61,0,0,0,0-3.22Z"/><path class="cls-7" d="M90.41,74.84a1.81,1.81,0,0,1-1.81,1.81H82a1.81,1.81,0,0,1-1.81-1.81h0A1.81,1.81,0,0,1,82,73H88.6a1.81,1.81,0,0,1,1.81,1.81Z"/><path class="cls-14" d="M88.6,76.86H82a2,2,0,1,1,0-4H88.6a2,2,0,0,1,0,4ZM82,73.23a1.61,1.61,0,1,0,0,3.22H88.6a1.61,1.61,0,0,0,0-3.22Z"/><circle class="cls-7" cx="71.23" cy="74.84" r="0.92"/><path class="cls-7" d="M282.28,115.23c0-2.47,1.27-3.85,3.64-3.85s3.64,1.37,3.64,3.85v7.9c0,2.47-1.27,3.85-3.64,3.85s-3.64-1.37-3.64-3.85Zm2.4,8.07c0,1.07.45,1.51,1.24,1.51s1.24-.45,1.24-1.51v-8.24c0-1.06-.48-1.51-1.24-1.51s-1.24.45-1.24,1.51Zm10.72-11.75h2.23l-9.48,24h-2.23ZM294.2,124c0-2.47,1.27-3.85,3.64-3.85s3.64,1.37,3.64,3.85v7.9c0,2.47-1.27,3.85-3.64,3.85s-3.64-1.37-3.64-3.85Zm2.4,8.07c0,1.06.45,1.51,1.24,1.51s1.24-.45,1.24-1.51v-8.24c0-1.06-.48-1.51-1.24-1.51s-1.24.45-1.24,1.51Z"/><path class="cls-15" d="M264.63,58.79h0l-19.86-2a.36.36,0,0,1-.31-.29L242,43.65a.35.35,0,0,1,.35-.42h27.88L273,36.29a.36.36,0,0,1,.27-.22L279.34,35a.36.36,0,1,1,.13.7l-5.89,1-2.75,7v0L265,58.56a.35.35,0,0,1-.33.23Zm-19.55-2.7,19.32,2L270,43.94H242.8l2.28,12.14Z"/><path class="cls-15" d="M267.66,65.83H244a.36.36,0,0,1,0-.71h23.53a2.13,2.13,0,0,0,1.28-1.76c0-1.8-3.16-3.94-4.38-4.62a.36.36,0,0,1,.34-.62c.19.11,4.72,2.65,4.75,5.23a2.83,2.83,0,0,1-1.71,2.44.37.37,0,0,1-.18,0Z"/><path class="cls-15" d="M247.05,71.88a2.58,2.58,0,1,1,2.59-2.58,2.59,2.59,0,0,1-2.59,2.58Zm0-4.46a1.87,1.87,0,1,0,1.87,1.87,1.87,1.87,0,0,0-1.87-1.87Z"/><circle class="cls-15" cx="247.06" cy="69.29" r="1.11"/><path class="cls-15" d="M267.5,71.88a2.58,2.58,0,1,1,2.58-2.58,2.59,2.59,0,0,1-2.58,2.58Zm0-4.46a1.87,1.87,0,1,0,1.87,1.87,1.87,1.87,0,0,0-1.87-1.87Z"/><circle class="cls-15" cx="267.5" cy="69.29" r="1.11"/><path class="cls-15" d="M267.27,51.16v.58l.71-1.81V47.55h.94l.28-.71H268V43.59h-.71v3.25h-3.72V43.59h-.71v3.25h-3.71V43.59h-.71v3.25H254.7V43.59H254v3.25h-3.72V43.59h-.71v3.25h-3.71V43.59h-.71v3.25H243l.13.71h2v2.9h-1.47l.13.71h1.34v2.9h-.79l.13.71h.66v1.68l.71.07V54.77h3.71V56.9l.71.07v-2.2H254v2.58l.71.07V54.77h3.72v3l.71.07v-3.1h3.71v3.48l.71.07V54.77h2.52l.28-.71h-2.8v-2.9Zm-3.72-3.61h3.72v2.9h-3.72Zm-14,6.5h-3.71v-2.9h3.71Zm0-3.61h-3.71v-2.9h3.71ZM254,54.06h-3.72v-2.9H254Zm0-3.61h-3.72v-2.9H254Zm4.43,3.61H254.7v-2.9h3.72Zm0-3.61H254.7v-2.9h3.72Zm4.43,3.61h-3.71v-2.9h3.71Zm0-3.61h-3.71v-2.9h3.71Z"/><path class="cls-7" d="M319.82,212.64a1.55,1.55,0,0,1-1.55,1.55l-43.77.06a1.55,1.55,0,0,1-1.55-1.55l0-26.57a1.55,1.55,0,0,1,1.55-1.55l43.77-.06a1.55,1.55,0,0,1,1.55,1.55Z"/><path class="cls-16" d="M286.66,200.91A2.06,2.06,0,0,1,284.6,203h-6.28a2.07,2.07,0,0,1-2.07-2.06v-3a2.07,2.07,0,0,1,2.06-2.07h6.28a2.06,2.06,0,0,1,2.07,2.06Z"/><polygon class="cls-7" points="278.35 197.65 275.63 197.66 275.63 198.07 278.35 198.07 278.36 200.62 275.63 200.63 275.63 201.04 278.36 201.03 278.36 204.23 278.77 204.23 278.76 194.61 278.35 194.61 278.35 197.65"/><polygon class="cls-7" points="287.27 198.06 287.27 197.64 284.55 197.65 284.55 194.6 284.14 194.6 284.15 204.22 284.56 204.22 284.56 201.03 287.28 201.02 287.28 200.61 284.56 200.61 284.55 198.06 287.27 198.06"/><circle class="cls-8" cx="298.8" cy="199.39" r="7.7" transform="translate(-0.3 0.45) rotate(-0.09)"/><path class="cls-7" d="M298.14,194.45v-.75h1.29v.75a2.18,2.18,0,0,1,1.7,2.46v.32h-1.5v-.42c0-.72-.29-1-.79-1s-.79.27-.79,1c0,2.07,3.1,2.17,3.1,5a2.21,2.21,0,0,1-1.71,2.48v.73h-1.3v-.73a2.2,2.2,0,0,1-1.72-2.48v-.69h1.5V202c0,.72.32,1,.82,1s.82-.26.82-1c0-2.07-3.1-2.17-3.1-5A2.2,2.2,0,0,1,298.14,194.45Z"/><rect class="cls-8" x="272.91" y="187.04" width="46.87" height="2.13" transform="translate(-0.27 0.42) rotate(-0.08)"/><rect class="cls-8" x="272.95" y="209.61" width="46.87" height="2.13" transform="translate(-0.44 0.62) rotate(-0.12)"/><circle class="cls-7" cx="132.28" cy="53.88" r="2.93"/><circle class="cls-7" cx="96.83" cy="18.02" r="2.93"/><circle class="cls-7" cx="29.17" cy="90.06" r="2.93"/><circle class="cls-7" cx="80" cy="143.77" r="2.93"/><circle class="cls-7" cx="20.9" cy="193.7" r="2.93"/><circle class="cls-7" cx="96.99" cy="251.51" r="2.93"/><circle class="cls-7" cx="103.25" cy="306.54" r="2.93"/><circle class="cls-7" cx="216.26" cy="303.61" r="2.93"/><circle class="cls-7" cx="148.9" cy="206.32" r="2.93"/><circle class="cls-7" cx="213.76" cy="219.67" r="2.93"/><circle class="cls-7" cx="247.41" cy="189.31" r="2.93"/><circle class="cls-7" cx="302.27" cy="251.51" r="2.93"/><circle class="cls-7" cx="316.39" cy="143.77" r="2.93"/><circle class="cls-7" cx="263.12" cy="109.36" r="2.93"/><circle class="cls-7" cx="232.79" cy="20.95" r="2.93"/><circle class="cls-16" cx="213.76" cy="13.58" r="2.93"/><circle class="cls-16" cx="110.87" cy="56.81" r="2.93"/><circle class="cls-16" cx="17.98" cy="52.55" r="2.93"/><circle class="cls-16" cx="2.93" cy="207.09" r="2.93"/><circle class="cls-16" cx="282.28" cy="270.78" r="2.93"/><circle class="cls-16" cx="334.42" cy="165" r="2.93"/><circle class="cls-16" cx="296.35" cy="74.84" r="2.93"/><polygon class="cls-16" points="65.88 25.61 69.9 27.81 65.88 30.01 63.68 34.02 61.48 30.01 57.47 27.81 61.48 25.61 63.68 21.59 65.88 25.61"/><polygon class="cls-16" points="80.61 112.48 84.63 114.67 80.61 116.87 78.41 120.89 76.22 116.87 72.2 114.67 76.22 112.48 78.41 108.46 80.61 112.48"/><polygon class="cls-16" points="14.27 159.87 18.29 162.07 14.27 164.27 12.07 168.29 9.87 164.27 5.86 162.07 9.87 159.87 12.07 155.86 14.27 159.87"/><polygon class="cls-16" points="122.03 238.01 126.05 240.21 122.03 242.41 119.83 246.42 117.63 242.41 113.61 240.21 117.63 238.01 119.83 233.99 122.03 238.01"/><polygon class="cls-16" points="252.73 294.97 256.75 297.17 252.73 299.37 250.54 303.39 248.34 299.37 244.32 297.17 248.34 294.97 250.54 290.96 252.73 294.97"/><polygon class="cls-16" points="329.47 234.33 333.49 236.53 329.47 238.72 327.27 242.74 325.08 238.72 321.06 236.53 325.08 234.33 327.27 230.31 329.47 234.33"/><polygon class="cls-16" points="237.92 138.64 241.94 140.84 237.92 143.04 235.72 147.05 233.52 143.04 229.5 140.84 233.52 138.64 235.72 134.62 237.92 138.64"/><polygon class="cls-16" points="318.58 90.1 322.6 92.3 318.58 94.5 316.39 98.51 314.19 94.5 310.17 92.3 314.19 90.1 316.39 86.08 318.58 90.1"/><polygon class="cls-16" points="249.61 4.02 253.63 6.21 249.61 8.41 247.41 12.43 245.22 8.41 241.2 6.21 245.22 4.02 247.41 0 249.61 4.02"/><polygon class="cls-16" points="122.03 21.68 126.05 23.88 122.03 26.08 119.83 30.09 117.63 26.08 113.61 23.88 117.63 21.68 119.83 17.66 122.03 21.68"/><polygon class="cls-16" points="71.42 285 75.44 287.2 71.42 289.39 69.22 293.41 67.02 289.39 63.01 287.2 67.02 285 69.22 280.98 71.42 285"/><path class="cls-7" d="M242,257.7a1,1,0,0,0-1.33-.36l-6.83,3.94a1,1,0,1,0,1,1.69l6.83-3.94A1,1,0,0,0,242,257.7Z"/><path class="cls-7" d="M229.76,264.85a1,1,0,0,0-1.33-.36l-6.83,3.94a1,1,0,1,0,1,1.69l6.83-3.94A1,1,0,0,0,229.76,264.85Z"/><path class="cls-7" d="M202,280.84a1,1,0,0,0-1.33-.36l-6.83,3.94a1,1,0,1,0,1,1.69l6.83-3.94A1,1,0,0,0,202,280.84Z"/><circle class="cls-11" cx="172.2" cy="32.26" r="28.63"/><path d="M181.32,21a.67.67,0,0,1-.67-.67V13.34a5.79,5.79,0,1,0-11.58,0v6.95a.67.67,0,1,1-1.33,0V13.34a7.12,7.12,0,1,1,14.25,0v6.95a.67.67,0,0,1-.67.67Z"/><path class="cls-7" d="M158.83,16.81V51.72h26.75V16.81ZM165.75,22a1.76,1.76,0,1,1,1.76-1.76A1.76,1.76,0,0,1,165.75,22Zm12.91,0a1.76,1.76,0,1,1,1.76-1.76A1.76,1.76,0,0,1,178.66,22Z"/><path d="M178.66,21a.67.67,0,0,1-.67-.67V13.34a5.79,5.79,0,1,0-11.58,0v6.95a.67.67,0,0,1-1.33,0V13.34a7.12,7.12,0,0,1,14.25,0v6.95a.67.67,0,0,1-.67.67Z"/></g></g></svg>