<?xml version="1.0" encoding="utf-8"?>
<!-- Generator: Adobe Illustrator 21.0.0, SVG Export Plug-In . SVG Version: 6.00 Build 0)  -->
<svg version="1.1" id="Layer_1" xmlns="http://www.w3.org/2000/svg" xmlns:xlink="http://www.w3.org/1999/xlink" x="0px" y="0px"
	 viewBox="0 0 446 445" style="enable-background:new 0 0 446 445;" xml:space="preserve">
<style type="text/css">
	.st0{opacity:0.3;fill:#F29E52;enable-background:new    ;}
	.st1{fill:#FFBD1D;}
	.st2{fill:#E49F05;}
	.st3{fill:#FFFAE4;}
	.st4{fill:none;stroke:#E49F05;stroke-width:1.21;stroke-miterlimit:10;}
	.st5{opacity:5.000000e-02;enable-background:new    ;}
	.st6{fill:#8CC64B;}
	.st7{opacity:0.3;fill:#3D3D3D;enable-background:new    ;}
	.st8{opacity:0.1;enable-background:new    ;}
	.st9{fill:#A3F1ED;}
	.st10{fill:#FFCA55;}
	.st11{fill:#FFECCC;}
	.st12{opacity:0.5;fill:#FFCA55;enable-background:new    ;}
	.st13{fill:none;stroke:#FFCA55;stroke-width:1.21;stroke-miterlimit:10;}
	.st14{fill:none;stroke:#FFBD1D;stroke-width:2.42;stroke-linecap:round;stroke-linejoin:round;}
	.st15{fill:none;stroke:#FFCA55;stroke-width:0.57;stroke-linecap:round;stroke-linejoin:round;}
	.st16{fill:none;stroke:#282827;stroke-width:1.21;stroke-miterlimit:10;}
	.st17{fill:none;stroke:#262626;stroke-width:1.21;stroke-linecap:round;stroke-linejoin:round;}
	.st18{fill:none;stroke:#FFCA55;stroke-width:1.21;stroke-linecap:round;stroke-linejoin:round;}
	.st19{fill:none;stroke:#FFBD1D;stroke-linecap:round;stroke-linejoin:round;}
	.st20{opacity:0.1;}
	.st21{opacity:5.000000e-02;}
	.st22{fill:none;stroke:#FFBD1D;stroke-width:1.21;stroke-miterlimit:10;}
	.st23{fill:none;stroke:#FFBD1D;stroke-width:1.21;stroke-linecap:round;stroke-linejoin:round;}
	.st24{opacity:0.5;fill:#FFBD1D;enable-background:new    ;}
	.st25{fill:#FFD67B;}
	.st26{fill:none;stroke:#FFBD1D;stroke-width:2.03;stroke-miterlimit:10;}
	.st27{fill:#8DC74B;}
	.st28{fill:none;stroke:#FFFDFF;stroke-width:2.08;stroke-linecap:round;stroke-miterlimit:10;}
	.st29{fill:none;stroke:#FFCA55;stroke-width:1.41;stroke-linecap:round;stroke-linejoin:round;}
</style>
<title>projets</title>
<g>
	<g id="Layer_2">
		<g id="OBJECTS">
			<path class="st0" d="M332,263.6l-9,21.6v0.1l-26.2-0.1h-3c-4.6,6.7-10.1,12.7-16.3,17.9l0.9,31.3l-21.8,8.9l-19.8-20l-0.7-0.7
				c-8,1.4-16.3,1.8-24.4,1l0.1,0.1l-21.4,22.8l-20.3-8.5l-1.4-0.6l0.2-29.2c-6.7-4.6-12.7-10.1-17.9-16.4l0,0l-30.5,1H120l-9-21.8
				l20.7-20.5c-1.5-8.1-1.8-16.4-1-24.6v0.1l-22.8-21.1l9.1-21.7l0,0l29.1,0.2c4.5-6.6,9.9-12.5,16.1-17.6v-0.6l-0.7-30.9l21.8-8.9
				l0.1,0.1l20.4,20.6c7.9-1.4,16-1.7,24-1l1.9-2l19.7-20.8l0.2,0.1l21.5,9l-0.2,29.2c6.7,4.6,12.7,10.2,17.9,16.4l31.2-1.2
				l8.9,21.8L308.2,218c1.4,8,1.8,16.3,1,24.4l0.1-0.1l0.1,0.1L332,263.6z"/>
			<path class="st1" d="M336.9,257.5l-9.2,22h-3.4l-26.1-0.1c0,0,0,0.1-0.1,0.1c-4.6,6.7-10.2,12.7-16.4,17.9l1,31.7l-22,9l-2.6-0.7
				l1-0.9l-19.2-19.4l-1.6,0.3c-7.6,1.2-15.4,1.5-23.1,0.8l0.1,0.1l-21.7,23.1l-22-9.2l0,0l0.2-29.5c-6.7-4.6-12.8-10.2-18-16.4
				l-0.1-0.2h-1h-0.1l-30.5,1l0,0l-9-22l21-20.8c-1.5-8.2-1.8-16.6-1-24.9v0.1l-23.1-21.4l8.6-20.5l0.6-1.5l29.6,0.2
				c4.3-6.2,9.3-11.8,15-16.7c0.4-0.4,0.9-0.8,1.3-1.1l-0.8-29.2l-0.2,0.3l-1.1-0.9l1.3-2.2l22-9l20.8,21c7-1.3,14.2-1.7,21.3-1.3
				c0.9,0,1.9,0.1,2.8,0.2h0.2l1.6-1.7l16.9-17.8l1.1-1.2l2.3-2.4l22,9.2l-0.2,29.6c6.8,4.7,12.9,10.3,18.2,16.7l31.6-1.1l9,22
				l-21,20.8c1.5,8.2,1.8,16.5,1,24.7l0.1-0.1l0,0L336.9,257.5z"/>
			<path class="st1" d="M336.9,257.5l-9.2,22h-3.4l-26.1-0.1c0,0,0,0.1-0.1,0.1c-4.6,6.7-10.2,12.7-16.4,17.9l1,31.7l-22,9l-2.6-0.7
				l1-0.9l-19.2-19.4l-1.6,0.3c-7.6,1.2-15.4,1.5-23.1,0.8l0.1,0.1l-21.7,23.1l-22-9.2l0,0l0.2-29.5c-6.7-4.6-12.8-10.2-18-16.4
				l-0.1-0.2h-1h-0.1l-30.5,1l0,0l-9-22l21-20.8c-1.5-8.2-1.8-16.6-1-24.9v0.1l-23.1-21.4l8.6-20.5l0.6-1.5l29.6,0.2
				c4.3-6.2,9.3-11.8,15-16.7c0.4-0.4,0.9-0.8,1.3-1.1l-0.8-29.2l-0.2,0.3l-1.1-0.9l1.3-2.2l22-9l20.8,21c7-1.3,14.2-1.7,21.3-1.3
				c0.9,0,1.9,0.1,2.8,0.2h0.2l1.6-1.7l16.9-17.8l1.1-1.2l2.3-2.4l22,9.2l-0.2,29.6c6.8,4.7,12.9,10.3,18.2,16.7l31.6-1.1l9,22
				l-21,20.8c1.5,8.2,1.8,16.5,1,24.7l0.1-0.1l0,0L336.9,257.5z"/>
			<path class="st1" d="M293,169.6l-3,1.6l-5.6,0.6l-15.1-15.7l2.9-30.5l2.8-2.2l-0.2,29.6C281.6,157.7,287.7,163.3,293,169.6z"/>
			<path class="st1" d="M312.7,211.3c1.5,8.2,1.8,16.5,1,24.7l-3.1,0.6h-0.2l-2.3-0.1l-2.5-2.7l-1.2-16.8l3.1-9.8l22.5-15.5l3.6-1.3
				L312.7,211.3z"/>
			<path class="st1" d="M333.2,258l-9,21.6v0.1l-26.2-0.1h-3c-4.6,6.6-10.1,12.6-16.3,17.8l0.9,31.3l-21.8,8.9l-19.8-20l-0.7-0.7
				c-8,1.4-16.3,1.8-24.4,1l0.1,0.1l-21.4,22.8l-20.3-8.5l-1.4-0.6l0.2-29.2c-6.7-4.6-12.7-10.1-17.9-16.4l0,0l-30.5,1h-0.7
				l-8.9-21.8l20.7-20.5c-1.5-8.1-1.8-16.4-1-24.6v0.1l-22.8-21.1l9.1-21.7l0,0l29.2,0.2c4.5-6.6,9.9-12.5,16.1-17.6v-0.6l-0.7-30.9
				l21.8-8.9l0.1,0.1l20.4,20.6c7.9-1.4,16-1.7,24-1l1.9-2l19.7-20.8l0.2,0.1l21.5,9l-0.2,29.1c6.7,4.6,12.8,10.2,18,16.4l31.2-1.1
				l8.9,21.8l-20.7,20.5c1.4,8,1.8,16.3,1,24.4l0.1-0.1l0.1,0.1L333.2,258z"/>
			
				<ellipse transform="matrix(0.1233 -0.9924 0.9924 0.1233 -35.0268 419.4078)" class="st2" cx="219.8" cy="229.5" rx="81" ry="81"/>
			<ellipse transform="matrix(0.1233 -0.9924 0.9924 0.1233 -32.5206 419.2553)" class="st1" cx="221" cy="228" rx="81" ry="81"/>
			
				<ellipse transform="matrix(0.1233 -0.9924 0.9924 0.1233 -34.0191 418.9121)" class="st1" cx="220.1" cy="228.7" rx="79.7" ry="79.7"/>
			
				<ellipse transform="matrix(0.1233 -0.9924 0.9924 0.1233 -32.5206 419.2553)" class="st2" cx="221" cy="228" rx="62.9" ry="62.9"/>
			
				<ellipse transform="matrix(0.1233 -0.9924 0.9924 0.1233 -30.6358 418.5945)" class="st3" cx="221.6" cy="226.6" rx="61" ry="61"/>
			<line class="st4" x1="221.6" y1="165.6" x2="221.6" y2="173.5"/>
			<line class="st4" x1="178.1" y1="184.1" x2="183.7" y2="189.7"/>
			<line class="st4" x1="160.5" y1="227.9" x2="168.4" y2="227.9"/>
			<line class="st4" x1="179" y1="271.4" x2="184.6" y2="265.8"/>
			<line class="st4" x1="222.9" y1="289" x2="222.9" y2="281.1"/>
			<line class="st4" x1="266.3" y1="270.5" x2="260.7" y2="264.9"/>
			<line class="st4" x1="275.1" y1="226.7" x2="283" y2="226.7"/>
			<line class="st4" x1="265" y1="183.6" x2="259.4" y2="189.2"/>
			<line class="st4" x1="197.9" y1="170.1" x2="199.8" y2="174.6"/>
			<line class="st4" x1="164.3" y1="203.4" x2="168.8" y2="205.2"/>
			<line class="st4" x1="164.1" y1="250.7" x2="168.6" y2="248.8"/>
			<line class="st4" x1="197.4" y1="284.3" x2="199.2" y2="279.8"/>
			<line class="st4" x1="244.6" y1="284.5" x2="242.8" y2="280"/>
			<line class="st4" x1="278.2" y1="251.2" x2="273.8" y2="249.4"/>
			<line class="st4" x1="278.5" y1="203.9" x2="274" y2="205.8"/>
			<line class="st4" x1="245.2" y1="170.4" x2="243.3" y2="174.8"/>
			<path class="st5" d="M336.9,257.5l-9.2,22h-3.4v0.1l-26.2-0.2c-4.6,6.7-10.2,12.7-16.4,17.9l1,31.7l-22,9l-2.6-0.7l-19.8-20
				c-7.6,1.2-15.4,1.5-23.1,0.8l0.1,0.1l-21.7,23.1l-22-9.2l0,0l-1.4-0.6l0.2-29.2c-6.7-4.6-12.7-10.1-17.9-16.4h0.1l1.2,0.1
				c2.9,0.3,6.1,0.7,9.3,1l3.1,0.3h0.3c10.6,1,22.5,1.5,34.5,0.1c2.8-0.3,5.6-0.8,8.3-1.3c4.7-0.9,9.2-2.2,13.7-3.9
				c16.2-6,31.2-17.6,42.2-38.6s7.5-42-0.7-59.5c-0.4-0.8-0.8-1.6-1.2-2.5c-0.2-0.5-0.5-0.9-0.7-1.4c-5.5-10.3-12.4-19.9-20.4-28.4
				l-0.6-0.6c-0.8-0.8-1.5-1.6-2.2-2.3c-3.8-4-7-6.9-8.8-8.4c-1-0.9-1.6-1.3-1.6-1.3l1.9-2l19.7-20.8l0.2,0.1l2.3-2.4l22,9.2
				l-0.2,29.6c6.8,4.7,12.9,10.3,18.2,16.6l31.6-1.1l9,22l-21,20.8c1.5,8.2,1.8,16.5,1,24.7l0.1-0.1l0,0L336.9,257.5z"/>
			<g>
				<path class="st1" d="M151.5,217.1h-0.3c-1.3-0.2-2.3-1.4-2.1-2.7c0,0,0,0,0,0c2-17.6,10.8-33.7,24.5-44.9c1-0.9,2.6-0.7,3.4,0.3
					c0.9,1,0.7,2.6-0.3,3.4c-12.8,10.4-21,25.4-22.8,41.7C153.7,216.2,152.7,217.1,151.5,217.1z"/>
			</g>
			<g>
				<path class="st1" d="M184.2,167.4c-1.3,0-2.4-1.1-2.4-2.4c0-0.9,0.4-1.7,1.2-2.1c2.7-1.7,5.6-3.1,8.5-4.2
					c1.3-0.4,2.6,0.3,3.1,1.5c0.4,1.3-0.3,2.6-1.5,3.1l0,0c-2.6,1.1-5.2,2.3-7.6,3.8C185.1,167.3,184.7,167.4,184.2,167.4z"/>
			</g>
			<circle class="st6" cx="221.6" cy="226.6" r="4.6"/>
			<path class="st7" d="M221.9,222.5l2.7-29.6v-0.1l-2.9-6.8c-0.3-0.7-1.1-1.1-1.8-0.7c-0.4,0.2-0.6,0.4-0.8,0.8l-2.6,7l3.8,29.6
				c-3.1,0.3-5.4,2.8-5.4,5.9c-0.2,1.9,0.8,3.7,2.5,4.6l-22.3,21.2l-0.1,0.1l-1.8,9.1c-0.2,0.9,0.4,1.7,1.3,1.9c0.3,0.1,0.7,0,1-0.1
				l8.5-3.8l16.1-27.2c3.1,0.5,6.1-1.6,6.6-4.7c0.1-0.4,0.1-0.8,0.1-1.1C226.7,225.5,224.9,222.9,221.9,222.5z"/>
			<path class="st1" d="M220.4,186l-2.1,5.7c-0.1,0.2-0.1,0.4-0.1,0.6l3.8,30.1l3.3-30.3c0-0.2,0-0.5-0.1-0.7l-2.4-5.5
				c-0.3-0.7-1.1-0.9-1.8-0.6C220.8,185.5,220.5,185.7,220.4,186z"/>
			<path class="st1" d="M193.9,263.1l7.2-3.2c0.3-0.1,0.5-0.4,0.7-0.6l17.4-29.5l-25.5,23.1c-0.3,0.2-0.4,0.5-0.5,0.9l-1.5,7.7
				c-0.2,0.8,0.4,1.7,1.2,1.8C193.3,263.3,193.6,263.3,193.9,263.1z"/>
			<circle class="st2" cx="221.8" cy="227.3" r="5.9"/>
			<circle class="st1" cx="221.8" cy="227.3" r="5.2"/>
			<path class="st8" d="M46.4,239.9c0.4-1.8-0.8-3.6-2.7-4l-4.1-0.9c0.6-2.6,2.2-10.1,2.7-13.7c0.6-4.4-8.5-10.9-9.6-11.6
				s-1.2-5.5,1.5-6.4c10.7-0.1,13.1-5.9,13.8-9.2l0.2-1.2l2-10.1l3.9,0.8c1.9,0.4,3.7-0.8,4-2.7s-0.8-3.7-2.7-4l-39.6-7.9
				c-1.9-0.4-3.7,0.8-4,2.7s0.8,3.7,2.7,4l0,0l4.8,1l-1.9,9.8l-0.3,1.5c-0.7,3.4-0.7,9.6,9.2,13.8c2.1,1.9,0.2,6.3-1,6.5
				S13,211,11.9,215.2c-0.9,3.5-2.3,11.1-2.7,13.7l-5-1c-1.9-0.4-3.7,0.8-4,2.7s0.8,3.7,2.7,4l0,0l39.6,7.9
				C44.2,242.9,46,241.7,46.4,239.9z"/>
			<path class="st9" d="M54.6,181.1l-2.1,10.5l-0.2,1.2c-0.7,3.4-3,9.1-13.8,9.2c-2.7,1-2.6,5.7-1.5,6.4s10.3,7.3,9.6,11.6
				s-2.9,14.6-2.9,14.6l-30.4-6c0,0,1.8-10.4,2.9-14.6s12.1-6.8,13.4-7.1s3.1-4.6,1-6.5c-9.9-4.2-9.9-10.4-9.2-13.8l0.3-1.6l2-10.2
				l15.4,2.8h0.2L54.6,181.1z"/>
			<path class="st1" d="M36.9,208.4c1.1,0.7,10.3,7.3,9.6,11.6s-2.9,14.6-2.9,14.6l-30.4-6c0,0,1.8-10.4,2.9-14.6s12.1-6.8,13.4-7.1
				s3.1-4.6,1-6.5c-9.9-4.2-9.9-10.4-9.2-13.8l0.3-1.6c1.2,0.6,9.1,4.7,15.9,5.1c7.4,0.5,10.5-0.9,14.7,1.3l0.2,0.1l-0.2,1.2
				c-0.7,3.4-3,9.1-13.8,9.2C35.8,203,35.8,207.7,36.9,208.4z"/>
			<path class="st1" d="M36.9,208.4c1.1,0.7,10.3,7.3,9.6,11.6s-2.9,14.6-2.9,14.6l-30.4-6c0,0,1.8-10.4,2.9-14.6s12.1-6.8,13.4-7.1
				s3.1-4.6,1-6.5c-9.9-4.2-9.9-10.4-9.2-13.8l0.3-1.6c1.2,0.6,9.1,4.7,15.9,5.1c7.4,0.5,10.5-0.9,14.7,1.3l0.2,0.1l-0.2,1.2
				c-0.7,3.4-3,9.1-13.8,9.2C35.8,203,35.8,207.7,36.9,208.4z"/>
			
				<ellipse transform="matrix(0.1946 -0.9809 0.9809 0.1946 -190.2361 203.9894)" class="st1" cx="29.1" cy="217.8" rx="7" ry="10.1"/>
			<path class="st10" d="M50,240.1c-0.8,1-2.1,1.5-3.3,1.2l-39.6-7.9c-1.8-0.4-3-2.1-2.7-3.9c0-0.1,0-0.1,0-0.1
				c0.1-0.5,0.4-1,0.7-1.5c0.8-1,2.1-1.5,3.3-1.2l31.8,6.3l7.8,1.5c1.8,0.4,3,2.2,2.7,4C50.6,239.2,50.3,239.7,50,240.1z"/>
			<path class="st10" d="M61.7,181c-0.8,1-2.1,1.5-3.3,1.2l-39.6-7.9c-1.8-0.3-2.9-2-2.7-3.8c0-0.1,0-0.2,0-0.3
				c0.1-0.5,0.3-1,0.7-1.5c0.8-1,2.1-1.5,3.3-1.2l28.6,5.7l11,2.2c1.8,0.4,3.1,2.2,2.7,4C62.3,180.1,62.1,180.6,61.7,181L61.7,181z"
				/>
			<path class="st0" d="M61.7,181c-0.8,1-2.1,1.5-3.3,1.2l-39.6-7.9c-1.8-0.3-2.9-2-2.7-3.8c25.5,8.2,31.6,5.6,32.7,2.7l11,2.2
				c1.8,0.4,3.1,2.2,2.7,4C62.3,180.1,62.1,180.6,61.7,181L61.7,181z"/>
			<path class="st0" d="M50,240.1c-0.8,1-2.1,1.5-3.3,1.2l-39.6-7.9c-1.8-0.4-3-2.1-2.7-3.9c32,7.8,36,5.4,35.9,3.5l7.8,1.6
				c1.8,0.4,3,2.2,2.7,4C50.6,239.2,50.3,239.7,50,240.1z"/>
			<g>
				<path class="st10" d="M27.8,197.2c-0.6-0.4-0.7-1.1-0.3-1.7c0.4-0.6,1.1-0.7,1.7-0.3l0,0c1,0.6,2,1.1,3.1,1.6
					c0.6,0.3,0.9,1,0.6,1.6c-0.3,0.6-1,0.9-1.6,0.6c-1.2-0.5-2.3-1.1-3.4-1.8L27.8,197.2z"/>
			</g>
			<g>
				<path class="st10" d="M24.1,193.9c-0.1-0.1-0.2-0.2-0.2-0.3c-1.2-1.7-1.7-3.9-1.4-5.9c0.3-2.9,2-10.2,2.1-10.5
					c0.1-0.7,0.8-1.1,1.4-0.9s1.1,0.8,0.9,1.4l0,0c0,0.1-1.7,7.5-2,10.2c-0.2,1.5,0.1,3,1,4.3c0.4,0.5,0.3,1.3-0.3,1.7
					C25.2,194.3,24.6,194.3,24.1,193.9L24.1,193.9z"/>
			</g>
			<path class="st8" d="M400,80.9c0-0.1,0-0.2,0-0.2c0-0.2,0-0.3-0.1-0.5c0-0.1,0-0.2,0-0.2c-0.1-0.2-0.1-0.4-0.2-0.6l-0.1-0.2
				c-1-2.2-3.5-3.1-5.7-2.1c-1.4,0.6-2.3,2-2.5,3.5l0,0c0,0.1,0,0.2,0,0.3s0,0.3,0,0.4s0,0.2,0,0.3s0,0.2,0,0.3l-2.9,1.7
				c-2.1-2.6-4.7-4.8-7.6-6.5l-0.4-0.2l2.2-5.8l0,0c2.5,1,5.4-0.2,6.5-2.8v-0.1c1-2.6-0.2-5.5-2.8-6.5c0,0,0,0,0,0l-2.2-0.8
				l-5.6-2.2c-2.5-1-5.4,0.2-6.5,2.8v0.1c-0.3,0.7-0.4,1.4-0.3,2.1c0.1,2,1.4,3.7,3.2,4.4l0.5,0.2l-2.2,5.7
				c-15.7-4.1-31.8,5.4-35.9,21.1s5.4,31.8,21.1,35.9c15.7,4.1,31.8-5.4,35.9-21.1c2.1-8.1,0.7-16.7-3.9-23.7l2.8-1.6l0.2,0.1
				c0.2,0.1,0.4,0.2,0.6,0.3l0.1,0.1c2.2,0.8,4.7-0.2,5.6-2.4c0.1-0.2,0.2-0.5,0.2-0.7c0-0.1,0-0.1,0-0.2
				C400,81.4,400,81.1,400,80.9z"/>
			
				<rect x="375.8" y="66.8" transform="matrix(0.3641 -0.9314 0.9314 0.3641 176.5795 400.0059)" class="st11" width="10.9" height="7.8"/>
			
				<rect x="391.5" y="80.2" transform="matrix(0.8629 -0.5054 0.5054 0.8629 12.7596 210.6568)" class="st11" width="6.1" height="3.2"/>
			<path class="st10" d="M396.5,111.2c-5.9,15.1-23,22.6-38.1,16.7c-15.1-5.9-22.6-23-16.7-38.1c5.9-15.1,23-22.6,38.1-16.7
				c1.5,0.6,2.9,1.3,4.3,2.1C396.6,82.5,401.8,97.7,396.5,111.2z"/>
			
				<ellipse transform="matrix(0.3641 -0.9314 0.9314 0.3641 141.1964 407.6494)" class="st10" cx="369.1" cy="100.4" rx="23.1" ry="23.1"/>
			
				<ellipse transform="matrix(0.3641 -0.9314 0.9314 0.3641 141.1964 407.6494)" class="st12" cx="369.1" cy="100.4" rx="23.1" ry="23.1"/>
			
				<ellipse transform="matrix(0.3641 -0.9314 0.9314 0.3641 141.1964 407.6494)" class="st11" cx="369.1" cy="100.4" rx="22" ry="22"/>
			<path class="st10" d="M392.5,66.3L392.5,66.3c-1,2.7-4,3.9-6.5,2.9l-7.8-3c-1.9-0.7-3.1-2.5-3.2-4.5c0-0.7,0.1-1.4,0.3-2.1v-0.1
				c1-2.5,3.9-3.8,6.5-2.8l5.6,2.2l2.2,0.8C392.2,60.8,393.5,63.6,392.5,66.3C392.5,66.2,392.5,66.3,392.5,66.3z"/>
			
				<ellipse transform="matrix(0.3641 -0.9314 0.9314 0.3641 180.0451 421.7847)" class="st10" cx="398.9" cy="79" rx="4.3" ry="4.3"/>
			<path class="st0" d="M402.9,80.6c-0.9,2.2-3.4,3.3-5.6,2.4c-1.8-0.7-2.9-2.5-2.7-4.4c1.4,2,4.1,2.4,6,1.1c0.7-0.5,1.2-1.2,1.6-2
				c0.1-0.4,0.2-0.7,0.3-1.1C403.3,77.8,403.4,79.3,402.9,80.6z"/>
			
				<ellipse transform="matrix(0.3641 -0.9314 0.9314 0.3641 141.8866 408.0797)" class="st10" cx="369.8" cy="100.1" rx="3.6" ry="3.6"/>
			<polyline class="st13" points="376.7,83.2 370,100.2 378.6,117.7 			"/>
			<path class="st0" d="M392.5,66.3L392.5,66.3c-1,2.7-4,3.9-6.5,2.9l-7.8-3c-1.9-0.7-3.1-2.5-3.2-4.5c11,5,12.3-0.9,12.4-2.7
				l2.2,0.8C392.2,60.8,393.5,63.6,392.5,66.3C392.5,66.3,392.5,66.3,392.5,66.3z"/>
			<path class="st5" d="M396.5,111.2c-5.9,15.1-23,22.6-38.2,16.7c-9.1-3.6-15.9-11.5-18-21c10.8,15.2,29.6,17.5,41.4,4.4
				c13.3-14.8,2.2-36,2.2-36c0.1,0,0.1-0.1,0.2-0.1C396.6,82.5,401.8,97.7,396.5,111.2z"/>
			<path class="st14" d="M358.2,76c-5.1,2.2-11.2,7.2-14.6,18.3"/>
			<path class="st14" d="M366.7,74.2c-1.2,0-2.4,0.1-3.6,0.3"/>
			<path class="st8" d="M410.4,373v-48.4H378h-50.3v43.1v5.2h-7.8c0,4.3,5,7.9,11.2,7.9h36.3H407c2.3,0,4.5-0.5,6.5-1.5
				c0.5-0.2,1-0.5,1.4-0.8c0.4-0.3,0.7-0.6,1.1-0.9c0.7-0.7,1.3-1.5,1.7-2.3c0.3-0.7,0.5-1.5,0.5-2.3L410.4,373z"/>
			<polygon class="st10" points="331,375 331,365.4 331,322.2 381.3,322.2 413.7,322.2 413.8,375 			"/>
			<rect x="337.8" y="328.3" class="st3" width="69.1" height="44.1"/>
			<polyline class="st15" points="345.3,367 369.8,347.2 387.3,353.5 400.9,341.3 			"/>
			<polyline class="st16" points="389.8,336.5 373.2,358.1 357.1,346 345.8,367 			"/>
			<polyline class="st17" points="384.5,337.4 390.2,335.9 390.7,341.7 			"/>
			<polyline class="st15" points="345.3,334 345.3,367 402.3,366.9 			"/>
			<path class="st5" d="M413.8,375H331v-9.6c56.2,1.8,51.1-38.2,50.3-43.2h32.4L413.8,375z"/>
			<path class="st10" d="M421.6,370.5c-0.1,2.3-1.3,4.4-3.3,5.6c-2.4,1.6-5.1,2.4-8,2.3h-75.9c-6.2,0-11.2-3.5-11.2-7.9h37.3h23.8
				L421.6,370.5z"/>
			<path class="st5" d="M384.3,370.6h-61.1c0,4.4,5,7.9,11.2,7.9h75.9c2.8,0,5.6-0.8,8-2.3c1.9-1.2,3.2-3.3,3.3-5.6L384.3,370.6z
				 M413.8,375c-2.2,1.2-4.7,1.9-7.2,1.8h-68.5c-5.6,0-10.1-2.8-10.1-6.2h33.7h55.1C416.8,372.3,415.6,373.9,413.8,375z"/>
			<path class="st10" d="M384.3,370.6c0,1.4-1.2,2.5-2.6,2.5h-18.6c-1.4,0-2.6-1.1-2.6-2.5L384.3,370.6z"/>
			<line class="st18" x1="332.6" y1="338.1" x2="332.6" y2="340.8"/>
			<line class="st18" x1="332.6" y1="325.5" x2="332.6" y2="334.8"/>
			<path class="st8" d="M77.4,316.7L77.4,316.7l-0.5,0.2c-2-2.2-5.1-2.8-7.8-1.7l-5.7,2.5c-2-4.7-5.2-4.4-7-3.8
				c-0.5,0.2-0.9,0.4-1.3,0.6c-0.8,0.2-6.1,1.9-3.3,8.3l-5.7,2.5c-2.7,1.2-4.3,4-4,6.9l-0.9,0.4l-1.5,0.6c-2.1,0.9-3.1,3.4-2.2,5.5
				c0,0,0,0,0,0l22.9,52.2l0,0c0.9,2.1,3.4,3,5.5,2.1l0,0l37.7-16.5l0,0c2.1-0.9,3.1-3.4,2.2-5.5c0,0,0,0,0,0l0,0L83,318.8l0,0
				C82.1,316.7,79.6,315.7,77.4,316.7C77.5,316.6,77.5,316.6,77.4,316.7z"/>
			<path class="st3" d="M40.4,329.8l37.7-16.5c2.1-0.9,4.6,0,5.5,2.2l22.9,52.2c0.9,2.1,0,4.6-2.2,5.5l-37.7,16.5
				c-2.1,0.9-4.6,0-5.5-2.2l-22.9-52.2C37.3,333.2,38.3,330.7,40.4,329.8z"/>
			<path class="st5" d="M83.7,315.4l22.9,52.2c0.9,2.1,0,4.6-2.1,5.5c0,0,0,0,0,0l-37.7,16.5c-2.1,0.9-4.6,0-5.5-2.1c0,0,0,0,0,0
				l-2.4-5.5c39.6-15.4,18.9-44,6.6-57c-1.6-1.7-1.5-4.3,0.1-5.9c0.4-0.3,0.8-0.6,1.2-0.8l11.4-5C80.2,312.4,82.7,313.3,83.7,315.4
				C83.7,315.4,83.7,315.4,83.7,315.4z"/>
			<path class="st8" d="M79,318.3L60.9,326L43,334.1c-0.2-0.5-0.4-1.1-0.6-1.6c-0.3-1.1-0.5-2.2-0.5-3.3l34.2-15
				C77.4,315.3,78.4,316.7,79,318.3z"/>
			<path class="st1" d="M79.9,316.9l-18.1,7.7l-17.9,8.1c-0.2-0.5-0.4-1.1-0.6-1.6c-2.1-6.9,3.6-9.2,3.6-9.2l5.7-2.5
				c-2.8-6.4,2.5-8.1,3.3-8.3c0.4-0.3,0.9-0.5,1.3-0.6c1.8-0.6,5-0.9,7,3.8l5.7-2.5C69.9,311.8,76.3,308.7,79.9,316.9z"/>
			<polyline class="st19" points="56.6,356.4 62.4,359.8 64.7,347.6 			"/>
			
				<rect x="64" y="334.7" transform="matrix(0.9157 -0.4018 0.4018 0.9157 -128.4399 57.9687)" class="st1" width="19.9" height="1.1"/>
			
				<rect x="70.3" y="351.4" transform="matrix(0.9171 -0.3987 0.3987 0.9171 -133.6693 61.216)" class="st1" width="20" height="1.1"/>
			
				<rect x="49.7" y="337.5" transform="matrix(0.9157 -0.4019 0.4019 0.9157 -133.2191 51.1182)" class="st19" width="11.1" height="11.1"/>
			
				<rect x="56" y="352" transform="matrix(0.9157 -0.4018 0.4018 0.9157 -138.4609 54.8354)" class="st19" width="11.1" height="11.1"/>
			<polyline class="st19" points="62.9,370.8 68.7,374.2 71.1,362 			"/>
			
				<rect x="76.5" y="363.2" transform="matrix(0.9157 -0.4018 0.4018 0.9157 -138.8586 65.4119)" class="st1" width="19.9" height="1.1"/>
			
				<rect x="62.1" y="366.1" transform="matrix(0.9157 -0.4018 0.4018 0.9157 -143.6012 58.5059)" class="st19" width="11.1" height="11.1"/>
			<polyline class="st19" points="50.3,342.2 56.2,345.6 58.5,333.4 			"/>
			<path class="st1" d="M79.9,316.9l-18.1,7.7l-17.9,8.1c-0.2-0.5-0.4-1.1-0.6-1.6c21.8-7.7,16.4-17.5,13.9-20.6
				c1.8-0.6,5-0.9,7,3.8l5.7-2.5C69.9,311.8,76.3,308.7,79.9,316.9z"/>
			<path class="st10" d="M48.3,322.8c-2.1,1.2-4.3,3.4-3.9,6.3"/>
			<path class="st10" d="M51.6,321.2c-0.5,0.2-1,0.3-1.4,0.5"/>
			<g class="st20">
				<polygon points="216.1,63.2 203.5,63.1 203.6,56.7 203.9,36 216.5,36.2 216.5,36.7 216.2,57.1 				"/>
				<polygon points="231.2,63.7 218.6,63.5 218.7,56.8 219.1,34.9 219.2,26 231.8,26.2 231.7,33 231.4,52.9 				"/>
				<polygon points="246.6,64.2 234,64 234.1,51.4 234.4,34 234.4,31.6 245,31.8 247.1,31.8 246.9,39.9 				"/>
				<polygon points="262.2,64 249.6,63.8 250.1,35.5 250.2,26.4 250.4,14.5 258.7,14.6 263,14.7 				"/>
				
					<ellipse transform="matrix(1.500928e-02 -0.9999 0.9999 1.500928e-02 181.6235 235.4238)" cx="210.3" cy="25.5" rx="1.7" ry="1.7"/>
				
					<ellipse transform="matrix(1.518383e-02 -0.9999 0.9999 1.518383e-02 207.2975 240.2739)" cx="225.6" cy="14.9" rx="1.7" ry="1.7"/>
				
					<ellipse transform="matrix(1.500928e-02 -0.9999 0.9999 1.500928e-02 216.8145 261.205)" cx="241" cy="20.6" rx="1.7" ry="1.7"/>
				
					<ellipse transform="matrix(1.518383e-02 -0.9999 0.9999 1.518383e-02 249.9274 260.7165)" cx="257.3" cy="3.5" rx="1.7" ry="1.7"/>
				<polygon points="210.7,26 210,25 225.5,14.2 240.8,19.9 257.2,2.8 258.1,3.7 241.2,21.3 225.7,15.6 				"/>
				<g class="st21">
					<path d="M216.2,57.1l-0.1,6.2l-12.6-0.2l0.1-6.4C207.7,57.3,212,57.4,216.2,57.1z"/>
				</g>
				<g class="st21">
					<path d="M231.4,52.9l-0.2,10.8l-12.6-0.2l0.1-6.8C223.1,56.2,227.4,54.8,231.4,52.9z"/>
				</g>
				<g class="st21">
					<path d="M246.9,39.9l-0.4,24.3L234,64l0.2-12.6C239.1,48.4,243.5,44.5,246.9,39.9z"/>
				</g>
				<g class="st21">
					<path d="M262.2,64l-12.6-0.2l0.4-28.4c2.9-4.6,5.2-9.5,6.9-14.6c0.4-1.1,0.7-2.2,1-3.1c0.4-1.5,0.7-2.6,0.8-3.2l4.3,0.1
						L262.2,64z"/>
				</g>
			</g>
			<polygon class="st10" points="219.1,61.4 206.5,61.2 206.6,54.8 206.9,34.1 219.5,34.3 219.5,34.9 219.2,55.2 			"/>
			<polygon class="st10" points="234.3,61.9 221.7,61.7 221.8,54.9 222.1,33.1 222.2,24.2 234.9,24.4 234.7,31.2 234.4,51 			"/>
			<polygon class="st10" points="249.6,62.4 237,62.2 237.2,49.6 237.4,32.2 237.5,29.8 248,30 250.1,30 250,38.1 			"/>
			<polygon class="st12" points="265.3,62.2 252.6,62 253.1,33.7 253.2,24.5 253.4,12.7 261.7,12.8 266,12.9 			"/>
			
				<ellipse transform="matrix(1.500928e-02 -0.9999 0.9999 1.500928e-02 186.4303 236.6695)" class="st1" cx="213.3" cy="23.7" rx="1.7" ry="1.7"/>
			
				<ellipse transform="matrix(1.518383e-02 -0.9999 0.9999 1.518383e-02 212.0949 241.5101)" class="st1" cx="228.7" cy="13.1" rx="1.7" ry="1.7"/>
			
				<ellipse transform="matrix(1.500928e-02 -0.9999 0.9999 1.500928e-02 221.6115 262.4406)" class="st1" cx="244" cy="18.7" rx="1.7" ry="1.7"/>
			
				<ellipse transform="matrix(1.518383e-02 -0.9999 0.9999 1.518383e-02 254.7344 261.9628)" class="st1" cx="260.4" cy="1.7" rx="1.7" ry="1.7"/>
			<polyline class="st22" points="213.4,23.7 228.6,13.1 244,18.7 260.7,1.5 			"/>
			<path class="st5" d="M219.2,55.2l-0.1,6.2l-12.6-0.2l0.1-6.4C210.8,55.5,215,55.6,219.2,55.2z"/>
			<path class="st5" d="M234.4,51l-0.2,10.8l-12.6-0.2l0.1-6.8C226.2,54.3,230.4,53,234.4,51z"/>
			<path class="st5" d="M250,38.1l-0.4,24.3L237,62.2l0.2-12.6C242.2,46.6,246.5,42.7,250,38.1z"/>
			<path class="st10" d="M265.3,62.2L252.6,62l0.4-28.4c2.9-4.6,5.2-9.5,6.9-14.6c0.4-1.1,0.7-2.2,1-3.1c0.4-1.5,0.7-2.6,0.8-3.2
				l4.3,0.1L265.3,62.2z"/>
			<line class="st12" x1="208.4" y1="42.9" x2="208.4" y2="51.1"/>
			<line class="st12" x1="208.4" y1="36.3" x2="208.4" y2="39.6"/>
			<path class="st8" d="M134.2,89.1l-8.1-20.1l-4.7-11.6l-1.6-3.9c-1.5-3.8-5.7-5.6-9.5-4.2c-1.1-2.2-3.8-3-6-1.8
				c-1.8,1-2.7,3-2.2,5c0,0,0,0.1,0,0.1l-4.1,1.7c-1.2-2.2-3.8-3-6-1.8c-1.8,1-2.7,3-2.2,5c0,0,0,0.1,0.1,0.1l-1.7,0.7L85,59.5
				c-1-2.2-3.6-3.3-5.8-2.3c-2,0.9-3,3-2.5,5.1c0,0.2,0.2,0.3,0.3,0.4l-4.4,1.8c-1-2.2-3.6-3.2-5.9-2.2c-1.9,0.9-3,3-2.4,5.1
				c0,0.1,0.1,0.2,0.2,0.3l-3.1,1.2c-3.8,1.5-5.7,5.9-4.2,9.8c0,0,0,0,0,0l0.6,1.6l0.9,2.3l0,0l12.7,31.6c0.2,0.4,0.3,0.7,0.6,1.1
				l0.1,0.2c0.1,0.1,0.2,0.3,0.3,0.4l0.1,0.2c0.1,0.1,0.2,0.2,0.3,0.4l0.2,0.2l0.3,0.3l0.2,0.2l0.4,0.3l0.2,0.1l0.4,0.3l0.2,0.1
				l0.4,0.2l0.2,0.1l0.4,0.2l0.2,0.1l0.4,0.1l0.2,0.1l0.4,0.1h0.2l0.4,0.1H78h0.4h0.3h0.4h0.2l0.5-0.1h0.2c0.4-0.1,0.8-0.2,1.2-0.4
				l25.5-10.3l23.2-9.4C133.8,97.3,135.7,93,134.2,89.1L134.2,89.1z M103.2,51.7c-0.1-1.8,1.2-3.4,3.1-3.5c1.2-0.1,2.4,0.5,3.1,1.6
				l-6.1,2.5C103.2,52,103.2,51.9,103.2,51.7L103.2,51.7z M90.9,56.6c-0.1-1.8,1.2-3.4,3.1-3.6c1.3-0.1,2.5,0.6,3.1,1.7l-6.1,2.5
				l0,0C90.9,57,90.9,56.8,90.9,56.6z M77.6,61.6c-0.1-1.8,1.2-3.4,3-3.6c1.4-0.1,2.8,0.7,3.3,2l-6.3,2.5c0-0.1,0-0.2,0-0.3
				C77.7,62,77.6,61.8,77.6,61.6L77.6,61.6z M65.2,66.7c-0.1-1.8,1.3-3.4,3.1-3.5c1.3-0.1,2.6,0.7,3.2,1.9l-6.2,2.5
				c0-0.1,0-0.2,0-0.2C65.2,67.1,65.2,66.9,65.2,66.7z"/>
			<path class="st10" d="M123.8,53L61,78.2l-0.9-2.3l-0.6-1.6c-1.6-3.8,0.3-8.2,4.2-9.8c0,0,0,0,0,0l26.9-10.8l21.9-8.8
				c3.8-1.6,8.2,0.3,9.8,4.1c0,0,0,0,0,0L123.8,53z"/>
			<path class="st3" d="M132.3,94.4L83.6,114c-3.8,1.6-8.2-0.3-9.8-4.1c0,0,0,0,0,0L61,78.2L123.8,53l12.7,31.7
				C138,88.5,136.2,92.9,132.3,94.4z"/>
			<path class="st3" d="M136.5,84.6c1.6,3.8-0.3,8.2-4.2,9.8c0,0,0,0,0,0L83.6,114c-3.6,1.4-7.7-0.1-9.5-3.5
				c-0.1-0.2-0.2-0.4-0.3-0.7L61,78.2l35.8-14.4l27-10.8L136.5,84.6z"/>
			<g class="st20">
				<rect x="83.1" y="75" transform="matrix(0.9274 -0.3741 0.3741 0.9274 -28.1002 37.8447)" width="0.7" height="32.7"/>
				<rect x="94.1" y="70.5" transform="matrix(0.9274 -0.3741 0.3741 0.9274 -25.6388 41.6445)" width="0.7" height="32.7"/>
				<rect x="105.1" y="66.1" transform="matrix(0.9273 -0.3743 0.3743 0.9273 -23.1776 45.4631)" width="0.7" height="32.7"/>
				<rect x="116.1" y="61.6" transform="matrix(0.9273 -0.3743 0.3743 0.9273 -20.7119 49.2636)" width="0.7" height="32.7"/>
				<rect x="68.6" y="78.6" transform="matrix(0.9273 -0.3743 0.3743 0.9273 -22.3831 42.5244)" width="59.4" height="0.7"/>
				<rect x="73.1" y="89.6" transform="matrix(0.9272 -0.3744 0.3744 0.9272 -26.1934 45.0169)" width="59.4" height="0.7"/>
			</g>
			<polyline class="st18" points="82.6,79.3 85.6,81.2 89.5,69.1 			"/>
			<path class="st0" d="M123.8,53L61,78.2l-0.9-2.3C95,62.7,92,55.5,90.5,53.8l21.9-8.8c3.8-1.6,8.2,0.3,9.8,4.1c0,0,0,0,0,0
				L123.8,53z"/>
			<path class="st5" d="M136.5,84.6c1.6,3.8-0.3,8.2-4.2,9.8c0,0,0,0,0,0L83.6,114c-3.6,1.4-7.7-0.1-9.5-3.5
				c42.6-11.1,24.9-43,22.7-46.7l27-10.8L136.5,84.6z"/>
			<path class="st3" d="M71.1,66.4c-0.3,0-0.6-0.3-0.6-0.6c0-0.3,0.2-0.5,0.5-0.5c1.8-0.1,3.2-1.7,3.1-3.6c-0.1-1.8-1.7-3.2-3.6-3.1
				c-1.8,0.1-3.2,1.7-3.1,3.6c0,0.2,0,0.4,0.1,0.6c0,0.3-0.2,0.6-0.5,0.6c-0.3,0-0.5-0.1-0.6-0.4c-0.6-2.4,0.9-4.8,3.2-5.4
				c2.4-0.6,4.8,0.9,5.4,3.2c0.6,2.4-0.9,4.8-3.2,5.4C71.6,66.3,71.3,66.4,71.1,66.4L71.1,66.4z"/>
			<path class="st3" d="M83.6,61.3c-0.3,0-0.5-0.3-0.5-0.6c0-0.3,0.2-0.5,0.5-0.5c1.8-0.1,3.2-1.7,3.1-3.6c-0.1-1.8-1.7-3.2-3.6-3.1
				c-1.8,0.1-3.2,1.7-3.1,3.6c0,0.2,0,0.4,0.1,0.6c0,0.3-0.2,0.6-0.5,0.6c-0.3,0-0.5-0.1-0.6-0.4c-0.6-2.4,0.9-4.8,3.2-5.4
				c2.4-0.6,4.8,0.9,5.4,3.2c0.6,2.4-0.9,4.8-3.2,5.4C84,61.2,83.8,61.3,83.6,61.3L83.6,61.3z"/>
			<path class="st3" d="M96.8,56.3c-0.3,0-0.5-0.3-0.5-0.6c0-0.3,0.2-0.5,0.5-0.5c1.8-0.1,3.2-1.7,3.1-3.6c-0.1-1.8-1.7-3.2-3.6-3.1
				c-1.8,0.1-3.2,1.7-3.1,3.6c0,0.2,0,0.4,0.1,0.6c0.1,0.3,0,0.6-0.3,0.7c-0.3,0.1-0.6,0-0.7-0.3c0,0,0-0.1,0-0.1
				c-0.6-2.4,0.9-4.8,3.2-5.4c2.4-0.6,4.8,0.9,5.4,3.2c0.6,2.4-0.9,4.8-3.2,5.4C97.3,56.2,97,56.3,96.8,56.3L96.8,56.3z"/>
			<path class="st3" d="M109.1,51.4c-0.3,0-0.6-0.3-0.5-0.6c0-0.3,0.2-0.5,0.5-0.5c1.8-0.1,3.2-1.7,3.1-3.6
				c-0.1-1.8-1.7-3.2-3.6-3.1c-1.8,0.1-3.2,1.7-3.1,3.6c0,0.2,0,0.4,0.1,0.6c0,0.3-0.2,0.6-0.5,0.6c-0.3,0-0.5-0.1-0.6-0.4
				c-0.6-2.4,0.9-4.8,3.2-5.4c2.4-0.6,4.8,0.9,5.4,3.2c0.6,2.4-0.9,4.8-3.2,5.4C109.6,51.4,109.3,51.4,109.1,51.4L109.1,51.4z"/>
			<path class="st23" d="M62.2,69.3c-0.8,2.1-0.7,4.5,0.4,6.4"/>
			<path class="st23" d="M66,65.4c-0.5,0.2-1,0.5-1.4,0.9"/>
			<path class="st8" d="M441.1,214l-3.2,5.4l-1.1,11.4l-6.3-33.4l-0.1-0.1h0.1L421,191l-8.4,1.6l-27.9,5.2c-3.9,0.7-6.4,4.5-5.7,8.3
				l8.3,44.3l1,5.2c0.7,3.9,4.4,6.4,8.3,5.7l37.2-7c0.2,0,0.4-0.1,0.5-0.2l-0.3,2.6l5.5,0.5l3.7-37.3L441.1,214z"/>
			<path class="st3" d="M433.1,193.8l9.1,48.5c0.7,3.9-1.8,7.6-5.7,8.3l-37.2,7c-3.9,0.7-7.6-1.8-8.3-5.7l-1-5.2l-8.3-44.3
				c-0.7-3.9,1.8-7.6,5.7-8.3l27.9-5.2l8.4-1.6l9.3,6.4L433.1,193.8z"/>
			<path class="st24" d="M433.1,193.7L433.1,193.7l-4.6,0.9c-1.8,0.4-3.6-0.8-4-2.7c0,0,0,0,0-0.1l-0.9-4.5L433.1,193.7z"/>
			<line class="st24" x1="397.5" y1="211.8" x2="398.4" y2="216.3"/>
			<line class="st24" x1="410.4" y1="209.4" x2="411.2" y2="213.9"/>
			<line class="st1" x1="423.3" y1="207" x2="424.1" y2="211.4"/>
			<line class="st24" x1="412.4" y1="217.9" x2="413.2" y2="222.4"/>
			<line class="st24" x1="413.2" y1="222.4" x2="413.7" y2="225.3"/>
			<line class="st1" x1="414.4" y1="229" x2="415.3" y2="233.5"/>
			<line class="st1" x1="415.3" y1="233.5" x2="415.8" y2="236.4"/>
			
				<rect x="390.3" y="203" transform="matrix(0.9829 -0.1841 0.1841 0.9829 -30.989 78.8214)" class="st24" width="37.3" height="6.5"/>
			
				<rect x="392.3" y="214" transform="matrix(0.9829 -0.1841 0.1841 0.9829 -32.9638 79.3862)" class="st24" width="37.3" height="6.5"/>
			
				<rect x="394.5" y="226.6" transform="matrix(0.9829 -0.1841 0.1841 0.9829 -35.4767 77.6377)" class="st24" width="11.7" height="6.5"/>
			
				<rect x="407.1" y="224.3" transform="matrix(0.9829 -0.1841 0.1841 0.9829 -34.8269 79.9173)" class="st24" width="11.7" height="6.5"/>
			
				<rect x="419.7" y="221.9" transform="matrix(0.9829 -0.1841 0.1841 0.9829 -34.1752 82.1968)" class="st24" width="11.7" height="6.5"/>
			
				<rect x="396.5" y="237.6" transform="matrix(0.9829 -0.1841 0.1841 0.9829 -37.4637 78.2045)" class="st24" width="11.7" height="6.5"/>
			
				<rect x="409.1" y="235.2" transform="matrix(0.9829 -0.1841 0.1841 0.9829 -36.8157 80.4842)" class="st24" width="11.7" height="6.5"/>
			
				<rect x="421.7" y="232.9" transform="matrix(0.9829 -0.1841 0.1841 0.9829 -36.1658 82.7639)" class="st24" width="11.7" height="6.5"/>
			<path class="st5" d="M432.7,193.7l0.1,0.1l9.1,48.5c0.7,3.9-1.8,7.6-5.7,8.3l-37.2,7c-3.9,0.7-7.6-1.8-8.3-5.7l-1-5.2
				c3.5-0.2,6.9-0.9,10.1-2.2c3-1.2,5.7-2.9,7.9-5.2c0.3-0.3,0.7-0.7,1-1c0.7-0.8,1.4-1.6,2-2.4c0.5-0.7,1-1.5,1.5-2.3
				c0.6-1,1.1-2,1.5-3c0.2-0.4,0.4-0.9,0.5-1.3c0.7-1.9,1.3-3.8,1.7-5.7c0.2-0.7,0.3-1.5,0.4-2.2s0.2-1.4,0.3-2
				c0.3-2.2,0.5-4.5,0.6-6.7c0.1-1.6,0.1-3.2,0-4.7c-0.1-2.3-0.2-4.5-0.4-6.5c-0.4-4.2-1-8.4-1.9-12.5l8.4-1.6L432.7,193.7
				L432.7,193.7z"/>
			<polygon class="st1" points="446,216.3 442.3,253.6 436.8,253.1 440.5,215.8 443.8,216.1 			"/>
			<polygon class="st25" points="446,216.3 443.8,216.1 440.5,215.8 443.7,210.3 			"/>
			<line class="st26" x1="437.1" y1="250.4" x2="442.5" y2="251"/>
			<path class="st24" d="M446,216.3l-3.7,37.3l-5.5-0.6l1.5-14.6c4.5-0.7,5.4-14.3,5.5-22.4c0-3.4,0-5.8,0-5.8L446,216.3z"/>
			<polyline class="st23" points="441,225.6 440.9,226.8 440.3,232.4 			"/>
			<line class="st23" x1="441.6" y1="219.6" x2="441.4" y2="221.8"/>
			<path class="st8" d="M239.4,428.4c10.6-10.8,10.4-28.1-0.4-38.7c-10.8-10.6-28.1-10.4-38.7,0.4c-8,8.2-10.1,20.4-5.3,30.7
				l-1.9,1.9c-0.4-0.6-1.3-0.7-1.8-0.2c-0.5,0.4-0.6,1.1-0.3,1.6c0.1,0.2,0.2,0.3,0.3,0.5l-1,1c-0.4-0.6-1.3-0.7-1.8-0.2
				c-0.5,0.4-0.6,1.1-0.3,1.6c0.1,0.2,0.2,0.3,0.3,0.5l-1,1c-0.4-0.6-1.3-0.7-1.8-0.2c-0.5,0.4-0.6,1.1-0.3,1.6
				c0.1,0.2,0.2,0.3,0.3,0.5l-1.2,1.2c2.6,5.9,7.2,10.4,13.8,13.5l1.2-1.2l0.2,0.1c0.6,0.4,1.4,0.2,1.8-0.4c0.3-0.5,0.2-1.2-0.2-1.6
				l1-1l0.2,0.1c0.6,0.4,1.4,0.2,1.8-0.4c0.3-0.5,0.2-1.2-0.2-1.6l1-1l0.2,0.1c0.6,0.4,1.4,0.2,1.8-0.4c0.3-0.5,0.2-1.2-0.2-1.6
				l1.8-1.9C219.2,438.9,231.4,436.6,239.4,428.4z"/>
			<path class="st10" d="M202.2,444.5c-6.5-3.1-11.1-7.5-13.8-13.5l15.9-16.2l13.8,13.5L202.2,444.5z"/>
			
				<ellipse transform="matrix(0.6995 -0.7146 0.7146 0.6995 -224.8496 282.7077)" class="st10" cx="223.8" cy="408.7" rx="27.4" ry="27.4"/>
			<path class="st27" d="M200.9,431c-2.3-2.2-4.3-4.7-5.9-7.4c-0.3-0.7,0-1.4,0.6-1.7c0.6-0.3,1.3-0.1,1.6,0.4
				c2.9,4.9,7.3,9.2,13.5,13.2c0.6,0.3,0.9,1.1,0.5,1.8c-0.3,0.6-1.1,0.9-1.8,0.5c-0.1,0-0.1-0.1-0.2-0.1
				C206.3,435.7,203.4,433.5,200.9,431z"/>
			<path class="st27" d="M198,433.9c-2.3-2.2-4.3-4.7-5.9-7.4c-0.4-0.6-0.3-1.4,0.3-1.8c0.6-0.4,1.4-0.3,1.8,0.3
				c0,0.1,0.1,0.1,0.1,0.2c2.9,4.9,7.3,9.2,13.5,13.2c0.6,0.4,0.7,1.3,0.3,1.8c-0.4,0.5-1.1,0.7-1.7,0.4
				C203.4,438.6,200.6,436.4,198,433.9z"/>
			<path class="st27" d="M195.2,436.8c-2.3-2.2-4.3-4.7-5.9-7.4c-0.3-0.7,0-1.4,0.6-1.7c0.6-0.3,1.3-0.1,1.6,0.4
				c2.9,4.9,7.3,9.2,13.5,13.2c0.6,0.3,0.9,1.1,0.5,1.8c-0.3,0.6-1.1,0.9-1.8,0.5c-0.1,0-0.1-0.1-0.2-0.1
				C200.6,441.5,197.8,439.3,195.2,436.8z"/>
			<g>
				<path class="st1" d="M200.9,431c-2.3-2.2-4.3-4.7-5.9-7.4c-0.3-0.7,0-1.4,0.6-1.7c0.6-0.3,1.3-0.1,1.6,0.4
					c2.9,4.9,7.3,9.2,13.5,13.2c0.6,0.3,0.9,1.1,0.5,1.8c-0.3,0.6-1.1,0.9-1.8,0.5c-0.1,0-0.1-0.1-0.2-0.1
					C206.3,435.7,203.4,433.5,200.9,431z"/>
			</g>
			<g>
				<path class="st1" d="M198,433.9c-2.3-2.2-4.3-4.7-5.9-7.4c-0.4-0.6-0.3-1.4,0.3-1.8c0.6-0.4,1.4-0.3,1.8,0.3
					c0,0.1,0.1,0.1,0.1,0.2c2.9,4.9,7.3,9.2,13.5,13.2c0.6,0.4,0.7,1.3,0.3,1.8c-0.4,0.5-1.1,0.7-1.7,0.4
					C203.4,438.6,200.6,436.4,198,433.9z"/>
			</g>
			<g>
				<path class="st1" d="M195.2,436.8c-2.3-2.2-4.3-4.7-5.9-7.4c-0.3-0.7,0-1.4,0.6-1.7c0.6-0.3,1.3-0.1,1.6,0.4
					c2.9,4.9,7.3,9.2,13.5,13.2c0.6,0.3,0.9,1.1,0.5,1.8c-0.3,0.6-1.1,0.9-1.8,0.5c-0.1,0-0.1-0.1-0.2-0.1
					C200.6,441.5,197.8,439.3,195.2,436.8z"/>
			</g>
			<path class="st28" d="M230.6,411.2c-3.8-5.8-11-9.5-14.3-6.8c-2.6,2.1-1.7,3.2-1.2,4.6c1.1,3.3,8.5,10,10.8,7.6
				c2.5-2.5-4-7.8-7.5-9.6c-3.3-1.8-5.6-0.5-6.9,1.6s0.1,4.9,1.7,6.9c1.2,1.5,6.8,7.4,7.9,5.6c0.5-0.7-0.6-3.8-3.4-6.1
				c-5.7-4.8-7.5-3.9-8.4-3.4c-2,1.2-2.4,4,2.3,7.8c2,1.6-3,4.3-6.2,8"/>
			<path class="st29" d="M223.1,386.2c-6.4,0.2-12.5,2.9-17,7.5"/>
			<path class="st29" d="M233.2,388c-2-0.8-4-1.4-6.2-1.6"/>
		</g>
	</g>
</g>
</svg>
