<svg xmlns="http://www.w3.org/2000/svg" viewBox="0 0 445.99 445.01"><defs><style>.cls-1{isolation:isolate;}.cls-2{fill:#f29e52;}.cls-11,.cls-2,.cls-27{opacity:0.3;}.cls-12,.cls-19,.cls-2,.cls-36,.cls-37,.cls-8{mix-blend-mode:multiply;}.cls-3,.cls-37,.cls-4{fill:#ffbd1d;}.cls-13,.cls-15,.cls-17,.cls-21,.cls-25,.cls-28,.cls-30,.cls-32,.cls-39,.cls-4,.cls-9{mix-blend-mode:screen;}.cls-5{fill:#e49f05;}.cls-6{fill:#fffae4;}.cls-20,.cls-21,.cls-22,.cls-23,.cls-24,.cls-25,.cls-26,.cls-28,.cls-29,.cls-30,.cls-31,.cls-32,.cls-34,.cls-36,.cls-38,.cls-39,.cls-7{fill:none;}.cls-7{stroke:#e49f05;}.cls-20,.cls-23,.cls-29,.cls-34,.cls-36,.cls-38,.cls-7{stroke-miterlimit:10;}.cls-20,.cls-23,.cls-24,.cls-25,.cls-28,.cls-29,.cls-30,.cls-31,.cls-32,.cls-7{stroke-width:1.21px;}.cls-8{opacity:0.05;}.cls-10{fill:#8cc64b;}.cls-11{fill:#3d3d3d;}.cls-12{opacity:0.1;}.cls-13{fill:#a3f1ed;}.cls-14,.cls-15,.cls-27{fill:#8dc74b;}.cls-15,.cls-17,.cls-19,.cls-28,.cls-37{opacity:0.5;}.cls-16,.cls-19{fill:#ffca55;}.cls-18{fill:#ffeccc;}.cls-20,.cls-22,.cls-25,.cls-31,.cls-39{stroke:#ffca55;}.cls-21,.cls-26,.cls-29,.cls-32,.cls-36{stroke:#ffbd1d;}.cls-21,.cls-22,.cls-24,.cls-25,.cls-26,.cls-28,.cls-30,.cls-31,.cls-32,.cls-38,.cls-39{stroke-linecap:round;}.cls-21,.cls-22,.cls-24,.cls-25,.cls-26,.cls-28,.cls-30,.cls-31,.cls-32,.cls-39{stroke-linejoin:round;}.cls-21{stroke-width:2.42px;}.cls-22{stroke-width:0.57px;}.cls-23,.cls-24,.cls-28,.cls-30{stroke:#8dc74b;}.cls-33{fill:#cced9a;}.cls-34{stroke:#cced9a;stroke-width:0.66px;}.cls-35{fill:#ffd67b;}.cls-36{stroke-width:2.03px;}.cls-38{stroke:#fffdff;stroke-width:2.08px;}.cls-39{stroke-width:1.41px;}</style></defs><title>projets</title><g class="cls-1"><g id="Layer_2" data-name="Layer 2"><g id="OBJECTS"><path class="cls-2" d="M332,263.6l-9,21.56,0,.12-26.17-.15h-3A90.07,90.07,0,0,1,277.52,303l.94,31.3-21.75,8.93-19.8-20-.68-.68a90.28,90.28,0,0,1-24.39,1l.11.06-21.35,22.76-20.32-8.49-1.37-.57.16-29.17a89.49,89.49,0,0,1-17.89-16.37h0l-30.53,1-.69,0L111,271l20.69-20.47a90.06,90.06,0,0,1-1-24.56l0,.08-22.79-21.15L117,183.23h0l29.15.16a89.67,89.67,0,0,1,16.06-17.63v-.62l-.71-30.88,21.75-8.93.07.08L203.68,146a90.2,90.2,0,0,1,24-1l1.94-2,19.71-20.76.18.07,21.5,9-.16,29.17a90.05,90.05,0,0,1,17.94,16.43L320,175.76l8.92,21.75L308.2,218a89.8,89.8,0,0,1,1,24.39l.07-.11.08.07Z"/><path class="cls-3" d="M336.86,257.55l-9.2,22h-3.44l-26.13-.13a.66.66,0,0,1-.08.11,91,91,0,0,1-16.42,17.94l1,31.74-22,9-2.57-.69,1-.88-19.2-19.41-1.61.28a90.56,90.56,0,0,1-23.1.75l.11.07L193.5,341.42l-22-9.2v0l.16-29.54a90.45,90.45,0,0,1-18-16.44l-.15-.17-1,0h-.1l-30.52,1v0l-9-22,21-20.75a91.07,91.07,0,0,1-1-24.9l0,.1-23.1-21.44,8.55-20.49.63-1.5,29.57.16a89.81,89.81,0,0,1,15-16.74c.42-.4.85-.76,1.28-1.13L164,129.14l-.21.33-1.13-.86,1.27-2.18,22-9,20.75,21A89.17,89.17,0,0,1,228,137.1c.93,0,1.88.11,2.81.19H231l1.64-1.72,16.92-17.82,1.1-1.16,2.29-2.41,22,9.18-.16,29.57A90.77,90.77,0,0,1,293,169.61l31.61-1.11,9,22-21,20.75a90.32,90.32,0,0,1,1,24.73l.07-.11,0,0Z"/><path class="cls-4" d="M336.86,257.55l-9.2,22h-3.44l-26.13-.13a.66.66,0,0,1-.08.11,91,91,0,0,1-16.42,17.94l1,31.74-22,9-2.57-.69,1-.88-19.2-19.41-1.61.28a90.56,90.56,0,0,1-23.1.75l.11.07L193.5,341.42l-22-9.2v0l.16-29.54a90.45,90.45,0,0,1-18-16.44l-.15-.17-1,0h-.1l-30.52,1v0l-9-22,21-20.75a91.07,91.07,0,0,1-1-24.9l0,.1-23.1-21.44,8.55-20.49.63-1.5,29.57.16a89.81,89.81,0,0,1,15-16.74c.42-.4.85-.76,1.28-1.13L164,129.14l-.21.33-1.13-.86,1.27-2.18,22-9,20.75,21A89.17,89.17,0,0,1,228,137.1c.93,0,1.88.11,2.81.19H231l1.64-1.72,16.92-17.82,1.1-1.16,2.29-2.41,22,9.18-.16,29.57A90.77,90.77,0,0,1,293,169.61l31.61-1.11,9,22-21,20.75a90.32,90.32,0,0,1,1,24.73l.07-.11,0,0Z"/><path class="cls-4" d="M293,169.61l-3,1.59-5.6.58-15.11-15.69,2.92-30.49,2.77-2.22-.16,29.57A90.77,90.77,0,0,1,293,169.61Z"/><path class="cls-4" d="M312.68,211.29a90.32,90.32,0,0,1,1,24.73l-3.14.65-.16,0-2.33-.06-2.5-2.67-1.16-16.79,3.15-9.81,22.51-15.53,3.57-1.31Z"/><path class="cls-3" d="M333.25,257.95l-9,21.56,0,.12L298,279.49h-3a90.07,90.07,0,0,1-16.28,17.82l.94,31.3-21.75,8.93-19.8-20-.68-.68a90.28,90.28,0,0,1-24.39,1l.11.06-21.35,22.76-20.32-8.49-1.37-.57.16-29.17a89.49,89.49,0,0,1-17.89-16.37h0l-30.53,1-.69,0-8.93-21.75,20.69-20.47a90.05,90.05,0,0,1-1-24.56l0,.08L109.1,199.26l9.06-21.69h0l29.15.16a89.67,89.67,0,0,1,16.06-17.63v-.62l-.71-30.88,21.75-8.93.07.08,20.4,20.61a90.2,90.2,0,0,1,24-1l1.94-2,19.71-20.76.18.07,21.5,9L272,154.77A90.05,90.05,0,0,1,290,171.19l31.18-1.09,8.92,21.75-20.68,20.47a89.8,89.8,0,0,1,1,24.39l.07-.11.08.07Z"/><circle class="cls-5" cx="219.85" cy="229.53" r="81.01" transform="translate(-35.03 419.41) rotate(-82.92)"/><circle class="cls-4" cx="221.03" cy="228.04" r="81.01" transform="translate(-32.53 419.27) rotate(-82.92)"/><circle class="cls-3" cx="220.07" cy="228.72" r="79.69" transform="translate(-34.03 418.91) rotate(-82.92)"/><circle class="cls-5" cx="221.03" cy="228.04" r="62.94" transform="translate(-32.53 419.27) rotate(-82.92)"/><circle class="cls-6" cx="221.58" cy="226.65" r="60.98" transform="translate(-30.65 418.59) rotate(-82.92)"/><line class="cls-7" x1="221.58" y1="165.6" x2="221.58" y2="173.46"/><line class="cls-7" x1="178.14" y1="184.12" x2="183.7" y2="189.68"/><line class="cls-7" x1="160.52" y1="227.94" x2="168.38" y2="227.94"/><line class="cls-7" x1="179.04" y1="271.38" x2="184.59" y2="265.82"/><line class="cls-7" x1="222.85" y1="289" x2="222.85" y2="281.14"/><line class="cls-7" x1="266.29" y1="270.48" x2="260.74" y2="264.93"/><line class="cls-7" x1="275.15" y1="226.67" x2="283.01" y2="226.67"/><line class="cls-7" x1="264.99" y1="183.63" x2="259.44" y2="189.19"/><line class="cls-7" x1="197.91" y1="170.12" x2="199.77" y2="174.59"/><line class="cls-7" x1="164.32" y1="203.38" x2="168.79" y2="205.24"/><line class="cls-7" x1="164.08" y1="250.66" x2="168.56" y2="248.81"/><line class="cls-7" x1="197.35" y1="284.26" x2="199.21" y2="279.78"/><line class="cls-7" x1="244.63" y1="284.49" x2="242.78" y2="280.01"/><line class="cls-7" x1="278.23" y1="251.22" x2="273.75" y2="249.37"/><line class="cls-7" x1="278.46" y1="203.95" x2="273.98" y2="205.8"/><line class="cls-7" x1="245.19" y1="170.35" x2="243.34" y2="174.83"/><path class="cls-8" d="M336.86,257.55l-9.2,22h-3.44l0,.12L298,279.49a91,91,0,0,1-16.42,17.94l1,31.74-22,9-2.57-.69-19.8-20a90.56,90.56,0,0,1-23.1.75l.11.07L193.5,341.42l-22-9.2v0l-1.37-.57.16-29.17a89.49,89.49,0,0,1-17.89-16.37h.08l1.18.13c2.93.34,6.06.69,9.33,1l3.05.29.28,0c10.58,1,22.46,1.53,34.5.11,2.77-.33,5.56-.76,8.33-1.32a88.27,88.27,0,0,0,13.68-3.86C239,276.42,254,264.88,265,243.86s7.46-42-.73-59.47c-.39-.84-.79-1.65-1.2-2.46-.23-.47-.47-.93-.71-1.39A136.79,136.79,0,0,0,242,152.1l-.59-.65c-.76-.81-1.5-1.6-2.22-2.34-3.82-4-7-6.86-8.78-8.43-1-.88-1.59-1.34-1.59-1.34l1.94-2,19.71-20.76.18.07,2.29-2.41,22,9.18-.16,29.57A90.77,90.77,0,0,1,293,169.61l31.61-1.11,9,22-21,20.75a90.32,90.32,0,0,1,1,24.73l.07-.11,0,0Z"/><g class="cls-9"><path class="cls-3" d="M151.47,217.13l-.29,0a2.42,2.42,0,0,1-2.12-2.69,67.53,67.53,0,0,1,24.52-44.89,2.42,2.42,0,1,1,3.09,3.74A62.77,62.77,0,0,0,153.87,215,2.42,2.42,0,0,1,151.47,217.13Z"/></g><g class="cls-9"><path class="cls-3" d="M184.25,167.4A2.42,2.42,0,0,1,183,162.9a54.71,54.71,0,0,1,8.51-4.23,2.42,2.42,0,0,1,1.55,4.59,50.94,50.94,0,0,0-7.58,3.8A2.41,2.41,0,0,1,184.25,167.4Z"/></g><circle class="cls-10" cx="221.58" cy="226.65" r="4.62"/><path class="cls-11" d="M221.92,222.53l2.7-29.56v-.12l-2.92-6.77a1.41,1.41,0,0,0-2.62.06l-2.63,7,3.78,29.56a5.91,5.91,0,0,0-5.41,5.88,4.55,4.55,0,0,0,2.51,4.56l-22.27,21.24-.12.11-1.75,9.12a1.63,1.63,0,0,0,2.27,1.8l8.46-3.79L220,234.41a5.75,5.75,0,0,0,6.71-5.85C226.69,225.5,224.89,222.86,221.92,222.53ZM223.67,193m-29.79,72.06"/><path class="cls-3" d="M220.42,186l-2.14,5.67a1.32,1.32,0,0,0-.07.63L222,222.36l3.28-30.3a1.32,1.32,0,0,0-.1-.67l-2.36-5.47A1.32,1.32,0,0,0,220.42,186Z"/><path class="cls-3" d="M193.94,263.15l7.16-3.21a1.56,1.56,0,0,0,.71-.63l17.42-29.5-25.5,23.06a1.56,1.56,0,0,0-.49.86l-1.48,7.69A1.56,1.56,0,0,0,193.94,263.15Z"/><circle class="cls-5" cx="221.76" cy="227.3" r="5.93"/><circle class="cls-3" cx="221.76" cy="227.3" r="5.17"/><path class="cls-12" d="M46.37,239.85a3.42,3.42,0,0,0-2.69-4L39.55,235c.56-2.56,2.2-10.14,2.71-13.74.62-4.36-8.54-10.91-9.64-11.62s-1.16-5.46,1.52-6.42c10.73-.11,13.11-5.86,13.78-9.22l.24-1.2,2-10.14,3.91.78a3.42,3.42,0,1,0,1.33-6.71l-39.6-7.86a3.42,3.42,0,1,0-1.33,6.71l4.79,1-1.94,9.78L17,187.89c-.67,3.35-.66,9.58,9.22,13.78,2.11,1.91.25,6.27-1,6.51s-12.25,2.8-13.35,7.06c-.9,3.51-2.28,11.15-2.74,13.73l-5-1a3.42,3.42,0,0,0-1.33,6.71l39.6,7.86A3.42,3.42,0,0,0,46.37,239.85Z"/><path class="cls-13" d="M54.56,181.08l-2.09,10.54-.24,1.2c-.67,3.35-3.05,9.1-13.78,9.22-2.68,1-2.63,5.7-1.52,6.42s10.26,7.26,9.64,11.62-2.9,14.61-2.9,14.61l-30.42-6s1.8-10.35,2.9-14.61,12.06-6.82,13.35-7.06,3.15-4.6,1-6.51c-9.87-4.2-9.88-10.42-9.21-13.78l.31-1.55,2-10.18L39,177.75l.24,0Z"/><path class="cls-3" d="M36.93,208.45c1.1.72,10.26,7.26,9.64,11.62s-2.9,14.61-2.9,14.61l-30.42-6s1.8-10.35,2.9-14.61,12.06-6.82,13.35-7.06,3.15-4.6,1-6.51c-9.87-4.2-9.88-10.42-9.21-13.78l.31-1.55c1.19.62,9.11,4.67,15.92,5.1,7.38.47,10.47-.91,14.69,1.26l.22.12-.24,1.2c-.67,3.35-3.05,9.1-13.78,9.22C35.77,203,35.83,207.74,36.93,208.45Z"/><path class="cls-14" d="M36.93,208.45c1.1.72,10.26,7.26,9.64,11.62s-2.9,14.61-2.9,14.61l-30.42-6s1.8-10.35,2.9-14.61,12.06-6.82,13.35-7.06,3.15-4.6,1-6.51c-9.87-4.2-9.88-10.42-9.21-13.78l.31-1.55c1.19.62,9.11,4.67,15.92,5.1,7.38.47,10.47-.91,14.69,1.26l.22.12-.24,1.2c-.67,3.35-3.05,9.1-13.78,9.22C35.77,203,35.83,207.74,36.93,208.45Z"/><ellipse class="cls-15" cx="29.09" cy="217.85" rx="6.96" ry="10.13" transform="translate(-190.25 203.98) rotate(-78.78)"/><path class="cls-16" d="M50,240.11a3.42,3.42,0,0,1-3.34,1.22l-39.6-7.86a3.42,3.42,0,0,1-2.71-3.87c0-.05,0-.1,0-.15A3.36,3.36,0,0,1,5.06,228a3.42,3.42,0,0,1,3.34-1.22l31.83,6.31L48,234.63a3.42,3.42,0,0,1,2.69,4A3.36,3.36,0,0,1,50,240.11Z"/><path class="cls-16" d="M61.73,181a3.41,3.41,0,0,1-3.34,1.23l-39.6-7.86a3.39,3.39,0,0,1-2.72-3.75.92.92,0,0,1,0-.27,3.28,3.28,0,0,1,.67-1.46,3.42,3.42,0,0,1,3.34-1.22l28.63,5.68,11,2.17a3.41,3.41,0,0,1,2,5.48Z"/><path class="cls-2" d="M61.73,181a3.41,3.41,0,0,1-3.34,1.23l-39.6-7.86a3.39,3.39,0,0,1-2.72-3.75c25.54,8.21,31.58,5.55,32.67,2.72l11,2.17a3.41,3.41,0,0,1,2,5.48Z"/><path class="cls-2" d="M50,240.11a3.42,3.42,0,0,1-3.34,1.22l-39.6-7.86a3.42,3.42,0,0,1-2.71-3.87c32,7.79,36,5.35,35.88,3.47L48,234.63a3.42,3.42,0,0,1,2.69,4A3.36,3.36,0,0,1,50,240.11Z"/><g class="cls-17"><path class="cls-14" d="M27.78,197.22a1.21,1.21,0,0,1,1.4-2,25.4,25.4,0,0,0,3.06,1.61,1.21,1.21,0,1,1-1,2.21,28,28,0,0,1-3.35-1.77Z"/></g><g class="cls-17"><path class="cls-14" d="M24.12,193.95a1.2,1.2,0,0,1-.24-.26,8.27,8.27,0,0,1-1.39-5.95c.33-2.87,2-10.19,2.09-10.5a1.21,1.21,0,0,1,2.36.54c0,.07-1.72,7.49-2,10.23a5.82,5.82,0,0,0,1,4.29,1.21,1.21,0,0,1-1.75,1.64Z"/></g><path class="cls-12" d="M400,80.93c0-.07,0-.15,0-.22a4.32,4.32,0,0,0-.06-.51c0-.08,0-.16,0-.24a4.33,4.33,0,0,0-.2-.61l-.11-.24a4.29,4.29,0,0,0-8.17,1.43h0c0,.09,0,.17,0,.26s0,.28,0,.42,0,.21,0,.32,0,.21,0,.31l-2.93,1.72a29.17,29.17,0,0,0-7.57-6.47l-.42-.23,2.25-5.76h0a5,5,0,0,0,6.46-2.76l0-.1a5,5,0,0,0-2.85-6.5l-2.19-.85-5.61-2.2a5,5,0,0,0-6.46,2.77l0,.08a4.79,4.79,0,0,0-.33,2.07A5,5,0,0,0,375,68l.52.2-2.21,5.65a29.45,29.45,0,1,0,17.15,12.25l2.77-1.62.2.13a4.34,4.34,0,0,0,.58.3l.12.06a4.37,4.37,0,0,0,5.6-2.45,4.38,4.38,0,0,0,.21-.74c0-.07,0-.13,0-.2A4.33,4.33,0,0,0,400,80.93Z"/><rect class="cls-18" x="377.29" y="65.28" width="7.81" height="10.88" transform="translate(51.92 -133.95) rotate(21.35)"/><rect class="cls-18" x="393.01" y="78.73" width="3.21" height="6.14" transform="translate(265.72 -300.03) rotate(59.64)"/><path class="cls-16" d="M396.54,111.16A29.43,29.43,0,1,1,379.84,73a28.66,28.66,0,0,1,4.33,2.12A29.45,29.45,0,0,1,396.54,111.16Z"/><circle class="cls-16" cx="369.13" cy="100.44" r="23.11" transform="translate(141.18 407.66) rotate(-68.65)"/><circle class="cls-19" cx="369.13" cy="100.44" r="23.11" transform="translate(141.18 407.66) rotate(-68.65)"/><circle class="cls-18" cx="369.13" cy="100.44" r="22" transform="translate(141.18 407.66) rotate(-68.65)"/><path class="cls-16" d="M392.51,66.3l0,.1A5,5,0,0,1,386,69.16l-7.8-3A5,5,0,0,1,375,61.66a4.79,4.79,0,0,1,.33-2.07l0-.08a5,5,0,0,1,6.47-2.77l5.61,2.2,2.19.85A5,5,0,0,1,392.51,66.3Z"/><circle class="cls-16" cx="398.9" cy="79.06" r="4.32" transform="translate(180.03 421.79) rotate(-68.65)"/><path class="cls-2" d="M402.93,80.64a4.32,4.32,0,0,1-8.32-2,4.32,4.32,0,0,0,7.57-.9,4.39,4.39,0,0,0,.27-1.12A4.34,4.34,0,0,1,402.93,80.64Z"/><circle class="cls-16" cx="369.79" cy="100.15" r="3.63" transform="translate(141.87 408.09) rotate(-68.65)"/><polyline class="cls-20" points="376.72 83.19 370.05 100.25 378.61 117.68"/><path class="cls-2" d="M392.51,66.3l0,.1A5,5,0,0,1,386,69.16l-7.8-3A5,5,0,0,1,375,61.66c11,5,12.3-.86,12.43-2.72l2.19.85A5,5,0,0,1,392.51,66.3Z"/><path class="cls-8" d="M396.54,111.16a29.44,29.44,0,0,1-56.15-4.38c10.8,15.18,29.56,17.52,41.35,4.41,13.33-14.81,2.22-36,2.22-36a1,1,0,0,1,.21-.1A29.45,29.45,0,0,1,396.54,111.16Z"/><path class="cls-21" d="M358.21,76c-5.11,2.24-11.25,7.23-14.56,18.35"/><path class="cls-21" d="M366.71,74.19a16.13,16.13,0,0,0-3.56.28"/><path class="cls-12" d="M410.42,373l0-48.35H377.95l-50.31,0,0,43.15V373h-7.83c0,4.34,5,7.87,11.25,7.86l36.32,0H407a14.59,14.59,0,0,0,6.54-1.49,11.32,11.32,0,0,0,1.4-.83,9.52,9.52,0,0,0,1.07-.88,7.36,7.36,0,0,0,1.72-2.34,5.72,5.72,0,0,0,.51-2.34Z"/><polygon class="cls-16" points="330.99 375.02 330.99 365.39 330.96 322.24 381.28 322.21 413.72 322.19 413.75 374.98 330.99 375.02"/><rect class="cls-6" x="337.79" y="328.26" width="69.13" height="44.1"/><polyline class="cls-22" points="345.29 366.95 369.8 347.18 387.28 353.53 400.9 341.26"/><polyline class="cls-23" points="389.77 336.5 373.21 358.08 357.08 346.05 345.8 366.95"/><polyline class="cls-24" points="384.55 337.41 390.17 335.93 390.74 341.67"/><polyline class="cls-22" points="345.27 334.03 345.29 366.95 402.27 366.92"/><path class="cls-8" d="M413.75,375,331,375v-9.63c56.25,1.76,51.14-38.22,50.29-43.18h32.44Z"/><path class="cls-14" d="M421.59,370.54a6.93,6.93,0,0,1-3.29,5.56,14,14,0,0,1-7.95,2.31l-75.94,0c-6.21,0-11.24-3.52-11.25-7.86l37.31,0h23.78Z"/><path class="cls-8" d="M384.26,370.57l-61.1,0c0,4.35,5,7.87,11.25,7.86l75.94,0a13.94,13.94,0,0,0,7.95-2.32,6.91,6.91,0,0,0,3.29-5.56ZM413.81,375a14.06,14.06,0,0,1-7.17,1.81l-68.52,0c-5.61,0-10.14-2.76-10.14-6.16l33.67,0,55.13,0C416.78,372.33,415.65,373.88,413.81,375Z"/><path class="cls-16" d="M384.26,370.57a2.6,2.6,0,0,1-2.6,2.53l-18.57,0a2.6,2.6,0,0,1-2.61-2.51Z"/><line class="cls-25" x1="332.62" y1="338.12" x2="332.63" y2="340.79"/><line class="cls-25" x1="332.62" y1="325.55" x2="332.62" y2="334.79"/><path class="cls-12" d="M77.44,316.66h0l-.47.21a6.91,6.91,0,0,0-7.79-1.71l-5.72,2.51c-2-4.66-5.19-4.43-7-3.81a6.32,6.32,0,0,0-1.34.63c-.78.21-6.09,1.92-3.3,8.29l-5.72,2.51a6.89,6.89,0,0,0-4,6.89l-.87.38-1.46.64a4.19,4.19,0,0,0-2.16,5.53l22.89,52.16h0A4.18,4.18,0,0,0,66,393h0l37.68-16.54h0a4.18,4.18,0,0,0,2.15-5.51h0L83,318.82h0A4.18,4.18,0,0,0,77.44,316.66Z"/><rect class="cls-6" x="47.66" y="318.77" width="49.54" height="65.35" rx="4.19" ry="4.19" transform="translate(-135.13 58.73) rotate(-23.69)"/><path class="cls-8" d="M83.66,315.41l22.9,52.18a4.18,4.18,0,0,1-2.15,5.51l-37.7,16.55a4.18,4.18,0,0,1-5.51-2.15L58.81,382C98.37,366.63,77.73,338,65.37,325a4.18,4.18,0,0,1,1.35-6.71l11.42-5A4.18,4.18,0,0,1,83.66,315.41Z"/><path class="cls-12" d="M79,318.26,60.91,326,43,334.07a13.27,13.27,0,0,1-.61-1.65,9.68,9.68,0,0,1-.45-3.27l34.2-15A11.12,11.12,0,0,1,79,318.26Z"/><path class="cls-14" d="M79.87,316.92l-18.1,7.71-17.93,8.11a13.28,13.28,0,0,1-.61-1.65c-2.11-6.91,3.57-9.2,3.57-9.2l5.72-2.51c-2.79-6.37,2.52-8.08,3.3-8.29a6.31,6.31,0,0,1,1.34-.63c1.8-.62,4.95-.85,7,3.81l5.72-2.51S76.27,308.72,79.87,316.92Z"/><polyline class="cls-26" points="56.56 356.38 62.36 359.75 64.74 347.57"/><rect class="cls-3" x="64.03" y="334.64" width="19.95" height="1.07" transform="translate(-128.46 57.99) rotate(-23.69)"/><rect class="cls-3" x="70.66" y="349.75" width="19.95" height="1.07" transform="matrix(0.92, -0.4, 0.4, 0.92, -133.97, 61.94)"/><rect class="cls-26" x="49.64" y="337.5" width="11.07" height="11.07" transform="translate(-133.2 51.09) rotate(-23.7)"/><rect class="cls-26" x="55.99" y="351.96" width="11.07" height="11.07" transform="translate(-138.48 54.86) rotate(-23.69)"/><polyline class="cls-26" points="62.88 370.8 68.68 374.17 71.06 361.98"/><rect class="cls-3" x="76.56" y="363.19" width="19.95" height="1.07" transform="translate(-138.87 65.44) rotate(-23.69)"/><rect class="cls-26" x="62.17" y="366.05" width="11.07" height="11.07" transform="translate(-143.62 58.53) rotate(-23.69)"/><polyline class="cls-26" points="50.35 342.25 56.15 345.62 58.53 333.43"/><path class="cls-27" d="M79.87,316.92l-18.1,7.71-17.93,8.11a13.28,13.28,0,0,1-.61-1.65c21.83-7.68,16.43-17.48,13.93-20.63,1.8-.62,4.95-.85,7,3.81l5.72-2.51S76.27,308.72,79.87,316.92Z"/><path class="cls-28" d="M48.26,322.76C46.2,324,44,326.12,44.4,329.1"/><path class="cls-28" d="M51.62,321.19a14.27,14.27,0,0,0-1.42.55"/><g class="cls-12"><polygon points="216.08 63.24 203.46 63.06 203.55 56.66 203.86 35.96 216.48 36.16 216.47 36.72 216.17 57.07 216.08 63.24"/><polygon points="231.25 63.71 218.63 63.52 218.73 56.76 219.06 34.92 219.2 25.99 231.82 26.18 231.71 32.99 231.41 52.87 231.25 63.71"/><polygon points="246.58 64.2 233.96 64.01 234.15 51.39 234.41 33.98 234.45 31.62 244.97 31.77 247.07 31.81 246.95 39.9 246.58 64.2"/><polygon points="262.24 64.04 249.62 63.84 250.05 35.46 250.19 26.36 250.37 14.49 258.68 14.62 262.99 14.68 262.24 64.04"/><circle cx="210.32" cy="25.52" r="1.67" transform="translate(181.63 235.44) rotate(-89.14)"/><circle cx="225.61" cy="14.9" r="1.67" transform="translate(207.3 240.26) rotate(-89.13)"/><circle cx="241" cy="20.56" r="1.67" transform="translate(216.81 261.22) rotate(-89.14)"/><circle cx="257.31" cy="3.48" r="1.67" transform="translate(249.93 260.71) rotate(-89.13)"/><polygon points="210.67 26.02 209.98 25.02 225.53 14.22 240.84 19.85 257.22 2.85 258.09 3.69 241.16 21.26 225.7 15.58 210.67 26.02"/><g class="cls-8"><path d="M216.17,57.07l-.09,6.18-12.62-.19.1-6.4A56,56,0,0,0,216.17,57.07Z"/></g><g class="cls-8"><path d="M231.41,52.87l-.16,10.84-12.62-.19.1-6.76A41.49,41.49,0,0,0,231.41,52.87Z"/></g><g class="cls-8"><path d="M246.95,39.9l-.37,24.3L234,64l.19-12.62A45.58,45.58,0,0,0,246.95,39.9Z"/></g><g class="cls-8"><path d="M262.24,64l-12.62-.2.43-28.38a67.44,67.44,0,0,0,6.86-14.59c.39-1.14.7-2.17,1-3.06.42-1.47.68-2.58.81-3.19l4.31.06Z"/></g></g><polygon class="cls-14" points="219.11 61.43 206.48 61.24 206.58 54.84 206.89 34.14 219.51 34.34 219.5 34.9 219.2 55.25 219.11 61.43"/><polygon class="cls-14" points="234.28 61.89 221.66 61.7 221.76 54.94 222.09 33.1 222.23 24.18 234.85 24.36 234.74 31.17 234.44 51.05 234.28 61.89"/><polygon class="cls-14" points="249.61 62.38 236.99 62.2 237.18 49.57 237.44 32.16 237.48 29.8 248 29.95 250.1 29.99 249.98 38.08 249.61 62.38"/><polygon class="cls-14" points="265.27 62.23 252.65 62.03 253.08 33.65 253.22 24.55 253.4 12.68 261.71 12.8 266.02 12.86 265.27 62.23"/><circle class="cls-3" cx="213.35" cy="23.71" r="1.67" transform="translate(186.43 236.68) rotate(-89.14)"/><circle class="cls-3" cx="228.64" cy="13.08" r="1.67" transform="translate(212.1 241.5) rotate(-89.13)"/><circle class="cls-3" cx="244.03" cy="18.74" r="1.67" transform="translate(221.61 262.46) rotate(-89.14)"/><circle class="cls-3" cx="260.34" cy="1.67" r="1.67" transform="translate(254.73 261.95) rotate(-89.13)"/><polyline class="cls-29" points="213.35 23.7 228.64 13.08 244.03 18.74 260.69 1.46"/><path class="cls-8" d="M219.2,55.25l-.09,6.18-12.62-.19.1-6.4A56,56,0,0,0,219.2,55.25Z"/><path class="cls-8" d="M234.44,51l-.16,10.84-12.62-.19.1-6.76A41.49,41.49,0,0,0,234.44,51Z"/><path class="cls-8" d="M250,38.08l-.37,24.3L237,62.2l.19-12.62A45.58,45.58,0,0,0,250,38.08Z"/><path class="cls-8" d="M265.27,62.23,252.65,62l.43-28.38a67.44,67.44,0,0,0,6.86-14.59c.39-1.14.7-2.17,1-3.06.42-1.47.68-2.58.81-3.19l4.31.06Z"/><line class="cls-30" x1="208.42" y1="42.89" x2="208.42" y2="51.14"/><line class="cls-30" x1="208.42" y1="36.3" x2="208.42" y2="39.64"/><path class="cls-12" d="M134.19,89.11l-8.07-20.06-4.66-11.58L119.9,53.6a7.49,7.49,0,0,0-9.52-4.25,4.43,4.43,0,0,0-8.2,3.19.52.52,0,0,0,0,.08L98.1,54.28a4.44,4.44,0,0,0-8.23,3.14.54.54,0,0,0,.07.14l-1.7.68L85,59.55a4.43,4.43,0,0,0-8.35,2.87.54.54,0,0,0,.3.36l-4.43,1.78A4.43,4.43,0,0,0,64.2,67.5a.54.54,0,0,0,.23.32l-3.06,1.23a7.51,7.51,0,0,0-4.16,9.78l.63,1.57.93,2.29h0L71.5,114.34a7.53,7.53,0,0,0,.56,1.09l.12.21c.09.14.18.26.28.39l.14.19c.1.13.21.24.31.36l.15.17.34.33.17.15.37.29.18.14.39.26.2.12.4.22.21.1.42.18.23.08.43.14.24.06.43.1.25,0,.44.06.26,0,.44,0h.26l.45,0,.25,0,.46-.07.2,0a7.54,7.54,0,0,0,1.19-.36l25.51-10.27L130,98.89a7.54,7.54,0,0,0,4.17-9.78Zm-31-37.41a3.32,3.32,0,0,1,6.16-1.94l-6.08,2.45A3.33,3.33,0,0,1,103.18,51.7ZM90.86,56.58a3.32,3.32,0,0,1,6.2-1.88l-6.11,2.46h0A3.36,3.36,0,0,1,90.86,56.58Zm-13.22,5A3.32,3.32,0,0,1,84,60l-6.28,2.52a.54.54,0,0,0,0-.33A3.34,3.34,0,0,1,77.63,61.58ZM65.18,66.66A3.33,3.33,0,0,1,71.5,65l-6.22,2.5a.55.55,0,0,0,0-.24A3.34,3.34,0,0,1,65.18,66.66Z"/><path class="cls-16" d="M123.76,53,61.05,78.2l-.93-2.29-.63-1.57a7.51,7.51,0,0,1,4.16-9.78L90.53,53.75l21.89-8.81a7.49,7.49,0,0,1,9.78,4.16Z"/><path class="cls-6" d="M132.32,94.4,83.56,114a7.5,7.5,0,0,1-9.78-4.17L61.05,78.2,123.75,53l12.73,31.65A7.51,7.51,0,0,1,132.32,94.4Z"/><path class="cls-6" d="M136.48,84.62a7.51,7.51,0,0,1-4.16,9.78L83.56,114a7.51,7.51,0,0,1-9.46-3.49c-.11-.22-.22-.44-.31-.68L61.05,78.2,96.81,63.81,123.76,53Z"/><g class="cls-12"><rect x="83.1" y="74.97" width="0.67" height="32.66" transform="translate(-28.1 37.85) rotate(-21.97)"/><rect x="94.12" y="70.53" width="0.67" height="32.66" transform="translate(-25.64 41.65) rotate(-21.97)"/><rect x="105.13" y="66.08" width="0.67" height="32.66" transform="translate(-23.18 45.46) rotate(-21.98)"/><rect x="116.14" y="61.64" width="0.67" height="32.66" transform="translate(-20.71 49.25) rotate(-21.98)"/><rect x="97.96" y="49.21" width="0.67" height="59.38" transform="translate(134.67 -41.79) rotate(68.02)"/><rect x="102.41" y="60.22" width="0.67" height="59.38" transform="translate(147.65 -39.02) rotate(68.01)"/></g><polyline class="cls-31" points="82.63 79.26 85.59 81.21 89.54 69.1"/><path class="cls-2" d="M123.76,53,61.05,78.2l-.93-2.29C95,62.69,92,55.48,90.53,53.75l21.89-8.81a7.49,7.49,0,0,1,9.78,4.16Z"/><path class="cls-8" d="M136.48,84.62a7.51,7.51,0,0,1-4.16,9.78L83.56,114a7.51,7.51,0,0,1-9.46-3.49c42.59-11.08,24.92-43,22.71-46.71L123.76,53Z"/><path class="cls-6" d="M71.1,66.37A.56.56,0,0,1,71,65.26a3.33,3.33,0,1,0-3.46-2.52.56.56,0,0,1-1.08.27,4.44,4.44,0,1,1,4.61,3.36Z"/><path class="cls-6" d="M83.55,61.29a.56.56,0,0,1-.08-1.11A3.33,3.33,0,1,0,80,57.66a.56.56,0,0,1-1.08.27,4.44,4.44,0,1,1,4.61,3.36Z"/><path class="cls-6" d="M96.77,56.29a.56.56,0,0,1-.08-1.11,3.33,3.33,0,1,0-3.46-2.52.56.56,0,1,1-1.08.27,4.44,4.44,0,1,1,4.61,3.36Z"/><path class="cls-6" d="M109.09,51.41A.56.56,0,0,1,109,50.3a3.33,3.33,0,1,0-3.46-2.52.56.56,0,0,1-1.08.27,4.44,4.44,0,1,1,4.61,3.36Z"/><path class="cls-32" d="M62.25,69.26a7.71,7.71,0,0,0,.42,6.44"/><path class="cls-32" d="M66,65.4a7.73,7.73,0,0,0-1.4.89"/><path class="cls-12" d="M441.06,214l-3.21,5.45-1.14,11.4-6.26-33.4-.11-.07.09,0L421,191l-8.38,1.57-27.9,5.23a7.13,7.13,0,0,0-5.69,8.32l8.29,44.31,1,5.16a7.14,7.14,0,0,0,8.32,5.7l37.21-7c.19,0,.36-.11.54-.16l-.26,2.6,5.47.55,3.72-37.32Z"/><path class="cls-6" d="M433.13,193.77l9.09,48.53a7.14,7.14,0,0,1-5.7,8.32l-37.21,7a7.14,7.14,0,0,1-8.32-5.7l-1-5.16-8.29-44.31a7.13,7.13,0,0,1,5.69-8.32l27.9-5.23,8.38-1.57L433,193.7Z"/><path class="cls-33" d="M433.11,193.68l-.09,0-4.53.85a3.39,3.39,0,0,1-4-2.71l-.85-4.53Z"/><line class="cls-34" x1="397.52" y1="211.81" x2="398.36" y2="216.28"/><line class="cls-34" x1="410.4" y1="209.4" x2="411.24" y2="213.86"/><line class="cls-34" x1="423.28" y1="206.99" x2="424.12" y2="211.45"/><line class="cls-34" x1="412.35" y1="217.92" x2="413.19" y2="222.39"/><polyline class="cls-34" points="426.69 222.34 426.18 219.6 399.9 224.52 400.45 227.44"/><line class="cls-34" x1="413.19" y1="222.39" x2="413.74" y2="225.3"/><line class="cls-34" x1="414.43" y1="228.99" x2="415.26" y2="233.46"/><polyline class="cls-34" points="428.76 233.41 428.25 230.67 401.98 235.59 402.52 238.51"/><line class="cls-34" x1="415.26" y1="233.46" x2="415.81" y2="236.38"/><rect class="cls-33" x="390.28" y="203.03" width="37.32" height="6.48" transform="translate(-30.99 78.83) rotate(-10.61)"/><rect class="cls-33" x="392.33" y="213.94" width="37.32" height="6.48" transform="translate(-32.96 79.4) rotate(-10.61)"/><rect class="cls-33" x="394.48" y="226.6" width="11.69" height="6.48" transform="translate(-35.48 77.65) rotate(-10.61)"/><rect class="cls-33" x="407.08" y="224.24" width="11.69" height="6.48" transform="translate(-34.83 79.93) rotate(-10.61)"/><rect class="cls-33" x="419.68" y="221.88" width="11.69" height="6.48" transform="translate(-34.18 82.2) rotate(-10.61)"/><rect class="cls-33" x="396.54" y="237.59" width="11.69" height="6.48" transform="translate(-37.47 78.21) rotate(-10.61)"/><rect class="cls-33" x="409.14" y="235.23" width="11.69" height="6.48" transform="translate(-36.82 80.5) rotate(-10.61)"/><rect class="cls-33" x="421.74" y="232.87" width="11.69" height="6.48" transform="translate(-36.17 82.78) rotate(-10.61)"/><path class="cls-8" d="M433,193.7l.11.07,9.09,48.53a7.14,7.14,0,0,1-5.7,8.32l-37.21,7a7.14,7.14,0,0,1-8.32-5.7l-1-5.16a31.8,31.8,0,0,0,10.1-2.18,24,24,0,0,0,7.94-5.18c.34-.33.66-.67,1-1a25.17,25.17,0,0,0,2-2.45c.52-.73,1-1.5,1.45-2.29a31.71,31.71,0,0,0,1.52-3c.18-.44.37-.88.54-1.31a42.5,42.5,0,0,0,1.72-5.7c.17-.73.32-1.46.44-2.2s.23-1.35.33-2a63.14,63.14,0,0,0,.58-6.7c.06-1.6.08-3.17,0-4.71-.06-2.27-.19-4.47-.38-6.53a105.46,105.46,0,0,0-1.91-12.53l8.38-1.57,9.42,6.37Z"/><polygon class="cls-3" points="445.99 216.3 442.27 253.62 436.8 253.07 440.52 215.77 443.77 216.08 445.99 216.3"/><polygon class="cls-35" points="445.99 216.3 443.77 216.08 440.52 215.77 443.73 210.33 445.99 216.3"/><line class="cls-36" x1="437.07" y1="250.44" x2="442.47" y2="250.98"/><path class="cls-37" d="M446,216.3l-3.72,37.32-5.47-.55,1.46-14.65c4.53-.73,5.4-14.33,5.51-22.35.05-3.38,0-5.75,0-5.75Z"/><polyline class="cls-32" points="440.98 225.61 440.88 226.75 440.3 232.37"/><line class="cls-32" x1="441.57" y1="219.56" x2="441.35" y2="221.77"/><path class="cls-12" d="M239.4,428.36a27.37,27.37,0,1,0-44.34-7.58l-1.85,1.89a1.3,1.3,0,0,0-2.17,1.41c.1.17.21.32.31.49l-1,1a1.3,1.3,0,0,0-2.17,1.41c.1.16.21.32.31.49l-1,1a1.3,1.3,0,0,0-2.17,1.41c.1.16.21.32.31.49l-1.18,1.21c2.63,5.94,7.24,10.36,13.75,13.45l1.22-1.25.22.15a1.31,1.31,0,0,0,1.8-.39,1.28,1.28,0,0,0-.2-1.62l1-1,.22.15a1.31,1.31,0,0,0,1.8-.39,1.29,1.29,0,0,0-.2-1.62l1-1,.22.15a1.31,1.31,0,0,0,1.8-.39,1.29,1.29,0,0,0-.2-1.62l1.84-1.88A27.36,27.36,0,0,0,239.4,428.36Z"/><path class="cls-14" d="M202.2,444.49c-6.5-3.1-11.12-7.51-13.75-13.45l15.88-16.22,13.75,13.45Z"/><circle class="cls-16" cx="223.77" cy="408.7" r="27.37" transform="translate(-224.83 282.74) rotate(-45.61)"/><path class="cls-14" d="M200.86,431a35.78,35.78,0,0,1-5.89-7.43,1.31,1.31,0,0,1,2.25-1.32c2.87,4.88,7.28,9.19,13.48,13.17a1.31,1.31,0,1,1-1.41,2.2A52.82,52.82,0,0,1,200.86,431Z"/><path class="cls-14" d="M198,433.89a35.78,35.78,0,0,1-5.89-7.43,1.31,1.31,0,1,1,2.25-1.32c2.87,4.88,7.28,9.18,13.48,13.17a1.31,1.31,0,0,1-1.41,2.2A52.81,52.81,0,0,1,198,433.89Z"/><path class="cls-14" d="M195.2,436.78a35.78,35.78,0,0,1-5.89-7.43,1.31,1.31,0,0,1,2.25-1.32c2.87,4.88,7.28,9.19,13.48,13.17a1.31,1.31,0,1,1-1.41,2.2A52.79,52.79,0,0,1,195.2,436.78Z"/><g class="cls-8"><path d="M200.86,431a35.78,35.78,0,0,1-5.89-7.43,1.31,1.31,0,0,1,2.25-1.32c2.87,4.88,7.28,9.19,13.48,13.17a1.31,1.31,0,1,1-1.41,2.2A52.82,52.82,0,0,1,200.86,431Z"/></g><g class="cls-8"><path d="M198,433.89a35.78,35.78,0,0,1-5.89-7.43,1.31,1.31,0,1,1,2.25-1.32c2.87,4.88,7.28,9.18,13.48,13.17a1.31,1.31,0,0,1-1.41,2.2A52.81,52.81,0,0,1,198,433.89Z"/></g><g class="cls-8"><path d="M195.2,436.78a35.78,35.78,0,0,1-5.89-7.43,1.31,1.31,0,0,1,2.25-1.32c2.87,4.88,7.28,9.19,13.48,13.17a1.31,1.31,0,1,1-1.41,2.2A52.79,52.79,0,0,1,195.2,436.78Z"/></g><path class="cls-38" d="M230.62,411.17c-3.82-5.84-11-9.47-14.27-6.77-2.55,2.11-1.69,3.25-1.22,4.61,1.14,3.31,8.51,9.95,10.78,7.63,2.46-2.51-4-7.75-7.47-9.64-3.28-1.79-5.57-.54-6.86,1.62s.15,4.94,1.73,6.94c1.17,1.48,6.8,7.36,7.9,5.62.46-.72-.57-3.76-3.41-6.15-5.66-4.76-7.53-3.92-8.42-3.38-2,1.18-2.41,4,2.28,7.76,2,1.64-3,4.27-6.21,8"/><path class="cls-39" d="M223.14,386.17a25.19,25.19,0,0,0-17,7.47"/><path class="cls-39" d="M233.22,388a22.39,22.39,0,0,0-6.17-1.61"/></g></g></g></svg>