<svg xmlns="http://www.w3.org/2000/svg" xmlns:xlink="http://www.w3.org/1999/xlink" viewBox="0 0 404.48 329"><defs><style>.cls-1{fill:url(#linear-gradient);}.cls-2{fill:url(#linear-gradient-2);}.cls-3{fill:url(#linear-gradient-3);}.cls-4{fill:url(#linear-gradient-4);}.cls-5{fill:#98a6b1;}.cls-6{fill:url(#linear-gradient-5);}.cls-7{fill:url(#linear-gradient-6);}.cls-8{fill:#706865;}.cls-9{fill:#bdafaa;}.cls-10{fill:#fff;}.cls-11{fill:#ffb955;}.cls-12{fill:#cfcfcf;}.cls-13{fill:#eea886;}.cls-14{fill:#db9c7c;}.cls-15{fill:#323657;}.cls-16{fill:#4da8f2;}.cls-17{fill:#efaa88;}.cls-18{fill:#424773;}.cls-19{fill:#292c47;}.cls-20{fill:#d88a51;}.cls-21{fill:#e2d2ca;}.cls-22{fill:#dfe1e8;}.cls-23{fill:#385369;}.cls-24{fill:url(#linear-gradient-7);}.cls-25{fill:#ffce55;}.cls-26{fill:#cf8c6c;}.cls-27{fill:#555c94;}.cls-28{fill:#354c70;}.cls-29{fill:#deb135;}.cls-30{fill:#f2c344;}.cls-31{fill:#d9d0c4;}.cls-32{fill:#ffb355;}.cls-33{fill:#eea987;}.cls-34{fill:#ffd255;}.cls-35{fill:#3c5780;}.cls-36{fill:#fccca2;}.cls-37{fill:#c48a6f;}.cls-38{fill:#e8734d;}.cls-39{fill:#293b57;}.cls-40{fill:#fb5;}.cls-41{fill:#e09e7f;}.cls-42{fill:#665249;}.cls-43{fill:#2e2626;}.cls-44{fill:#2f6b8c;}.cls-45{fill:#a77860;}.cls-46{fill:#4b5182;}.cls-47{fill:#22243b;}.cls-48{fill:#5c5c5c;}.cls-49{fill:#a87860;}.cls-50{fill:#5c5049;}.cls-51{fill:#fab46c;}.cls-52{fill:#d4c3bd;}.cls-53{fill:#de9673;}.cls-54{fill:#e6d3cc;}.cls-55{fill:#ded1c5;}.cls-56{fill:#bc8551;}.cls-57{fill:#23344a;}.cls-58{fill:#807066;}.cls-59{fill:#ffd078;}.cls-60{fill:#ffd887;}.cls-61{fill:#ffd989;}.cls-62{fill:#d6d6d6;}.cls-63{fill:#e8e8e8;}.cls-64{fill:#c2c2c2;}.cls-65{fill:#e0e0e0;}</style><linearGradient id="linear-gradient" x1="1943.31" y1="-689.5" x2="1883.66" y2="-766.31" gradientTransform="translate(-1664.55 344.52) rotate(17.79)" gradientUnits="userSpaceOnUse"><stop offset="0" stop-color="#ff9f55"/><stop offset="1" stop-color="#ffd255"/></linearGradient><linearGradient id="linear-gradient-2" x1="154.71" y1="213.58" x2="148.66" y2="205.79" gradientTransform="matrix(1, 0, 0, 1, 0, 0)" xlink:href="#linear-gradient"/><linearGradient id="linear-gradient-3" x1="151.55" y1="230.91" x2="143.84" y2="220.98" gradientTransform="matrix(1, 0, 0, 1, 0, 0)" xlink:href="#linear-gradient"/><linearGradient id="linear-gradient-4" x1="184.24" y1="223.65" x2="178.36" y2="216.08" gradientTransform="matrix(1, 0, 0, 1, 0, 0)" xlink:href="#linear-gradient"/><linearGradient id="linear-gradient-5" x1="168.02" y1="226.51" x2="75.68" y2="107.62" gradientTransform="matrix(1, 0, 0, 1, 0, 0)" xlink:href="#linear-gradient"/><linearGradient id="linear-gradient-6" x1="210.6" y1="281.34" x2="71.15" y2="101.79" gradientTransform="matrix(1, 0, 0, 1, 0, 0)" xlink:href="#linear-gradient"/><linearGradient id="linear-gradient-7" x1="2712.35" y1="-1996.29" x2="2650.18" y2="-2076.33" gradientTransform="matrix(0.85, 0.53, -0.53, 0.85, -3089.39, 419.2)" xlink:href="#linear-gradient"/></defs><title>stock</title><g id="Layer_2" data-name="Layer 2"><g id="OBJECT"><path class="cls-1" d="M393.35,215l-.82-15-32.22-4.66-5,14.12a77.28,77.28,0,0,0-9.19,1.57l7.59,36A40,40,0,0,1,387,253.24l17.52-32.5A76.08,76.08,0,0,0,393.35,215Z"/><path class="cls-2" d="M131.35,220.78v-1.55a39.18,39.18,0,0,0,36.53-24.7l1.44.58A40.72,40.72,0,0,1,131.35,220.78Z"/><path class="cls-3" d="M131.35,232.24v-1.55a51.83,51.83,0,0,0,32.48-11.29l1,1.22A53.36,53.36,0,0,1,131.35,232.24Z"/><path class="cls-4" d="M169.51,234.9l-.87-1.28a66.79,66.79,0,0,0,23.78-28.46l1.42.63A68.34,68.34,0,0,1,169.51,234.9Z"/><rect class="cls-5" x="275.73" y="48.95" width="1.55" height="40.57" transform="translate(25.21 203.77) rotate(-42.22)"/><path class="cls-6" d="M93.13,262.19,65.57,242.57l6.16-13.81a76.93,76.93,0,0,1-10.89-17.4l-15.13-.48-5.62-33.35,14.14-5.41a76.89,76.89,0,0,1,4.58-20l-10.35-11,19.61-27.56,13.81,6.16a77,77,0,0,1,17.4-10.89l.48-15.13L133.13,88l5.41,14.14a76.89,76.89,0,0,1,20,4.58l11-10.35L197.14,116,191,129.84a77.07,77.07,0,0,1,10.89,17.4l15.13.48,5.62,33.35-14.13,5.41a77.48,77.48,0,0,1-1.37,9l-.17.78-37.21-9.17.13-.72A39.13,39.13,0,1,0,120.65,217l.68.19-7.13,37.68-.79-.19a76.71,76.71,0,0,1-9.25-2.82ZM67.5,242,93,260.19,103.8,250l.45.17A75.19,75.19,0,0,0,113,253l6.57-34.7a40.7,40.7,0,1,1,52-32.3l34.24,8.44a75.91,75.91,0,0,0,1.22-8.52l0-.48,13.86-5.3-5.2-30.85-14.83-.47-.2-.44a75.53,75.53,0,0,0-11.17-17.85l-.31-.37,6-13.54L169.71,98.42,158.9,108.56l-.45-.17a75.34,75.34,0,0,0-20.53-4.7l-.48,0-5.3-13.86L101.28,95l-.47,14.83-.44.2a75.4,75.4,0,0,0-17.85,11.17l-.37.31-13.54-6L50.47,140.95l10.14,10.81-.17.45a75.35,75.35,0,0,0-4.7,20.52l0,.48-13.86,5.31L47,209.37l14.83.47.2.44a75.39,75.39,0,0,0,11.17,17.85l.31.37Z"/><path class="cls-7" d="M219,164.53l-2.71-16.05-15-.47a76.36,76.36,0,0,0-11.28-18l6.1-13.67L169.64,97.42l-10.91,10.24a75.45,75.45,0,0,0-8.37-2.66l-6.74,36.3a40,40,0,0,1,27,45.23l35.72,8.8a76.74,76.74,0,0,0,1.4-9.4l14-5.36Zm-120.2-8.37A39.71,39.71,0,0,1,110,145.57L91.78,113.62a75.78,75.78,0,0,0-9.76,7l-13.67-6.1-9.44,13.26L49.47,141l10.24,10.92A76.09,76.09,0,0,0,55,172.67L41,178l2.71,16.05,2.7,16.05,15,.47a76.24,76.24,0,0,0,11.29,18l-6.1,13.67,13.26,9.44,13.27,9.44L104,250.94a75.35,75.35,0,0,0,9.61,3l6.85-36.19a39.94,39.94,0,0,1-21.61-61.55Z"/><rect class="cls-8" x="123.9" y="243.59" width="1.65" height="75.07"/><rect class="cls-8" x="86.79" y="243.59" width="1.65" height="75.07"/><rect class="cls-9" x="78.48" y="212.23" width="54.35" height="94.05" rx="22.63" ry="22.63"/><rect class="cls-10" x="79.97" y="213.74" width="51.36" height="88.86" rx="21.39" ry="21.39"/><rect class="cls-8" x="97.56" y="211.51" width="16.19" height="3.66"/><path class="cls-11" d="M91.5,78.37a31,31,0,0,0,1.93-8.44l5.7-2.18L98,61.21l-1.1-6.54-6.1-.19a31,31,0,0,0-4.59-7.34l2.48-5.57-5.4-3.84-5.4-3.84-4.44,4.17A31,31,0,0,0,65,36.13l-2.18-5.7-6.54,1.1-6.53,1.1-.19,6.1a31,31,0,0,0-7.34,4.59l-5.57-2.48-3.84,5.4L29,51.64l4.17,4.44a31,31,0,0,0-1.93,8.44l-5.7,2.18,1.1,6.54,1.1,6.54,6.1.19a31,31,0,0,0,4.59,7.34l-2.48,5.57,5.4,3.84,5.4,3.84,4.44-4.17a31,31,0,0,0,8.44,1.93l2.18,5.7,6.54-1.1,6.54-1.1.19-6.1a31,31,0,0,0,7.34-4.59L88,93.61l3.84-5.4,3.84-5.4Zm-38.58,2.1a16.25,16.25,0,1,1,22.66-3.82A16.25,16.25,0,0,1,52.91,80.47Z"/><path class="cls-12" d="M104.91,255.27l-1.08-2.81a15.27,15.27,0,0,1-3.21-.74l-2.19,2.06-6.08-4.33,1.23-2.75a15.27,15.27,0,0,1-1.75-2.79l-3-.1-1.24-7.36,2.81-1.08a15.29,15.29,0,0,1,.74-3.21L89.07,230l4.33-6.08,2.75,1.23a15.27,15.27,0,0,1,2.79-1.75l.1-3,7.36-1.24,1.08,2.81a15.28,15.28,0,0,1,3.21.74l2.19-2.06L119,225l-1.23,2.75a15.27,15.27,0,0,1,1.75,2.79l3,.1,1.24,7.36L120.91,239a15.27,15.27,0,0,1-.74,3.21l2.06,2.19-4.33,6.08-2.75-1.23a15.27,15.27,0,0,1-2.79,1.75l-.1,3Zm-4.64-5.33.45.17a13.73,13.73,0,0,0,3.73.86l.48,0,1,2.52,4.86-.82.09-2.7.44-.2a13.72,13.72,0,0,0,3.25-2l.37-.31,2.47,1.1,2.86-4-1.85-2,.17-.45a13.73,13.73,0,0,0,.86-3.73l0-.48,2.52-1-.82-4.86-2.7-.09-.2-.44a13.72,13.72,0,0,0-2-3.25l-.31-.37,1.1-2.47-4-2.86-2,1.85-.45-.17a13.72,13.72,0,0,0-3.73-.86l-.48,0-1-2.52-4.86.82-.09,2.7-.44.2a13.72,13.72,0,0,0-3.25,2l-.37.31-2.47-1.1-2.86,4,1.85,2-.17.45a13.73,13.73,0,0,0-.86,3.73l0,.48-2.52,1,.82,4.86,2.7.09.2.44a13.73,13.73,0,0,0,2,3.25l.31.37-1.1,2.47,4,2.86Z"/><path class="cls-12" d="M109.15,244.81l-.65-1.41a6.83,6.83,0,0,0,3.94-5.56L114,238a8.38,8.38,0,0,1-4.84,6.83Zm-8.33-.77,0,0a8.39,8.39,0,0,1-3.51-6.82q0-.39,0-.78l1.54.14c0,.21,0,.42,0,.64a6.84,6.84,0,0,0,2.87,5.56Zm8.77-12.4a6.77,6.77,0,0,0-3.94-1.26h0a6.9,6.9,0,0,0-2.85.62l-.64-1.41a8.46,8.46,0,0,1,3.49-.76h0a8.31,8.31,0,0,1,4.84,1.54Z"/><path class="cls-12" d="M116.4,272.19l-.59-1.55a8.36,8.36,0,0,1-1.32-.3l-1.21,1.13-3.68-2.62.68-1.51a8.39,8.39,0,0,1-.72-1.15l-1.66-.05-.75-4.45,1.55-.59a8.38,8.38,0,0,1,.3-1.32l-1.13-1.21,2.62-3.68,1.51.68a8.37,8.37,0,0,1,1.15-.72l.05-1.66,4.45-.75.59,1.55a8.35,8.35,0,0,1,1.32.3l1.21-1.13,3.68,2.62-.68,1.51a8.36,8.36,0,0,1,.72,1.15l1.66.05.75,4.45-1.55.59a8.37,8.37,0,0,1-.3,1.32l1.13,1.21-2.62,3.68-1.51-.68a8.36,8.36,0,0,1-1.15.72l-.05,1.66Zm-2.28-3.64.45.17a6.82,6.82,0,0,0,1.86.43l.48,0,.48,1.26,1.95-.33,0-1.34.44-.2a6.82,6.82,0,0,0,1.61-1l.37-.31,1.23.55,1.15-1.61-.92-1,.17-.45a6.82,6.82,0,0,0,.43-1.86l0-.48,1.26-.48-.33-1.95-1.34,0-.2-.44a6.83,6.83,0,0,0-1-1.61l-.31-.37.55-1.23-1.61-1.15-1,.92-.45-.17a6.82,6.82,0,0,0-1.86-.43l-.48,0-.48-1.26-1.95.33,0,1.34-.44.2a6.82,6.82,0,0,0-1.61,1l-.37.31-1.23-.55-1.15,1.61.92,1-.17.45a6.82,6.82,0,0,0-.43,1.86l0,.48-1.26.48.33,1.95,1.34,0,.2.44a6.83,6.83,0,0,0,1,1.61l.31.37-.55,1.23,1.61,1.15Zm2.89-1.49a4.72,4.72,0,0,1-2.75-.88h0a4.75,4.75,0,1,1,3.55.81A4.81,4.81,0,0,1,117,267.07Zm0-8a3.2,3.2,0,0,0-1.86,5.81h0a3.2,3.2,0,1,0,1.86-5.81Z"/><path class="cls-13" d="M76.75,277.06a3.24,3.24,0,0,1,.42,1.11,5.32,5.32,0,0,0,.51,1.31,12.46,12.46,0,0,1,.62,2.18,10.06,10.06,0,0,0-.29,1.46c0,.32.23.94-.05,1s-.61-.47-.61-.47a.42.42,0,0,1-.21.4.7.7,0,0,1-.71,0s-.17.32-.39.36a.88.88,0,0,1-.71-.1.86.86,0,0,1-.54.17.71.71,0,0,1-.6-.37s-.53.11-.69-.14a2.39,2.39,0,0,1-.19-.74,8.62,8.62,0,0,1,.68-3.73,3.31,3.31,0,0,0-.18-2.9Z"/><path class="cls-14" d="M77.42,283.44s0-1.83-.43-2.22-.54.27-.54.27.07-.65-.46-.74-.55.69-.55.69a.51.51,0,0,0-.64-.4c-.55.1-.42.74-.42.74s-.53-.63-.87,0a2.69,2.69,0,0,0,0,2.23s.16.28.69.14a.73.73,0,0,0,1.14.2s.81.44,1.1-.27A.67.67,0,0,0,77.42,283.44Z"/><path class="cls-15" d="M82.95,250.73S79.82,261.16,78.76,265c-.33,1.21-1.13,12.73-1.28,13.19s-4.11,1.1-4.11,1.1.48-14.42.53-15.2,4.38-16.88,5.64-17.46c.94-.43,1.44-.07,2.63.81A2.79,2.79,0,0,1,82.95,250.73Z"/><rect class="cls-16" x="112.94" y="233.72" width="8.56" height="0.64" transform="translate(-109.02 102.4) rotate(-33.2)"/><path class="cls-17" d="M121.74,234.12a1.87,1.87,0,0,1-.18.57s-.23.28-.39.49l-.11.17a3.42,3.42,0,0,1-.59.92c-.34.35-1.67,1.45-1.67,1.45l-1.14-1-1.18-.53a22.26,22.26,0,0,1,.94-3.24l.09-.1a4.38,4.38,0,0,1,.74-.51c.06,0,.67-.49.88-.43a.73.73,0,0,1,.55.46,1.75,1.75,0,0,1,.81.52,1.09,1.09,0,0,1,.7.65S121.72,233.78,121.74,234.12Z"/><path class="cls-18" d="M80.41,321.94s-.29,2-.32,2.28-3.17-.18-3.17-.18l-.25-2.36A18.59,18.59,0,0,1,80.41,321.94Z"/><path class="cls-19" d="M80.12,324a8.47,8.47,0,0,0,2,1.71c1,.52,2.47.73,3,1.26.41.39,1.49,2.06-2.5,2s-5.92.24-6.35-.41.62-4.73.62-4.73A8.46,8.46,0,0,0,80.12,324Z"/><path class="cls-18" d="M102.89,321.94s-.29,2-.32,2.28S99.4,324,99.4,324l-.25-2.36A18.59,18.59,0,0,1,102.89,321.94Z"/><path class="cls-19" d="M102.6,324a8.47,8.47,0,0,0,2,1.71c1,.52,4.5.95,5.07,1.49.41.39,1.09,2-4.53,1.81-4-.1-5.92.24-6.35-.41s.62-4.73.62-4.73A7.67,7.67,0,0,0,102.6,324Z"/><path class="cls-19" d="M83,271.06s-2.95,4.68-2.73,8.92-1.07,8.86-1.51,13.28c-.49,4.93-2.51,16.6-2.59,19.24s.31,11.06.31,11.06l4,.09s3.4-20.41,4.28-22.49,5.24-16.93,5.39-18.59S83,271.06,83,271.06Z"/><path class="cls-19" d="M98.53,271.7s2.22,11.61,2.52,14.2.49,12.54.64,14.16,1.37,21.15,1.76,23.6H98.27s-4-14.23-4-21-3.07-14.64-5-19.08-6.51-4.55-7.73-12.79C81.52,270.82,96.88,269.08,98.53,271.7Z"/><path class="cls-13" d="M87.93,231.68s4-1.48,5.78,1.53,1.65,9-.35,9.78-5,.35-6-1.53a15.09,15.09,0,0,1-1.9-6.43A4,4,0,0,1,87.93,231.68Z"/><path class="cls-13" d="M92.93,243.14a3.42,3.42,0,0,0,.11,1.59c.27.53-5.13.54-5.13.54A35.57,35.57,0,0,0,86.64,240C85.81,237.57,92.93,243.14,92.93,243.14Z"/><path class="cls-20" d="M86.64,240s.37.61,1.89.38,3.38-2.26,4-2.48.64-.6.64-.6l.4.58.67,0s-.62-1.81.31-2.55-1-5.86-5.84-4.15c0,0-3.75,1-3.61,3.16S85.8,238.93,86.64,240Z"/><path class="cls-21" d="M93.36,244.67s0-1-.47-1.1a32.53,32.53,0,0,0-5.59-.32v1.17S88.37,245.08,93.36,244.67Z"/><path class="cls-13" d="M93.09,236.51c-.09-.36-1-1.38-1.34-.29s.53,2.56,1,2.44S93.31,237.42,93.09,236.51Z"/><path class="cls-15" d="M100.93,246.19c-3.14-.41-7.57-1.52-7.57-1.52l-6.06-.25a59,59,0,0,0-7.76,2.22c-.21.09-.21,5-.78,6.24l1.82,3.83s1,7.59,1.27,11c.1,1.55-2.16,14.54-2.16,14.54a41.85,41.85,0,0,0,6.57,1.17c4.14.46,14.48-.16,14.54-.65s-2-18.2-2.09-19.12c-.14-1.41.49-8.89.49-8.89,1-.74,9.35-4.64,11.63-6.66.61-.54,3.2-3.06,3.93-3.93a70.63,70.63,0,0,0,5-6.29c.29-.32-2.92-2-3.2-2.14s-3.68,4.5-5,6a38,38,0,0,1-3.11,2.48S102.89,246.3,100.93,246.19Z"/><path class="cls-20" d="M86.8,232s-5,.4-.16,8Z"/><polygon class="cls-22" points="120.98 231.96 121.39 231.33 120.63 231.43 120.98 231.96"/><path class="cls-23" d="M262.88,55.15a4,4,0,0,0,4-4h-.94a3,3,0,1,1-3-3h.47V0h-.94V47.22a4,4,0,0,0,.47,7.92Z"/><rect class="cls-5" x="261.8" y="24.29" width="2.24" height="22.73" transform="translate(525.83 71.31) rotate(180)"/><polygon class="cls-5" points="236.23 84.77 235.08 83.73 262.94 53.06 263.96 54.25 236.23 84.77"/><path class="cls-24" d="M308.85,114.25a76.1,76.1,0,0,0,8.88-7.81L292.18,80a40,40,0,0,1-59.07-.34L208,106.6a75.59,75.59,0,0,0,8.46,7.44l-2.92,14.7,15,6.26,15,6.26L252,128.84a76.41,76.41,0,0,0,21.28.06l8.32,12.45,15.05-6.2,15.05-6.2Z"/><polygon class="cls-25" points="234.38 210.64 209.32 210.64 209.32 228.8 209.32 232.63 213.15 228.8 234.38 228.8 234.38 210.64"/><path class="cls-13" d="M209.59,251.84s.54-1.34.63-1.54a3.48,3.48,0,0,1,1.24-.86,4,4,0,0,1,1.74-.43.62.62,0,0,1,.38.35,1.2,1.2,0,0,1,.1.6.73.73,0,0,1,.26.65.63.63,0,0,1,.14.69.53.53,0,0,1,.15.57,4.81,4.81,0,0,0-.68.51,10.09,10.09,0,0,1-2.47,1.22S209.83,253.62,209.59,251.84Z"/><path class="cls-26" d="M211.51,251.11a3.56,3.56,0,0,1-.09.93c-.1.21,1.47.66,1.47.66S212.39,251.12,211.51,251.11Z"/><polygon class="cls-27" points="182.16 322.12 182.85 319.98 185.75 320.45 185.32 322.38 182.16 322.12"/><polygon class="cls-27" points="205.98 321.87 206.14 323.05 209.32 322.52 209.15 320.76 205.98 321.87"/><path class="cls-28" d="M199.09,288.93s-.47,2.55-1,5.39l-.29,1.49c-.53,2.73-1.07,5.36-1.27,5.9-.45,1.24-10.19,19.08-10.19,19.08s-4-.3-4.13-.82c0,0,8.16-19.38,8.12-20.08s1-20.57,1-20.57S198.87,287.78,199.09,288.93Z"/><path class="cls-28" d="M203.54,278.19s3.81,19.51,4.14,21,1.77,21.48,1.77,21.48-.86,1.77-4,1.1c0,0-4.31-21.48-4.68-22.2-1.41-2.79-8.33-16.32-9-18.25a11.61,11.61,0,0,1-.47-4.18S196.41,274.25,203.54,278.19Z"/><path class="cls-29" d="M201.94,252.91s1.67,4.17,2.09,4,5.22-5.76,5.22-5.76,2.2,2.74,1.9,3.06-6.08,9.87-6.86,9.7S200,258,200,258,199.83,253.67,201.94,252.91Z"/><path class="cls-30" d="M194.79,245a69.79,69.79,0,0,1,5.53,4.63c1.2,1.31,4.5,6.76,4.26,8.4a119,119,0,0,0-1.37,15.93c0,3.73,1.17,4.69.42,4.74s-11.76,4-13.37,4.5c0,0,1.06-13.15,1.59-14.67S190.14,251.06,194.79,245Z"/><path class="cls-31" d="M222.7,238.67l1,4.9,1,4.9a26.7,26.7,0,0,0-11.88-.49l-.43-2.16-.43-2.17A26.79,26.79,0,0,0,222.7,238.67Z"/><path class="cls-32" d="M206.14,323s2.4-.46,2.48-.54.6-1,1-.86.38,1.32.74,1.52,3.23,2.13,3.58,2.48,2.52.14,2.77.76.27,2.06-3,1.72-6.93.19-7.63-.2S205.92,324,206.14,323Z"/><path class="cls-32" d="M182.13,322.07s2.44-.07,2.54-.13.75-.91,1.09-.69.16,1.36.49,1.61,2.85,2.62,3.14,3,2.47.55,2.61,1.19-.06,2.08-3.2,1.22-6.87-.93-7.5-1.42S181.76,323,182.13,322.07Z"/><path class="cls-33" d="M201.11,279.09s.29,1.19.76,1.45-2.19,2.8-2.19,2.8a22.37,22.37,0,0,1-1-2.59A16.28,16.28,0,0,1,201.11,279.09Z"/><path class="cls-34" d="M192.86,250.09s-3.11,14.8-3.37,16.31,9.12,15.12,9.12,15.12l3.11-1.85s-7.55-13.73-7.54-14.36,3.63-12.55,3.63-12.55,1.51-2.6-1.17-3.86A2.67,2.67,0,0,0,192.86,250.09Z"/><path class="cls-35" d="M202.93,280.11a50.67,50.67,0,0,1,.95,6.57c-.06,1.54-5.81-2.43-5.52-4Z"/><path class="cls-13" d="M194.79,245s7.89,8.62,7.41,7.67c-1.73-3.41-2.94-4-2.92-4.62s.18-1.89.21-2.37c.06-.9.16-1.65.16-1.65s-3.92-5.5-3.75-3.63A11.42,11.42,0,0,1,194.79,245Z"/><path class="cls-13" d="M202.31,234.81a20,20,0,0,1,1.1,3.14,12.72,12.72,0,0,0,0,1.74,24.89,24.89,0,0,1,.62,2.62c-.09.5-1.14.24-1.28,1.06s-.91,2.37-1.29,2.4c-1,.08-4.72-1.45-5-2.23s-1.59-5.15-2-6,6.59-5.38,7.23-4.07Z"/><path class="cls-36" d="M192.77,236.7c-.5-2.16,2-2.43,2-2.43s1.62-1.88,5.49-1.66,3.28,5.28,3.28,5.28a14.38,14.38,0,0,0-3.84-.11,18.32,18.32,0,0,0,0,2.69l-1.46-.13s.16-1.92-.54-2-.94,4.05-2.24,5a1.43,1.43,0,0,0-.18-.58h0a16.66,16.66,0,0,1-1-2.11A23.87,23.87,0,0,1,192.77,236.7Z"/><path class="cls-13" d="M198.64,238.8a1.11,1.11,0,0,0-1.83-.51c-.93.69,0,3.16.94,3.15S199,240.08,198.64,238.8Z"/><path class="cls-37" d="M196.24,242.86a2.85,2.85,0,0,0,.4,1,8.39,8.39,0,0,0,2.9,1.51l-.17,1.55S196.07,245.58,196.24,242.86Z"/><path class="cls-38" d="M213.65,253.34l.56-.26-2.52-5.36-1.42.67,2.14,4.54A.87.87,0,0,0,213.65,253.34Z"/><path class="cls-14" d="M213,249.1s-1.58.87-1.47,1.14a.46.46,0,0,0,.31.31l-.49.65s-.08.61.61.52c0,0-.13.57.52.4,0,0,.08.41.4.39a6,6,0,0,0,1.31-.62s.15-.22-.15-.57a.62.62,0,0,0-.14-.69.68.68,0,0,0-.26-.65s.14-.77-.48-1Z"/><polygon class="cls-38" points="208.4 248.89 213.97 247.85 213.06 243.28 207.54 244.54 208.4 248.89"/><path class="cls-13" d="M210.26,250.27a6.12,6.12,0,0,1,1.92.24c.15.06.29.15.29.32s-.24.38-.78.42a4.52,4.52,0,0,0-1.21.34S209.93,251.48,210.26,250.27Z"/><path class="cls-39" d="M198.08,294.31l-.29,1.49-3.16-8.37C195,288.28,198.08,294.31,198.08,294.31Z"/><polygon class="cls-40" points="255.05 278.43 306.12 278.43 290.02 327.86 291.53 328.35 308.3 276.85 253.9 276.85 237.29 327.86 238.79 328.35 255.05 278.43"/><polygon class="cls-40" points="272.43 327.86 256.33 278.43 307.4 278.43 323.66 328.35 325.17 327.86 308.55 276.85 254.15 276.85 270.92 328.35 272.43 327.86"/><rect class="cls-40" x="250.3" y="292.41" width="62.51" height="1.58"/><rect class="cls-40" x="243.86" y="309.6" width="74.79" height="1.58"/><path class="cls-41" d="M308.33,180.32s.36-1.24-.19-1.73a4.13,4.13,0,0,1-.87-1.56c-.13-.36-.93-1.32-.48-1.48s1.4,1.52,1.67,1.83.57-1.51.89-1.8,3.3.39,3,1.61a11.53,11.53,0,0,1-1.56,2.53,7.82,7.82,0,0,1-.22.9Z"/><path class="cls-41" d="M309.2,175.86a28.44,28.44,0,0,1,1.62-3.85c.29-.17.49-.09.38.26s-1.18,3.59-1.18,3.59,2.31-4.09,2.52-4.28.51,0,.47.22-2.1,4.38-2.1,4.38,2.16-3.81,2.38-3.92a.3.3,0,0,1,.38.42l-1.95,3.95a17.8,17.8,0,0,1,2-2.66c.15,0,.49.12,0,.79s-1.42,2.39-1.42,2.39Z"/><path class="cls-41" d="M257,213.73s-1.18.52-1.74,0a4.13,4.13,0,0,0-1.66-.66c-.37-.08-1.43-.75-1.53-.28s1.69,1.19,2,1.41-1.42.77-1.66,1.12.81,3.22,2,2.71,2.08-1.83,2.3-1.88a7.82,7.82,0,0,0,.86-.34Z"/><path class="cls-41" d="M252.69,215.18a28.46,28.46,0,0,0-3.6,2.11c-.13.31,0,.5.31.34l3.41-1.64s-3.75,2.82-3.92,3.06.09.5.28.44,4.06-2.65,4.06-2.65-3.5,2.64-3.58,2.88a.3.3,0,0,0,.46.32l3.66-2.45a17.8,17.8,0,0,0-2.37,2.32c0,.15.18.47.79-.09s2.18-1.72,2.18-1.72Z"/><path class="cls-15" d="M255.76,213.79l1.86,2.29s12-4.94,13.79-6.66a19.43,19.43,0,0,0,3-2.15h0c.53-.42,1-.82,1.52-1.17l.32-.29h0l3.3-2.95s6-3.19,3.55-6.63a2.35,2.35,0,0,0-2.58-.18,22.64,22.64,0,0,0-4.36,3.21c-.53.51-4,3.47-4.19,3.66-.69.7-3,2.8-4.26,3.72C265.55,208.26,255.76,213.79,255.76,213.79Z"/><path class="cls-33" d="M290,189.46h0a14.31,14.31,0,0,1-1.63,2.68c-2.12,2.71-7,2.78-7.12-4.67a11.52,11.52,0,0,1,.45-3.48c1-3.31,3.38-3.86,3.38-3.86,1.75-.1,4.82.34,5.84,2.62C291.63,184.38,291.1,187.07,290,189.46Z"/><path class="cls-42" d="M290,189.46h0s-.25.07-1.16-1.77c-.18-.37-.32-.11-.4-.27l-1.45-.57s1.44-2.4-.44-3.07-4.84.2-4.84.2c.63-5.92,3.38-3.86,3.38-3.86,1.75-.1,5.5,0,6.53,2.29C292.31,184.05,291.1,187.07,290,189.46Z"/><path class="cls-33" d="M288.11,186.31c.11-.5,1.09-.93,1.51.14s-1,2.21-1.35,2S287.93,187.14,288.11,186.31Z"/><path class="cls-43" d="M269.24,273a11.38,11.38,0,0,1-3.75,2c-1.71.37-2.61,1.25-2.62,2.26s4.93,1.69,6.88.66c2.92-1.53,3.22-1.07,3.54-1.83a10.49,10.49,0,0,0,.08-3C273.41,272.8,269.24,273,269.24,273Z"/><path class="cls-43" d="M269.38,272.45a7,7,0,0,0-.19.85s3.86.45,3.74-.22-.23-1.13-.23-1.13Z"/><path class="cls-43" d="M293.57,274.33a6,6,0,0,1-2.87,2.3c-1.58.38-2.17,1-2.25,1.94s3.74,2.21,6.41.53c1.76-1.1,2.42-1,2.77-1.74s.09-2.68.12-2.9S293.57,274.33,293.57,274.33Z"/><path class="cls-44" d="M294,273.64a7.33,7.33,0,0,0,0,.83s3.56.64,3.54,0a4.93,4.93,0,0,0-.22-1.13Z"/><path class="cls-30" d="M279.42,224.95s-4.8,11.9-6.18,15.94a60.67,60.67,0,0,0-3,12.55c-.29,3.21-1.41,18.34-1.61,19.27s5.38.62,5.38.62,3.14-19.08,4-22.49c.8-3.18,8.34-17.6,9.07-16.73s3.14,15.63,3.68,18.14,2,22.25,2,22.25,4.9.79,5.89,0c0,0-.77-17.6-1.12-22.3-.13-1.79,1.13-21.45-1.9-29.37C294,218.63,279.42,224.95,279.42,224.95Z"/><path class="cls-15" d="M284.59,195.06s-4.15.85-4.69,1.33-1.75,5.64-1.81,7a50.29,50.29,0,0,0,.88,9.25c.58,2.15-.52,11.12-.89,14.1,0,0,7.2,3.27,19.36.72,0,0-2.14-9.28-1.78-12.23.46-3.78,1.69-12.06,1.69-12.06s1.12-7.89.09-7.7a21.83,21.83,0,0,1-7.73-.44Z"/><path class="cls-13" d="M283.66,196s1.27,1,5.53-.92a11.76,11.76,0,0,1,.41-5c.84-2.73-5.49,2.84-5.49,2.84s.08.32,0,.7v.07a7.38,7.38,0,0,1-.17.93l0,.12C283.71,195.64,283.66,195.23,283.66,196Z"/><path class="cls-45" d="M284,194.61h0c3.05.39,4.72-2.9,4.77-3-2.09,3-4.59,2.06-4.59,2.06h0A7.49,7.49,0,0,1,284,194.61Z"/><path class="cls-13" d="M283.68,195.26s-1,1.45.38,1.7a6.44,6.44,0,0,0,5.65-1.9S285.73,194.3,283.68,195.26Z"/><path class="cls-15" d="M290.7,202.88c-.43-.89.66-3.22,2.51-4.84a13.6,13.6,0,0,1,3.79-2.37c.76-.29,6-2,6.22-2.62.32-.83,1.7-4.88,1.81-5.23.22-.71,2.82-8.72,2.82-8.72l3.24.74s-2.42,11.59-2.72,13.08a5.35,5.35,0,0,1-2.55,4.1c-2.22,1.41-7.07,5-7.56,5.19S292.63,206.85,290.7,202.88Z"/><path class="cls-46" d="M361.09,321a6.84,6.84,0,0,0-1.81,1,9.64,9.64,0,0,1-3.6,2.06c-1.39.25-2.86.23-2.64,1.72s4.81,2.22,8.94,1,4.19-1.38,4.19-1.74a26.22,26.22,0,0,0-.81-4.19C365.18,320.66,361.09,321,361.09,321Z"/><path class="cls-46" d="M385.17,319.63a7.58,7.58,0,0,1-3,1.93c-1.37.28-3.17.72-3.26,1.62a1.11,1.11,0,0,0,.53,1.19c.34.26,6.89.5,9.42-.45,1.55-.59-.24-5.45-.24-5.45Z"/><path class="cls-33" d="M370.94,248.86s-4.68,5.22-4.53,3.67a11.52,11.52,0,0,0-.7-3.67c-.24-.75-.44-1.3-.44-1.3h0c0-.07,5.09-7.25,4.91-5A27.68,27.68,0,0,0,370.94,248.86Z"/><path class="cls-30" d="M369.21,288.17s-2.06,7.17-1.71,8.44,3.88,5.91,4.36,6.61c.64.94,10.89,17,11,17.28s5.9-1.12,6.14-2.36c0,0-8.11-16.65-10-18.85a8.38,8.38,0,0,1-2.07-7c.31-2.55,4.07-10.79,3.49-14.19S369.56,284.59,369.21,288.17Z"/><path class="cls-30" d="M365.4,278.63S351.58,289.1,350,291.24s.19,5.32.42,6.36S360,319.25,360.12,321c0,0,6.25.52,7.35-.87,0,0-6.8-19.56-7.78-22.92s2.4-4.17,5.12-5.39,14.65-8.22,15.35-10.85a7.85,7.85,0,0,0,0-4.22S376.81,274.64,365.4,278.63Z"/><path class="cls-47" d="M364.66,257.45s-9.27-3.24-9.11-5.25,8.29-11.94,8.29-11.94l2.75,1.79-4,10.37,7,2.64Z"/><path class="cls-15" d="M371.48,248.57a16.83,16.83,0,0,1-1.08-2.63s-4.66,3.67-5.13,4.54a9.16,9.16,0,0,1,.08,2.39Z"/><path class="cls-15" d="M371.48,248.57a2.48,2.48,0,0,0-2.35.46c-1.43.93-6.33,5.84-7.22,6.15,0,0,2.11,9.19,2.23,11.62s1.71,15.14.78,16.76c0,0,3.56-1,7.94-2.42a49.65,49.65,0,0,0,8.81-4.08s-3.12-7.64-3.44-10.1S375.36,251.67,371.48,248.57Z"/><path class="cls-33" d="M359.62,242.63a4.29,4.29,0,0,1-.88-2.63c-.13-2-.06-1.3-.06-1.3Z"/><path class="cls-48" d="M364.59,241.71a11.24,11.24,0,0,0-3.41-1.17,5.1,5.1,0,0,0-2.43.84s-.51-1.85-.08-2.58S364.59,241.71,364.59,241.71Z"/><path class="cls-49" d="M368.55,243.95s-.59,3.33-2.83,4.91h0c-.24-.75-.44-1.3-.44-1.3h0A8.25,8.25,0,0,0,368.55,243.95Z"/><path class="cls-17" d="M362.94,237.51s-1.52,4.53-1.68,5.58-3.27-1-3.27-1a46,46,0,0,0,1.73-5.72C360,234.51,362.94,237.51,362.94,237.51Z"/><path class="cls-15" d="M372.8,254.94a3.61,3.61,0,0,0-2.93-2.73c-2.88-.17-9.38-.18-9.59-.55s2.89-13.1,2.89-13.1a20,20,0,0,0-4.31-1.23s-7.1,18.74-6.26,19.31c3.06,2.05,16.69,2.57,16.69,2.57s2.87-.67,3.42-2.59A3.61,3.61,0,0,0,372.8,254.94Z"/><path class="cls-17" d="M361.73,230.81a2.39,2.39,0,0,0-.5.57s-.15.44-.28.75a2.24,2.24,0,0,1-.11.23,4.37,4.37,0,0,0-.62,1.25c-.16.6-.49,2.78-.49,2.78l1.8.62,1.42.51a20.55,20.55,0,0,0,2.87-2.71,1.48,1.48,0,0,0,.05-.16,5.58,5.58,0,0,0,.07-1.15c0-.1.1-1-.11-1.25a.93.93,0,0,0-.86-.3,2.24,2.24,0,0,0-1.1-.55,1.39,1.39,0,0,0-1.18-.34S362.11,230.61,361.73,230.81Z"/><path class="cls-13" d="M359.34,238.41s-.58,2.83.18,3,.18,2.89.14,3.32,1.17.38,1.49.56,1.95,3.05,2.9,2.87,4.7-2.89,5.48-4.41.11-7.15-1.32-9.17S360.38,233.46,359.34,238.41Z"/><path class="cls-15" d="M359.22,238.82s-1-.7-.39-3.9c.68-3.69,7.49-1.58,8-1.6s4-.34,3.8,4.74c-.24,5.46-.5,5.36-.5,5.36s-1.18-2.9-2.15-2.84-2.76.33-2.76.33.18-2.54-1.26-2.46S360.42,237.91,359.22,238.82Z"/><path class="cls-13" d="M365.88,241.08c0-.29-.06-1.57.92-1.67s1.11,1.46.65,2.54S366,242.68,365.88,241.08Z"/><polygon class="cls-25" points="0 221.63 19.42 221.63 19.42 235.71 19.42 238.67 16.45 235.71 0 235.71 0 221.63"/><polygon class="cls-50" points="43.08 318.91 39.17 292.95 39.93 292.83 43.83 318.8 43.08 318.91"/><polygon class="cls-50" points="38.31 318.91 34.41 292.95 35.16 292.83 39.06 318.8 38.31 318.91"/><polygon class="cls-50" points="14.83 318.91 14.08 318.8 17.98 292.83 18.73 292.95 14.83 318.91"/><path class="cls-51" d="M40.4,293.21,43.45,261a61.37,61.37,0,0,0-8.58-.53L30,293.21Z"/><rect class="cls-51" x="30.02" y="291.58" width="10.38" height="1.64"/><path class="cls-51" d="M23.22,291.9,21.6,261.24s13.54-1.47,21.85-.2Z"/><path class="cls-36" d="M34,251.31s2.09-6.13-1.9-8a6.16,6.16,0,0,0-8,2.33c-.64,1.49-.47,4.19.08,6.07s.47,4.75-.72,5.71a6.65,6.65,0,0,0-2.58,5.8c0,2,7.92-5.15,7.92-5.15Z"/><path class="cls-52" d="M28.71,317.27s-.12,4.33.49,4.59,3-1.25,4-2.74-1.29-5-1.68-6.87c-.16-.8-2-2.24-2.87-1.83a4.34,4.34,0,0,0-1.53,1.47S29.38,313.45,28.71,317.27Z"/><path class="cls-53" d="M27.12,311.9a23.88,23.88,0,0,1,1.16,2.63c.4,1.15.47,4.32.72,4.54s2.21-.77,2.47-2-.53-3.56-1.29-4.81a7.76,7.76,0,0,0-1.53-1.87A2,2,0,0,0,27.12,311.9Z"/><polygon class="cls-52" points="31.52 312.26 33.63 315.34 33.23 315.61 31.6 313.23 31.52 312.26"/><path class="cls-53" d="M23.93,278.24s1,1.74,0,3S16,286,16,288a17.38,17.38,0,0,0,1.78,6c.46.8,2.14,4.11,3,6.05s5.93,11.22,6.92,13.31.38-8.37.38-8.37l-5.06-14.83,11.82-11.51S33.44,275.44,23.93,278.24Z"/><path class="cls-34" d="M28.43,258.6a22.85,22.85,0,0,0-4.58,1.49c-1.3.76-4.19,4.26-4.19,5.76s12.64,2.91,12.64,2.91l2.4,8.75s6.39-1.56,7.15-2.85-2.52-10.49-3-12.43S36,259,33.36,258.6A18.28,18.28,0,0,0,28.43,258.6Z"/><path class="cls-13" d="M36.18,278.53s-.23,1.5.38,2.13,3.41,4.33,1.93,8c-1.36,3.33-4,3.27-4,3.27H30.39s1.19,6,.8,10S29,314.83,29,315.28s-1.73,1.88-2.22,1.16c0,0,0-5.44-.31-7.49s-1.4-10.27-1.74-11.48-2.36-4.91-2.36-5.29-2-6.33,2.33-7.85S30.48,278.56,36.18,278.53Z"/><path class="cls-54" d="M24.71,320.64s-2.82,3.29-2.5,3.88,3.08.89,4.82.38,2.11-4.67,3-6.4c.38-.72-.13-3-1.08-3.22a4.34,4.34,0,0,0-2.12.18S27.63,318.08,24.71,320.64Z"/><path class="cls-13" d="M26.85,315.46a23.91,23.91,0,0,1-.75,2.77c-.41,1.14-2.35,3.66-2.3,4s2.2.79,3.15,0,1.82-3.1,2-4.55a7.75,7.75,0,0,0,0-2.42A2,2,0,0,0,26.85,315.46Z"/><polygon class="cls-54" points="30.05 318.51 29.75 322.23 29.27 322.19 29.5 319.31 30.05 318.51"/><path class="cls-15" d="M38.49,288.62c-1.29,3.38-4,3.27-4,3.27H30.39a8.08,8.08,0,0,0-5.88-3.17,12.36,12.36,0,0,0-3.15.07h0c-5.55.82-4.48,2.86-4.46,2.91a10,10,0,0,1-.83-3.88c.53-4.39,6.88-5.32,7.91-6.58s0-3,0-3c9.51-2.8,10.94.38,10.94.38.42-.06,1.49-.67,1.94-.68,0,0,.48,1,.81,2S39.88,285,38.49,288.62Z"/><polygon class="cls-55" points="34.54 264.43 35.95 277.51 17.43 277.51 16.02 264.43 34.54 264.43"/><rect class="cls-55" x="34.33" y="276.33" width="3.09" height="1.18"/><rect class="cls-56" x="4.67" y="277.51" width="58.98" height="1.78"/><path class="cls-13" d="M30.48,244.32s4.15,1.23,3.56,7-3.3,5.46-3.56,5.5-3.47.25-4.49-6.73S30.48,244.32,30.48,244.32Z"/><path class="cls-13" d="M32.46,255.75a9.49,9.49,0,0,0,.15,3.09c.37,1.19-4.83,1.22-4.83.24s.53-2,0-3.93S32.46,255.75,32.46,255.75Z"/><path class="cls-36" d="M29.41,246.89s2.25,3.59,4.63,4.42c0,0,1.3-6-4.06-7.28s-4.51,6.08-4.11,8A15.9,15.9,0,0,1,29.41,246.89Z"/><path class="cls-45" d="M28.42,256a2.81,2.81,0,0,0,3.74.18,1.68,1.68,0,0,1-1.68,1.23A2.1,2.1,0,0,1,28.42,256Z"/><path class="cls-57" d="M26.38,246.35s1.19-2.3,3.19-2.4a4,4,0,0,1,3.2,1.64,3.41,3.41,0,0,0-3.19-2C27.17,243.63,26.38,246.35,26.38,246.35Z"/><path class="cls-13" d="M33.13,258.57s-.07,4-3.23,4.1-2.5-3.82-2.5-3.82A11,11,0,0,1,33.13,258.57Z"/><rect class="cls-58" x="62.33" y="279.29" width="1.31" height="44.95"/><rect class="cls-58" x="4.67" y="279.29" width="1.31" height="44.95"/><path class="cls-34" d="M162.29,79.68a6,6,0,0,1-3.13-2.09,4.53,4.53,0,0,1-.92-3.73,27.51,27.51,0,0,0-.16-7.25A12.16,12.16,0,1,1,172.25,70a26.18,26.18,0,0,0-3,6.24c-.58,2.61-3.51,4.2-6.55,3.54Zm8.26-31.55a11.16,11.16,0,0,0-11.62,17.94l.09.11,0,.14a28.67,28.67,0,0,1,.18,7.69v0a3.55,3.55,0,0,0,.73,2.93,5.12,5.12,0,0,0,3,1.84c2.51.54,4.92-.71,5.37-2.8v0a27.33,27.33,0,0,1,3.16-6.63l.08-.13.15-.06a11.16,11.16,0,0,0-1.17-21Z"/><polygon class="cls-34" points="160.94 75.16 162.09 61.87 164.33 64.67 166.4 63.16 167.48 65.21 170.45 63.6 166.19 76.27 165.25 75.95 168.71 65.68 167.07 66.57 166.05 64.65 164.15 66.04 162.87 64.44 161.93 75.25 160.94 75.16"/><rect class="cls-34" x="158.31" y="78.57" width="8.62" height="3.47" transform="translate(20.7 -32.62) rotate(12.23)"/><rect class="cls-34" x="157.45" y="75.08" width="11.39" height="5.59" transform="translate(20.19 -32.78) rotate(12.23)"/><polygon class="cls-59" points="7.87 165.44 7.27 165.24 12.31 150.57 23.57 147.45 27.44 131.37 36.11 127.42 37.92 114.94 38.55 115.03 36.69 127.86 27.98 131.82 24.1 147.96 12.8 151.09 7.87 165.44"/><circle class="cls-10" cx="23.83" cy="147.71" r="1.69" transform="translate(-89.23 49.72) rotate(-39.92)"/><path class="cls-59" d="M25.12,149.25a2,2,0,1,1,.25-2.83A2,2,0,0,1,25.12,149.25Zm-2.18-2.6a1.38,1.38,0,1,0,1.94.17A1.38,1.38,0,0,0,22.95,146.65Z"/><circle class="cls-10" cx="27.76" cy="131.69" r="1.69" transform="translate(-78.04 48.51) rotate(-39.92)"/><path class="cls-59" d="M29.05,133.24a2,2,0,1,1,.25-2.83A2,2,0,0,1,29.05,133.24Zm-2.18-2.6a1.38,1.38,0,1,0,1.94.17A1.38,1.38,0,0,0,26.88,130.64Z"/><circle class="cls-10" cx="36.29" cy="127.64" r="1.69" transform="translate(-73.45 53.04) rotate(-39.92)"/><path class="cls-59" d="M37.58,129.18a2,2,0,1,1,.25-2.83A2,2,0,0,1,37.58,129.18Zm-2.18-2.6a1.38,1.38,0,1,0,1.94.17A1.38,1.38,0,0,0,35.41,126.58Z"/><circle class="cls-10" cx="12.62" cy="150.97" r="1.69" transform="translate(-93.95 43.29) rotate(-39.92)"/><path class="cls-59" d="M13.91,152.52a2,2,0,1,1,.25-2.83A2,2,0,0,1,13.91,152.52Zm-2.18-2.6a1.38,1.38,0,1,0,1.94.17A1.38,1.38,0,0,0,11.74,149.92Z"/><rect class="cls-60" x="336.01" y="122.97" width="27.27" height="1.91" transform="translate(699.3 247.86) rotate(180)"/><rect class="cls-60" x="336.01" y="126.58" width="27.27" height="8.04" transform="translate(699.3 261.19) rotate(180)"/><rect class="cls-60" x="323.2" y="137.31" width="16.09" height="1.2" transform="translate(662.49 275.83) rotate(180)"/><rect class="cls-60" x="323.2" y="139.04" width="16.09" height="3.25" transform="translate(662.49 281.33) rotate(180)"/><rect class="cls-61" x="367.76" y="112.67" width="1.2" height="22.52" transform="translate(736.72 247.86) rotate(180)"/><polygon class="cls-62" points="367.81 190.9 348.18 179.93 354.92 179.48 367.81 190.9"/><polygon class="cls-63" points="367.81 190.9 361.76 181.19 356.7 181.05 367.81 190.9"/><polygon class="cls-64" points="352.69 182.45 352.3 184.92 367.81 190.9 352.69 182.45"/><path class="cls-65" d="M29.21,201.58a58.6,58.6,0,0,1-.47-7.88q0-.74,0-1.54l1.55,0q0,.78,0,1.5a58.28,58.28,0,0,0,.45,7.66ZM31.13,183l-1.53-.25a54.25,54.25,0,0,1,2.29-9.15l1.46.51A52.71,52.71,0,0,0,31.13,183Zm317.69-7a29.64,29.64,0,0,0-6.32-4.92l.81-1.32A31.28,31.28,0,0,1,350,175Zm-133.59-4.79v-1.55c3.11,0,6.22-.08,9.26-.23l.07,1.55C221.5,171.16,218.36,171.24,215.23,171.24Zm-9.33-.18c-3-.12-6.17-.31-9.31-.56l.12-1.55c3.12.25,6.24.43,9.26.55Zm28-.71-.15-1.54c3.07-.29,6.17-.67,9.2-1.11l.22,1.53C240.09,169.68,237,170.06,233.88,170.35Zm-46.58-.74c-3-.34-6.1-.74-9.25-1.19l.22-1.53c3.13.45,6.22.84,9.2,1.18Zm65.06-2-.3-1.52c2.22-.44,4.47-.93,6.67-1.45l2.39-.55.34,1.51-2.38.55C256.86,166.72,254.59,167.21,252.35,167.66Zm82-.66a71.76,71.76,0,0,0-8.73-2.9l.4-1.5a73.34,73.34,0,0,1,8.92,3Zm-165.47,0c-3-.5-6-1-9.17-1.64l.29-1.52c3.21.6,6.2,1.14,9.14,1.63ZM37.27,165.91,36,165.08a34.47,34.47,0,0,1,6.1-7.26l1,1.15A32.91,32.91,0,0,0,37.27,165.91Zm233.27-2.12-.28-1.53c3.12-.56,6.22-1.05,9.23-1.45l.2,1.54C276.71,162.75,273.63,163.23,270.54,163.79Zm-120-.23q-4.58-.93-9.11-1.9l.32-1.52q4.53,1,9.1,1.89Zm166-1.32c-2.94-.45-6-.79-9.18-1l.1-1.55c3.19.21,6.32.54,9.31,1Zm-27.65-.83-.12-1.55c3.17-.24,6.31-.37,9.34-.4l0,1.55C295.15,161,292,161.17,288.9,161.41Zm-156.58-1.69-9.09-1.95.32-1.52,9.1,1.95Zm-18.19-3.83c-3.28-.66-6.26-1.24-9.12-1.77l.28-1.52c2.86.53,5.86,1.11,9.14,1.77ZM50.6,154l-.68-1.4a40.27,40.27,0,0,1,8.94-3L59.2,151A38.74,38.74,0,0,0,50.6,154Zm45.26-1.42c-3.17-.51-6.25-1-9.18-1.33l.2-1.54c2.94.38,6,.83,9.23,1.34Zm-18.39-2.35h-.12c-2.27-.2-4.5-.3-6.62-.3q-1.25,0-2.46,0l-.06-1.55c.82,0,1.69,0,2.52,0,2.16,0,4.43.1,6.75.31h.12Z"/></g></g></svg>